<?xml version="1.0" encoding="utf-8" standalone="no"?>
<!DOCTYPE svg PUBLIC "-//W3C//DTD SVG 1.1//EN"
  "http://www.w3.org/Graphics/SVG/1.1/DTD/svg11.dtd">
<svg height="720pt" version="1.1" viewBox="0 0 1080 720" width="1080pt" xmlns="http://www.w3.org/2000/svg" xmlns:xlink="http://www.w3.org/1999/xlink">
 <metadata>
  <rdf:RDF xmlns:cc="http://creativecommons.org/ns#" xmlns:dc="http://purl.org/dc/elements/1.1/" xmlns:rdf="http://www.w3.org/1999/02/22-rdf-syntax-ns#">
   <cc:Work>
    <dc:type rdf:resource="http://purl.org/dc/dcmitype/StillImage"/>
    <dc:date>2021-10-01T13:47:36.259497</dc:date>
    <dc:format>image/svg+xml</dc:format>
    <dc:creator>
     <cc:Agent>
      <dc:title>Matplotlib v3.4.2, https://matplotlib.org/</dc:title>
     </cc:Agent>
    </dc:creator>
   </cc:Work>
  </rdf:RDF>
 </metadata>
 <defs>
  <style type="text/css">*{stroke-linecap:butt;stroke-linejoin:round;}</style>
 </defs>
 <g id="figure_1">
  <g id="patch_1">
   <path d="M 0 720 
L 1080 720 
L 1080 0 
L 0 0 
z
" style="fill:#f0ffff;"/>
  </g>
  <g id="axes_1">
   <g id="patch_2">
    <path d="M 135 630 
L 972 630 
L 972 86.4 
L 135 86.4 
z
" style="fill:#ffffff;"/>
   </g>
   <g id="PolyCollection_1">
    <defs>
     <path d="M 239.696855 -115.33877 
L 239.553145 -115.33877 
L 239.208498 -119.122514 
L 238.143807 -122.906259 
L 236.142344 -126.690003 
L 233.466266 -130.473748 
L 229.915008 -134.257492 
L 224.235435 -138.041237 
L 214.733514 -141.824981 
L 200.478899 -145.608726 
L 183.491645 -149.39247 
L 168.923123 -153.176215 
L 160.534784 -156.959959 
L 157.852303 -160.743704 
L 159.020418 -164.527449 
L 163.058973 -168.311193 
L 169.215295 -172.094938 
L 175.954404 -175.878682 
L 182.013407 -179.662427 
L 187.8465 -183.446171 
L 194.070515 -187.229916 
L 200.346189 -191.01366 
L 206.131108 -194.797405 
L 210.899172 -198.581149 
L 214.754794 -202.364894 
L 218.501771 -206.148638 
L 222.226923 -209.932383 
L 225.141141 -213.716128 
L 226.905499 -217.499872 
L 227.894499 -221.283617 
L 228.522959 -225.067361 
L 229.162177 -228.851106 
L 230.076076 -232.63485 
L 231.13554 -236.418595 
L 232.051816 -240.202339 
L 232.655131 -243.986084 
L 233.032704 -247.769828 
L 233.417172 -251.553573 
L 233.889415 -255.337317 
L 234.41829 -259.121062 
L 235.0125 -262.904807 
L 235.593524 -266.688551 
L 236.05662 -270.472296 
L 236.408001 -274.25604 
L 236.706777 -278.039785 
L 237.015956 -281.823529 
L 237.29736 -285.607274 
L 237.515644 -289.391018 
L 237.713424 -293.174763 
L 237.857272 -296.958507 
L 237.919034 -300.742252 
L 238.02321 -304.525996 
L 238.255556 -308.309741 
L 238.539616 -312.093486 
L 238.775558 -315.87723 
L 238.94097 -319.660975 
L 239.056106 -323.444719 
L 239.140946 -327.228464 
L 239.206225 -331.012208 
L 239.256088 -334.795953 
L 239.268955 -338.579697 
L 239.244306 -342.363442 
L 239.242267 -346.147186 
L 239.286927 -349.930931 
L 239.32315 -353.714675 
L 239.314533 -357.49842 
L 239.286709 -361.282165 
L 239.272876 -365.065909 
L 239.299337 -368.849654 
L 239.355424 -372.633398 
L 239.379801 -376.417143 
L 239.359384 -380.200887 
L 239.356108 -383.984632 
L 239.397087 -387.768376 
L 239.447116 -391.552121 
L 239.486714 -395.335865 
L 239.516333 -399.11961 
L 239.538431 -402.903354 
L 239.556495 -406.687099 
L 239.560712 -410.470844 
L 239.554759 -414.254588 
L 239.563442 -418.038333 
L 239.584726 -421.822077 
L 239.599696 -425.605822 
L 239.609186 -429.389566 
L 239.613131 -433.173311 
L 239.600262 -436.957055 
L 239.567942 -440.7408 
L 239.535638 -444.524544 
L 239.525236 -448.308289 
L 239.530079 -452.092033 
L 239.542938 -455.875778 
L 239.570922 -459.659523 
L 239.593015 -463.443267 
L 239.587984 -467.227012 
L 239.574811 -471.010756 
L 239.577692 -474.794501 
L 239.591268 -478.578245 
L 239.604789 -482.36199 
L 239.616177 -486.145734 
L 239.622674 -489.929479 
L 239.627326 -489.929479 
L 239.627326 -489.929479 
L 239.633823 -486.145734 
L 239.645211 -482.36199 
L 239.658732 -478.578245 
L 239.672308 -474.794501 
L 239.675189 -471.010756 
L 239.662016 -467.227012 
L 239.656985 -463.443267 
L 239.679078 -459.659523 
L 239.707062 -455.875778 
L 239.719921 -452.092033 
L 239.724764 -448.308289 
L 239.714362 -444.524544 
L 239.682058 -440.7408 
L 239.649738 -436.957055 
L 239.636869 -433.173311 
L 239.640814 -429.389566 
L 239.650304 -425.605822 
L 239.665274 -421.822077 
L 239.686558 -418.038333 
L 239.695241 -414.254588 
L 239.689288 -410.470844 
L 239.693505 -406.687099 
L 239.711569 -402.903354 
L 239.733667 -399.11961 
L 239.763286 -395.335865 
L 239.802884 -391.552121 
L 239.852913 -387.768376 
L 239.893892 -383.984632 
L 239.890616 -380.200887 
L 239.870199 -376.417143 
L 239.894576 -372.633398 
L 239.950663 -368.849654 
L 239.977124 -365.065909 
L 239.963291 -361.282165 
L 239.935467 -357.49842 
L 239.92685 -353.714675 
L 239.963073 -349.930931 
L 240.007733 -346.147186 
L 240.005694 -342.363442 
L 239.981045 -338.579697 
L 239.993912 -334.795953 
L 240.043775 -331.012208 
L 240.109054 -327.228464 
L 240.193894 -323.444719 
L 240.30903 -319.660975 
L 240.474442 -315.87723 
L 240.710384 -312.093486 
L 240.994444 -308.309741 
L 241.22679 -304.525996 
L 241.330966 -300.742252 
L 241.392728 -296.958507 
L 241.536576 -293.174763 
L 241.734356 -289.391018 
L 241.95264 -285.607274 
L 242.234044 -281.823529 
L 242.543223 -278.039785 
L 242.841999 -274.25604 
L 243.19338 -270.472296 
L 243.656476 -266.688551 
L 244.2375 -262.904807 
L 244.83171 -259.121062 
L 245.360585 -255.337317 
L 245.832828 -251.553573 
L 246.217296 -247.769828 
L 246.594869 -243.986084 
L 247.198184 -240.202339 
L 248.11446 -236.418595 
L 249.173924 -232.63485 
L 250.087823 -228.851106 
L 250.727041 -225.067361 
L 251.355501 -221.283617 
L 252.344501 -217.499872 
L 254.108859 -213.716128 
L 257.023077 -209.932383 
L 260.748229 -206.148638 
L 264.495206 -202.364894 
L 268.350828 -198.581149 
L 273.118892 -194.797405 
L 278.903811 -191.01366 
L 285.179485 -187.229916 
L 291.4035 -183.446171 
L 297.236593 -179.662427 
L 303.295596 -175.878682 
L 310.034705 -172.094938 
L 316.191027 -168.311193 
L 320.229582 -164.527449 
L 321.397697 -160.743704 
L 318.715216 -156.959959 
L 310.326877 -153.176215 
L 295.758355 -149.39247 
L 278.771101 -145.608726 
L 264.516486 -141.824981 
L 255.014565 -138.041237 
L 249.334992 -134.257492 
L 245.783734 -130.473748 
L 243.107656 -126.690003 
L 241.106193 -122.906259 
L 240.041502 -119.122514 
L 239.696855 -115.33877 
z
" id="m41571989b0" style="stroke:#3d3d3d;stroke-width:2.25;"/>
    </defs>
    <g clip-path="url(#pd869ac6058)">
     <use style="fill:#3274a1;stroke:#3d3d3d;stroke-width:2.25;" x="0" xlink:href="#m41571989b0" y="720"/>
    </g>
   </g>
   <g id="PolyCollection_2">
    <defs>
     <path d="M 448.945724 -115.860054 
L 448.804276 -115.860054 
L 448.269249 -120.840164 
L 446.421191 -125.820273 
L 443.224054 -130.800383 
L 439.059151 -135.780493 
L 431.524814 -140.760602 
L 416.599572 -145.740712 
L 396.294996 -150.720822 
L 378.311363 -155.700931 
L 367.238273 -160.681041 
L 365.175 -165.66115 
L 369.032627 -170.64126 
L 375.120295 -175.62137 
L 383.254584 -180.601479 
L 392.613676 -185.581589 
L 401.507336 -190.561699 
L 409.31647 -195.541808 
L 416.208343 -200.521918 
L 422.253933 -205.502028 
L 427.088123 -210.482137 
L 430.982504 -215.462247 
L 433.958906 -220.442357 
L 436.158687 -225.422466 
L 438.214183 -230.402576 
L 439.866009 -235.382686 
L 440.855895 -240.362795 
L 441.6645 -245.342905 
L 442.417433 -250.323014 
L 442.816089 -255.303124 
L 443.204532 -260.283234 
L 443.766544 -265.263343 
L 444.287795 -270.243453 
L 444.715792 -275.223563 
L 445.179992 -280.203672 
L 445.785955 -285.183782 
L 446.316065 -290.163892 
L 446.648896 -295.144001 
L 446.87296 -300.124111 
L 447.123916 -305.104221 
L 447.487843 -310.08433 
L 447.741384 -315.06444 
L 447.873568 -320.04455 
L 448.014204 -325.024659 
L 448.195597 -330.004769 
L 448.356077 -334.984878 
L 448.397928 -339.964988 
L 448.404427 -344.945098 
L 448.464928 -349.925207 
L 448.547838 -354.905317 
L 448.632554 -359.885427 
L 448.689058 -364.865536 
L 448.711748 -369.845646 
L 448.711888 -374.825756 
L 448.696458 -379.805865 
L 448.694376 -384.785975 
L 448.736214 -389.766085 
L 448.77479 -394.746194 
L 448.791613 -399.726304 
L 448.796806 -404.706414 
L 448.787958 -409.686523 
L 448.768945 -414.666633 
L 448.733255 -419.646742 
L 448.689964 -424.626852 
L 448.68484 -429.606962 
L 448.723729 -434.587071 
L 448.74483 -439.567181 
L 448.750932 -444.547291 
L 448.790422 -449.5274 
L 448.839329 -454.50751 
L 448.847573 -459.48762 
L 448.829327 -464.467729 
L 448.820426 -469.447839 
L 448.831646 -474.427949 
L 448.831396 -479.408058 
L 448.824422 -484.388168 
L 448.833807 -489.368278 
L 448.842268 -494.348387 
L 448.845951 -499.328497 
L 448.849457 -504.308606 
L 448.853424 -509.288716 
L 448.849119 -514.268826 
L 448.841935 -519.248935 
L 448.855163 -524.229045 
L 448.8698 -529.209155 
L 448.869935 -534.189264 
L 448.860797 -539.169374 
L 448.85935 -544.149484 
L 448.866439 -549.129593 
L 448.862039 -554.109703 
L 448.850307 -559.089813 
L 448.848998 -564.069922 
L 448.858575 -569.050032 
L 448.861431 -574.030142 
L 448.857777 -579.010251 
L 448.864748 -583.990361 
L 448.870822 -588.970471 
L 448.865046 -593.95058 
L 448.858109 -598.93069 
L 448.8646 -603.910799 
L 448.872714 -608.890909 
L 448.877286 -608.890909 
L 448.877286 -608.890909 
L 448.8854 -603.910799 
L 448.891891 -598.93069 
L 448.884954 -593.95058 
L 448.879178 -588.970471 
L 448.885252 -583.990361 
L 448.892223 -579.010251 
L 448.888569 -574.030142 
L 448.891425 -569.050032 
L 448.901002 -564.069922 
L 448.899693 -559.089813 
L 448.887961 -554.109703 
L 448.883561 -549.129593 
L 448.89065 -544.149484 
L 448.889203 -539.169374 
L 448.880065 -534.189264 
L 448.8802 -529.209155 
L 448.894837 -524.229045 
L 448.908065 -519.248935 
L 448.900881 -514.268826 
L 448.896576 -509.288716 
L 448.900543 -504.308606 
L 448.904049 -499.328497 
L 448.907732 -494.348387 
L 448.916193 -489.368278 
L 448.925578 -484.388168 
L 448.918604 -479.408058 
L 448.918354 -474.427949 
L 448.929574 -469.447839 
L 448.920673 -464.467729 
L 448.902427 -459.48762 
L 448.910671 -454.50751 
L 448.959578 -449.5274 
L 448.999068 -444.547291 
L 449.00517 -439.567181 
L 449.026271 -434.587071 
L 449.06516 -429.606962 
L 449.060036 -424.626852 
L 449.016745 -419.646742 
L 448.981055 -414.666633 
L 448.962042 -409.686523 
L 448.953194 -404.706414 
L 448.958387 -399.726304 
L 448.97521 -394.746194 
L 449.013786 -389.766085 
L 449.055624 -384.785975 
L 449.053542 -379.805865 
L 449.038112 -374.825756 
L 449.038252 -369.845646 
L 449.060942 -364.865536 
L 449.117446 -359.885427 
L 449.202162 -354.905317 
L 449.285072 -349.925207 
L 449.345573 -344.945098 
L 449.352072 -339.964988 
L 449.393923 -334.984878 
L 449.554403 -330.004769 
L 449.735796 -325.024659 
L 449.876432 -320.04455 
L 450.008616 -315.06444 
L 450.262157 -310.08433 
L 450.626084 -305.104221 
L 450.87704 -300.124111 
L 451.101104 -295.144001 
L 451.433935 -290.163892 
L 451.964045 -285.183782 
L 452.570008 -280.203672 
L 453.034208 -275.223563 
L 453.462205 -270.243453 
L 453.983456 -265.263343 
L 454.545468 -260.283234 
L 454.933911 -255.303124 
L 455.332567 -250.323014 
L 456.0855 -245.342905 
L 456.894105 -240.362795 
L 457.883991 -235.382686 
L 459.535817 -230.402576 
L 461.591313 -225.422466 
L 463.791094 -220.442357 
L 466.767496 -215.462247 
L 470.661877 -210.482137 
L 475.496067 -205.502028 
L 481.541657 -200.521918 
L 488.43353 -195.541808 
L 496.242664 -190.561699 
L 505.136324 -185.581589 
L 514.495416 -180.601479 
L 522.629705 -175.62137 
L 528.717373 -170.64126 
L 532.575 -165.66115 
L 530.511727 -160.681041 
L 519.438637 -155.700931 
L 501.455004 -150.720822 
L 481.150428 -145.740712 
L 466.225186 -140.760602 
L 458.690849 -135.780493 
L 454.525946 -130.800383 
L 451.328809 -125.820273 
L 449.480751 -120.840164 
L 448.945724 -115.860054 
z
" id="m0811477449" style="stroke:#3d3d3d;stroke-width:2.25;"/>
    </defs>
    <g clip-path="url(#pd869ac6058)">
     <use style="fill:#e1812c;stroke:#3d3d3d;stroke-width:2.25;" x="0" xlink:href="#m0811477449" y="720"/>
    </g>
   </g>
   <g id="PolyCollection_3">
    <defs>
     <path d="M 658.198914 -117.824618 
L 658.051086 -117.824618 
L 657.678615 -121.92611 
L 656.564293 -126.027603 
L 654.590758 -130.129095 
L 651.968434 -134.230587 
L 648.123211 -138.332079 
L 641.259281 -142.433572 
L 629.478575 -146.535064 
L 613.131029 -150.636556 
L 595.84788 -154.738048 
L 582.249788 -158.839541 
L 575.384931 -162.941033 
L 575.746503 -167.042525 
L 581.508175 -171.144017 
L 590.411121 -175.24551 
L 600.283632 -179.347002 
L 609.210264 -183.448494 
L 616.965718 -187.549986 
L 623.954499 -191.651479 
L 629.826044 -195.752971 
L 634.185725 -199.854463 
L 637.319438 -203.955955 
L 639.713629 -208.057448 
L 641.804652 -212.15894 
L 643.966972 -216.260432 
L 646.119577 -220.361924 
L 647.976424 -224.463417 
L 649.374164 -228.564909 
L 650.211365 -232.666401 
L 650.559559 -236.767893 
L 650.708381 -240.869386 
L 650.891481 -244.970878 
L 651.286677 -249.07237 
L 651.96886 -253.173862 
L 652.700364 -257.275355 
L 653.295427 -261.376847 
L 653.714446 -265.478339 
L 654.04396 -269.579831 
L 654.439989 -273.681324 
L 654.901005 -277.782816 
L 655.340523 -281.884308 
L 655.73261 -285.9858 
L 656.052289 -290.087293 
L 656.276556 -294.188785 
L 656.468041 -298.290277 
L 656.681452 -302.391769 
L 656.890637 -306.493262 
L 657.050848 -310.594754 
L 657.194791 -314.696246 
L 657.319467 -318.797738 
L 657.394592 -322.899231 
L 657.466071 -327.000723 
L 657.580571 -331.102215 
L 657.703487 -335.203707 
L 657.761585 -339.3052 
L 657.76458 -343.406692 
L 657.748956 -347.508184 
L 657.716844 -351.609676 
L 657.687623 -355.711169 
L 657.679149 -359.812661 
L 657.714832 -363.914153 
L 657.798823 -368.015645 
L 657.844061 -372.117138 
L 657.815925 -376.21863 
L 657.815437 -380.320122 
L 657.888091 -384.421614 
L 657.973309 -388.523106 
L 658.021075 -392.624599 
L 658.032045 -396.726091 
L 658.021232 -400.827583 
L 658.006748 -404.929075 
L 657.999827 -409.030568 
L 658.003416 -413.13206 
L 658.001826 -417.233552 
L 657.983613 -421.335044 
L 657.978992 -425.436537 
L 658.00692 -429.538029 
L 658.035428 -433.639521 
L 658.038514 -437.741013 
L 658.035783 -441.842506 
L 658.046894 -445.943998 
L 658.069921 -450.04549 
L 658.093871 -454.146982 
L 658.10594 -458.248475 
L 658.108269 -462.349967 
L 658.113393 -466.451459 
L 658.118182 -470.552951 
L 658.114917 -474.654444 
L 658.110006 -478.755936 
L 658.113442 -482.857428 
L 658.120553 -486.95892 
L 658.123185 -491.060413 
L 658.119832 -495.161905 
L 658.112483 -499.263397 
L 658.109113 -503.364889 
L 658.110851 -507.466382 
L 658.109662 -511.567874 
L 658.110304 -515.669366 
L 658.117224 -519.770858 
L 658.122963 -523.872351 
L 658.127037 -523.872351 
L 658.127037 -523.872351 
L 658.132776 -519.770858 
L 658.139696 -515.669366 
L 658.140338 -511.567874 
L 658.139149 -507.466382 
L 658.140887 -503.364889 
L 658.137517 -499.263397 
L 658.130168 -495.161905 
L 658.126815 -491.060413 
L 658.129447 -486.95892 
L 658.136558 -482.857428 
L 658.139994 -478.755936 
L 658.135083 -474.654444 
L 658.131818 -470.552951 
L 658.136607 -466.451459 
L 658.141731 -462.349967 
L 658.14406 -458.248475 
L 658.156129 -454.146982 
L 658.180079 -450.04549 
L 658.203106 -445.943998 
L 658.214217 -441.842506 
L 658.211486 -437.741013 
L 658.214572 -433.639521 
L 658.24308 -429.538029 
L 658.271008 -425.436537 
L 658.266387 -421.335044 
L 658.248174 -417.233552 
L 658.246584 -413.13206 
L 658.250173 -409.030568 
L 658.243252 -404.929075 
L 658.228768 -400.827583 
L 658.217955 -396.726091 
L 658.228925 -392.624599 
L 658.276691 -388.523106 
L 658.361909 -384.421614 
L 658.434563 -380.320122 
L 658.434075 -376.21863 
L 658.405939 -372.117138 
L 658.451177 -368.015645 
L 658.535168 -363.914153 
L 658.570851 -359.812661 
L 658.562377 -355.711169 
L 658.533156 -351.609676 
L 658.501044 -347.508184 
L 658.48542 -343.406692 
L 658.488415 -339.3052 
L 658.546513 -335.203707 
L 658.669429 -331.102215 
L 658.783929 -327.000723 
L 658.855408 -322.899231 
L 658.930533 -318.797738 
L 659.055209 -314.696246 
L 659.199152 -310.594754 
L 659.359363 -306.493262 
L 659.568548 -302.391769 
L 659.781959 -298.290277 
L 659.973444 -294.188785 
L 660.197711 -290.087293 
L 660.51739 -285.9858 
L 660.909477 -281.884308 
L 661.348995 -277.782816 
L 661.810011 -273.681324 
L 662.20604 -269.579831 
L 662.535554 -265.478339 
L 662.954573 -261.376847 
L 663.549636 -257.275355 
L 664.28114 -253.173862 
L 664.963323 -249.07237 
L 665.358519 -244.970878 
L 665.541619 -240.869386 
L 665.690441 -236.767893 
L 666.038635 -232.666401 
L 666.875836 -228.564909 
L 668.273576 -224.463417 
L 670.130423 -220.361924 
L 672.283028 -216.260432 
L 674.445348 -212.15894 
L 676.536371 -208.057448 
L 678.930562 -203.955955 
L 682.064275 -199.854463 
L 686.423956 -195.752971 
L 692.295501 -191.651479 
L 699.284282 -187.549986 
L 707.039736 -183.448494 
L 715.966368 -179.347002 
L 725.838879 -175.24551 
L 734.741825 -171.144017 
L 740.503497 -167.042525 
L 740.865069 -162.941033 
L 734.000212 -158.839541 
L 720.40212 -154.738048 
L 703.118971 -150.636556 
L 686.771425 -146.535064 
L 674.990719 -142.433572 
L 668.126789 -138.332079 
L 664.281566 -134.230587 
L 661.659242 -130.129095 
L 659.685707 -126.027603 
L 658.571385 -121.92611 
L 658.198914 -117.824618 
z
" id="m1a2982d0fa" style="stroke:#3d3d3d;stroke-width:2.25;"/>
    </defs>
    <g clip-path="url(#pd869ac6058)">
     <use style="fill:#3a923a;stroke:#3d3d3d;stroke-width:2.25;" x="0" xlink:href="#m1a2982d0fa" y="720"/>
    </g>
   </g>
   <g id="PolyCollection_4">
    <defs>
     <path d="M 867.452892 -114.709091 
L 867.297108 -114.709091 
L 866.715025 -119.646694 
L 864.800319 -124.584297 
L 861.792935 -129.5219 
L 858.087765 -134.459503 
L 851.028009 -139.397106 
L 836.200363 -144.334709 
L 814.977551 -149.272312 
L 796.400064 -154.209915 
L 785.898948 -159.147518 
L 785.021879 -164.085122 
L 791.051676 -169.022725 
L 799.241756 -173.960328 
L 808.090701 -178.897931 
L 816.853012 -183.835534 
L 824.76977 -188.773137 
L 831.336169 -193.71074 
L 837.278748 -198.648343 
L 841.990157 -203.585946 
L 845.71979 -208.523549 
L 849.293004 -213.461152 
L 852.431646 -218.398755 
L 854.931935 -223.336358 
L 857.140662 -228.273961 
L 858.938602 -233.211564 
L 859.917478 -238.149167 
L 860.441075 -243.08677 
L 861.055974 -248.024374 
L 861.867679 -252.961977 
L 862.597002 -257.89958 
L 862.875751 -262.837183 
L 862.883333 -267.774786 
L 863.004922 -272.712389 
L 863.513833 -277.649992 
L 864.223059 -282.587595 
L 864.723051 -287.525198 
L 865.114108 -292.462801 
L 865.506326 -297.400404 
L 865.846562 -302.338007 
L 866.089142 -307.27561 
L 866.266584 -312.213213 
L 866.383338 -317.150816 
L 866.548684 -322.088419 
L 866.779885 -327.026023 
L 866.924447 -331.963626 
L 866.970406 -336.901229 
L 867.004599 -341.838832 
L 867.050397 -346.776435 
L 867.10256 -351.714038 
L 867.151857 -356.651641 
L 867.226147 -361.589244 
L 867.253166 -366.526847 
L 867.216044 -371.46445 
L 867.215015 -376.402053 
L 867.252202 -381.339656 
L 867.278279 -386.277259 
L 867.29065 -391.214862 
L 867.303106 -396.152465 
L 867.325695 -401.090068 
L 867.333769 -406.027672 
L 867.311331 -410.965275 
L 867.280704 -415.902878 
L 867.243491 -420.840481 
L 867.227972 -425.778084 
L 867.249235 -430.715687 
L 867.261677 -435.65329 
L 867.269674 -440.590893 
L 867.25966 -445.528496 
L 867.251548 -450.466099 
L 867.275599 -455.403702 
L 867.312774 -460.341305 
L 867.328367 -465.278908 
L 867.338051 -470.216511 
L 867.339982 -475.154114 
L 867.329339 -480.091717 
L 867.323108 -485.02932 
L 867.333201 -489.966924 
L 867.355563 -494.904527 
L 867.370634 -499.84213 
L 867.371826 -504.779733 
L 867.362921 -509.717336 
L 867.353026 -514.654939 
L 867.351739 -519.592542 
L 867.35962 -524.530145 
L 867.37033 -529.467748 
L 867.374462 -534.405351 
L 867.374978 -539.342954 
L 867.375 -544.280557 
L 867.375 -549.21816 
L 867.375 -554.155763 
L 867.374999 -559.093366 
L 867.374947 -564.030969 
L 867.374015 -568.968573 
L 867.368428 -573.906176 
L 867.359027 -578.843779 
L 867.356737 -583.781382 
L 867.349508 -588.718985 
L 867.342192 -593.656588 
L 867.357377 -598.594191 
L 867.371534 -603.531794 
L 867.378466 -603.531794 
L 867.378466 -603.531794 
L 867.392623 -598.594191 
L 867.407808 -593.656588 
L 867.400492 -588.718985 
L 867.393263 -583.781382 
L 867.390973 -578.843779 
L 867.381572 -573.906176 
L 867.375985 -568.968573 
L 867.375053 -564.030969 
L 867.375001 -559.093366 
L 867.375 -554.155763 
L 867.375 -549.21816 
L 867.375 -544.280557 
L 867.375022 -539.342954 
L 867.375538 -534.405351 
L 867.37967 -529.467748 
L 867.39038 -524.530145 
L 867.398261 -519.592542 
L 867.396974 -514.654939 
L 867.387079 -509.717336 
L 867.378174 -504.779733 
L 867.379366 -499.84213 
L 867.394437 -494.904527 
L 867.416799 -489.966924 
L 867.426892 -485.02932 
L 867.420661 -480.091717 
L 867.410018 -475.154114 
L 867.411949 -470.216511 
L 867.421633 -465.278908 
L 867.437226 -460.341305 
L 867.474401 -455.403702 
L 867.498452 -450.466099 
L 867.49034 -445.528496 
L 867.480326 -440.590893 
L 867.488323 -435.65329 
L 867.500765 -430.715687 
L 867.522028 -425.778084 
L 867.506509 -420.840481 
L 867.469296 -415.902878 
L 867.438669 -410.965275 
L 867.416231 -406.027672 
L 867.424305 -401.090068 
L 867.446894 -396.152465 
L 867.45935 -391.214862 
L 867.471721 -386.277259 
L 867.497798 -381.339656 
L 867.534985 -376.402053 
L 867.533956 -371.46445 
L 867.496834 -366.526847 
L 867.523853 -361.589244 
L 867.598143 -356.651641 
L 867.64744 -351.714038 
L 867.699603 -346.776435 
L 867.745401 -341.838832 
L 867.779594 -336.901229 
L 867.825553 -331.963626 
L 867.970115 -327.026023 
L 868.201316 -322.088419 
L 868.366662 -317.150816 
L 868.483416 -312.213213 
L 868.660858 -307.27561 
L 868.903438 -302.338007 
L 869.243674 -297.400404 
L 869.635892 -292.462801 
L 870.026949 -287.525198 
L 870.526941 -282.587595 
L 871.236167 -277.649992 
L 871.745078 -272.712389 
L 871.866667 -267.774786 
L 871.874249 -262.837183 
L 872.152998 -257.89958 
L 872.882321 -252.961977 
L 873.694026 -248.024374 
L 874.308925 -243.08677 
L 874.832522 -238.149167 
L 875.811398 -233.211564 
L 877.609338 -228.273961 
L 879.818065 -223.336358 
L 882.318354 -218.398755 
L 885.456996 -213.461152 
L 889.03021 -208.523549 
L 892.759843 -203.585946 
L 897.471252 -198.648343 
L 903.413831 -193.71074 
L 909.98023 -188.773137 
L 917.896988 -183.835534 
L 926.659299 -178.897931 
L 935.508244 -173.960328 
L 943.698324 -169.022725 
L 949.728121 -164.085122 
L 948.851052 -159.147518 
L 938.349936 -154.209915 
L 919.772449 -149.272312 
L 898.549637 -144.334709 
L 883.721991 -139.397106 
L 876.662235 -134.459503 
L 872.957065 -129.5219 
L 869.949681 -124.584297 
L 868.034975 -119.646694 
L 867.452892 -114.709091 
z
" id="mb294ae9cf2" style="stroke:#3d3d3d;stroke-width:2.25;"/>
    </defs>
    <g clip-path="url(#pd869ac6058)">
     <use style="fill:#c03d3e;stroke:#3d3d3d;stroke-width:2.25;" x="0" xlink:href="#mb294ae9cf2" y="720"/>
    </g>
   </g>
   <g id="matplotlib.axis_1">
    <g id="xtick_1">
     <g id="line2d_1">
      <path clip-path="url(#pd869ac6058)" d="M 239.625 630 
L 239.625 86.4 
" style="fill:none;stroke:#b0b0b0;stroke-dasharray:5.55,2.4;stroke-dashoffset:0;stroke-opacity:0.5;stroke-width:1.5;"/>
     </g>
     <g id="line2d_2">
      <defs>
       <path d="M 0 0 
L 0 9 
" id="m032670f695" style="stroke:#000000;stroke-width:1.875;"/>
      </defs>
      <g>
       <use style="stroke:#000000;stroke-width:1.875;" x="239.625" xlink:href="#m032670f695" y="630"/>
      </g>
     </g>
     <g id="text_1">
      <!-- Magnolia &amp; Tyler -->
      <g transform="translate(171.227344 655.037422)scale(0.165 -0.165)">
       <defs>
        <path d="M 628 4666 
L 1569 4666 
L 2759 1491 
L 3956 4666 
L 4897 4666 
L 4897 0 
L 4281 0 
L 4281 4097 
L 3078 897 
L 2444 897 
L 1241 4097 
L 1241 0 
L 628 0 
L 628 4666 
z
" id="DejaVuSans-4d" transform="scale(0.015625)"/>
        <path d="M 2194 1759 
Q 1497 1759 1228 1600 
Q 959 1441 959 1056 
Q 959 750 1161 570 
Q 1363 391 1709 391 
Q 2188 391 2477 730 
Q 2766 1069 2766 1631 
L 2766 1759 
L 2194 1759 
z
M 3341 1997 
L 3341 0 
L 2766 0 
L 2766 531 
Q 2569 213 2275 61 
Q 1981 -91 1556 -91 
Q 1019 -91 701 211 
Q 384 513 384 1019 
Q 384 1609 779 1909 
Q 1175 2209 1959 2209 
L 2766 2209 
L 2766 2266 
Q 2766 2663 2505 2880 
Q 2244 3097 1772 3097 
Q 1472 3097 1187 3025 
Q 903 2953 641 2809 
L 641 3341 
Q 956 3463 1253 3523 
Q 1550 3584 1831 3584 
Q 2591 3584 2966 3190 
Q 3341 2797 3341 1997 
z
" id="DejaVuSans-61" transform="scale(0.015625)"/>
        <path d="M 2906 1791 
Q 2906 2416 2648 2759 
Q 2391 3103 1925 3103 
Q 1463 3103 1205 2759 
Q 947 2416 947 1791 
Q 947 1169 1205 825 
Q 1463 481 1925 481 
Q 2391 481 2648 825 
Q 2906 1169 2906 1791 
z
M 3481 434 
Q 3481 -459 3084 -895 
Q 2688 -1331 1869 -1331 
Q 1566 -1331 1297 -1286 
Q 1028 -1241 775 -1147 
L 775 -588 
Q 1028 -725 1275 -790 
Q 1522 -856 1778 -856 
Q 2344 -856 2625 -561 
Q 2906 -266 2906 331 
L 2906 616 
Q 2728 306 2450 153 
Q 2172 0 1784 0 
Q 1141 0 747 490 
Q 353 981 353 1791 
Q 353 2603 747 3093 
Q 1141 3584 1784 3584 
Q 2172 3584 2450 3431 
Q 2728 3278 2906 2969 
L 2906 3500 
L 3481 3500 
L 3481 434 
z
" id="DejaVuSans-67" transform="scale(0.015625)"/>
        <path d="M 3513 2113 
L 3513 0 
L 2938 0 
L 2938 2094 
Q 2938 2591 2744 2837 
Q 2550 3084 2163 3084 
Q 1697 3084 1428 2787 
Q 1159 2491 1159 1978 
L 1159 0 
L 581 0 
L 581 3500 
L 1159 3500 
L 1159 2956 
Q 1366 3272 1645 3428 
Q 1925 3584 2291 3584 
Q 2894 3584 3203 3211 
Q 3513 2838 3513 2113 
z
" id="DejaVuSans-6e" transform="scale(0.015625)"/>
        <path d="M 1959 3097 
Q 1497 3097 1228 2736 
Q 959 2375 959 1747 
Q 959 1119 1226 758 
Q 1494 397 1959 397 
Q 2419 397 2687 759 
Q 2956 1122 2956 1747 
Q 2956 2369 2687 2733 
Q 2419 3097 1959 3097 
z
M 1959 3584 
Q 2709 3584 3137 3096 
Q 3566 2609 3566 1747 
Q 3566 888 3137 398 
Q 2709 -91 1959 -91 
Q 1206 -91 779 398 
Q 353 888 353 1747 
Q 353 2609 779 3096 
Q 1206 3584 1959 3584 
z
" id="DejaVuSans-6f" transform="scale(0.015625)"/>
        <path d="M 603 4863 
L 1178 4863 
L 1178 0 
L 603 0 
L 603 4863 
z
" id="DejaVuSans-6c" transform="scale(0.015625)"/>
        <path d="M 603 3500 
L 1178 3500 
L 1178 0 
L 603 0 
L 603 3500 
z
M 603 4863 
L 1178 4863 
L 1178 4134 
L 603 4134 
L 603 4863 
z
" id="DejaVuSans-69" transform="scale(0.015625)"/>
        <path id="DejaVuSans-20" transform="scale(0.015625)"/>
        <path d="M 1556 2509 
Q 1272 2256 1139 2004 
Q 1006 1753 1006 1478 
Q 1006 1022 1337 719 
Q 1669 416 2169 416 
Q 2466 416 2725 514 
Q 2984 613 3213 813 
L 1556 2509 
z
M 1997 2859 
L 3584 1234 
Q 3769 1513 3872 1830 
Q 3975 2147 3994 2503 
L 4575 2503 
Q 4538 2091 4375 1687 
Q 4213 1284 3922 891 
L 4794 0 
L 4006 0 
L 3559 459 
Q 3234 181 2878 45 
Q 2522 -91 2113 -91 
Q 1359 -91 881 339 
Q 403 769 403 1441 
Q 403 1841 612 2192 
Q 822 2544 1241 2853 
Q 1091 3050 1012 3245 
Q 934 3441 934 3628 
Q 934 4134 1281 4442 
Q 1628 4750 2203 4750 
Q 2463 4750 2720 4694 
Q 2978 4638 3244 4525 
L 3244 3956 
Q 2972 4103 2725 4179 
Q 2478 4256 2266 4256 
Q 1938 4256 1733 4082 
Q 1528 3909 1528 3634 
Q 1528 3475 1620 3314 
Q 1713 3153 1997 2859 
z
" id="DejaVuSans-26" transform="scale(0.015625)"/>
        <path d="M -19 4666 
L 3928 4666 
L 3928 4134 
L 2272 4134 
L 2272 0 
L 1638 0 
L 1638 4134 
L -19 4134 
L -19 4666 
z
" id="DejaVuSans-54" transform="scale(0.015625)"/>
        <path d="M 2059 -325 
Q 1816 -950 1584 -1140 
Q 1353 -1331 966 -1331 
L 506 -1331 
L 506 -850 
L 844 -850 
Q 1081 -850 1212 -737 
Q 1344 -625 1503 -206 
L 1606 56 
L 191 3500 
L 800 3500 
L 1894 763 
L 2988 3500 
L 3597 3500 
L 2059 -325 
z
" id="DejaVuSans-79" transform="scale(0.015625)"/>
        <path d="M 3597 1894 
L 3597 1613 
L 953 1613 
Q 991 1019 1311 708 
Q 1631 397 2203 397 
Q 2534 397 2845 478 
Q 3156 559 3463 722 
L 3463 178 
Q 3153 47 2828 -22 
Q 2503 -91 2169 -91 
Q 1331 -91 842 396 
Q 353 884 353 1716 
Q 353 2575 817 3079 
Q 1281 3584 2069 3584 
Q 2775 3584 3186 3129 
Q 3597 2675 3597 1894 
z
M 3022 2063 
Q 3016 2534 2758 2815 
Q 2500 3097 2075 3097 
Q 1594 3097 1305 2825 
Q 1016 2553 972 2059 
L 3022 2063 
z
" id="DejaVuSans-65" transform="scale(0.015625)"/>
        <path d="M 2631 2963 
Q 2534 3019 2420 3045 
Q 2306 3072 2169 3072 
Q 1681 3072 1420 2755 
Q 1159 2438 1159 1844 
L 1159 0 
L 581 0 
L 581 3500 
L 1159 3500 
L 1159 2956 
Q 1341 3275 1631 3429 
Q 1922 3584 2338 3584 
Q 2397 3584 2469 3576 
Q 2541 3569 2628 3553 
L 2631 2963 
z
" id="DejaVuSans-72" transform="scale(0.015625)"/>
       </defs>
       <use xlink:href="#DejaVuSans-4d"/>
       <use x="86.279297" xlink:href="#DejaVuSans-61"/>
       <use x="147.558594" xlink:href="#DejaVuSans-67"/>
       <use x="211.035156" xlink:href="#DejaVuSans-6e"/>
       <use x="274.414062" xlink:href="#DejaVuSans-6f"/>
       <use x="335.595703" xlink:href="#DejaVuSans-6c"/>
       <use x="363.378906" xlink:href="#DejaVuSans-69"/>
       <use x="391.162109" xlink:href="#DejaVuSans-61"/>
       <use x="452.441406" xlink:href="#DejaVuSans-20"/>
       <use x="484.228516" xlink:href="#DejaVuSans-26"/>
       <use x="562.207031" xlink:href="#DejaVuSans-20"/>
       <use x="593.994141" xlink:href="#DejaVuSans-54"/>
       <use x="639.453125" xlink:href="#DejaVuSans-79"/>
       <use x="698.632812" xlink:href="#DejaVuSans-6c"/>
       <use x="726.416016" xlink:href="#DejaVuSans-65"/>
       <use x="787.939453" xlink:href="#DejaVuSans-72"/>
      </g>
     </g>
    </g>
    <g id="xtick_2">
     <g id="line2d_3">
      <path clip-path="url(#pd869ac6058)" d="M 448.875 630 
L 448.875 86.4 
" style="fill:none;stroke:#b0b0b0;stroke-dasharray:5.55,2.4;stroke-dashoffset:0;stroke-opacity:0.5;stroke-width:1.5;"/>
     </g>
     <g id="line2d_4">
      <g>
       <use style="stroke:#000000;stroke-width:1.875;" x="448.875" xlink:href="#m032670f695" y="630"/>
      </g>
     </g>
     <g id="text_2">
      <!-- Cranford &amp; University -->
      <g transform="translate(359.707969 655.037422)scale(0.165 -0.165)">
       <defs>
        <path d="M 4122 4306 
L 4122 3641 
Q 3803 3938 3442 4084 
Q 3081 4231 2675 4231 
Q 1875 4231 1450 3742 
Q 1025 3253 1025 2328 
Q 1025 1406 1450 917 
Q 1875 428 2675 428 
Q 3081 428 3442 575 
Q 3803 722 4122 1019 
L 4122 359 
Q 3791 134 3420 21 
Q 3050 -91 2638 -91 
Q 1578 -91 968 557 
Q 359 1206 359 2328 
Q 359 3453 968 4101 
Q 1578 4750 2638 4750 
Q 3056 4750 3426 4639 
Q 3797 4528 4122 4306 
z
" id="DejaVuSans-43" transform="scale(0.015625)"/>
        <path d="M 2375 4863 
L 2375 4384 
L 1825 4384 
Q 1516 4384 1395 4259 
Q 1275 4134 1275 3809 
L 1275 3500 
L 2222 3500 
L 2222 3053 
L 1275 3053 
L 1275 0 
L 697 0 
L 697 3053 
L 147 3053 
L 147 3500 
L 697 3500 
L 697 3744 
Q 697 4328 969 4595 
Q 1241 4863 1831 4863 
L 2375 4863 
z
" id="DejaVuSans-66" transform="scale(0.015625)"/>
        <path d="M 2906 2969 
L 2906 4863 
L 3481 4863 
L 3481 0 
L 2906 0 
L 2906 525 
Q 2725 213 2448 61 
Q 2172 -91 1784 -91 
Q 1150 -91 751 415 
Q 353 922 353 1747 
Q 353 2572 751 3078 
Q 1150 3584 1784 3584 
Q 2172 3584 2448 3432 
Q 2725 3281 2906 2969 
z
M 947 1747 
Q 947 1113 1208 752 
Q 1469 391 1925 391 
Q 2381 391 2643 752 
Q 2906 1113 2906 1747 
Q 2906 2381 2643 2742 
Q 2381 3103 1925 3103 
Q 1469 3103 1208 2742 
Q 947 2381 947 1747 
z
" id="DejaVuSans-64" transform="scale(0.015625)"/>
        <path d="M 556 4666 
L 1191 4666 
L 1191 1831 
Q 1191 1081 1462 751 
Q 1734 422 2344 422 
Q 2950 422 3222 751 
Q 3494 1081 3494 1831 
L 3494 4666 
L 4128 4666 
L 4128 1753 
Q 4128 841 3676 375 
Q 3225 -91 2344 -91 
Q 1459 -91 1007 375 
Q 556 841 556 1753 
L 556 4666 
z
" id="DejaVuSans-55" transform="scale(0.015625)"/>
        <path d="M 191 3500 
L 800 3500 
L 1894 563 
L 2988 3500 
L 3597 3500 
L 2284 0 
L 1503 0 
L 191 3500 
z
" id="DejaVuSans-76" transform="scale(0.015625)"/>
        <path d="M 2834 3397 
L 2834 2853 
Q 2591 2978 2328 3040 
Q 2066 3103 1784 3103 
Q 1356 3103 1142 2972 
Q 928 2841 928 2578 
Q 928 2378 1081 2264 
Q 1234 2150 1697 2047 
L 1894 2003 
Q 2506 1872 2764 1633 
Q 3022 1394 3022 966 
Q 3022 478 2636 193 
Q 2250 -91 1575 -91 
Q 1294 -91 989 -36 
Q 684 19 347 128 
L 347 722 
Q 666 556 975 473 
Q 1284 391 1588 391 
Q 1994 391 2212 530 
Q 2431 669 2431 922 
Q 2431 1156 2273 1281 
Q 2116 1406 1581 1522 
L 1381 1569 
Q 847 1681 609 1914 
Q 372 2147 372 2553 
Q 372 3047 722 3315 
Q 1072 3584 1716 3584 
Q 2034 3584 2315 3537 
Q 2597 3491 2834 3397 
z
" id="DejaVuSans-73" transform="scale(0.015625)"/>
        <path d="M 1172 4494 
L 1172 3500 
L 2356 3500 
L 2356 3053 
L 1172 3053 
L 1172 1153 
Q 1172 725 1289 603 
Q 1406 481 1766 481 
L 2356 481 
L 2356 0 
L 1766 0 
Q 1100 0 847 248 
Q 594 497 594 1153 
L 594 3053 
L 172 3053 
L 172 3500 
L 594 3500 
L 594 4494 
L 1172 4494 
z
" id="DejaVuSans-74" transform="scale(0.015625)"/>
       </defs>
       <use xlink:href="#DejaVuSans-43"/>
       <use x="69.824219" xlink:href="#DejaVuSans-72"/>
       <use x="110.9375" xlink:href="#DejaVuSans-61"/>
       <use x="172.216797" xlink:href="#DejaVuSans-6e"/>
       <use x="235.595703" xlink:href="#DejaVuSans-66"/>
       <use x="270.800781" xlink:href="#DejaVuSans-6f"/>
       <use x="331.982422" xlink:href="#DejaVuSans-72"/>
       <use x="371.345703" xlink:href="#DejaVuSans-64"/>
       <use x="434.822266" xlink:href="#DejaVuSans-20"/>
       <use x="466.609375" xlink:href="#DejaVuSans-26"/>
       <use x="544.587891" xlink:href="#DejaVuSans-20"/>
       <use x="576.375" xlink:href="#DejaVuSans-55"/>
       <use x="649.568359" xlink:href="#DejaVuSans-6e"/>
       <use x="712.947266" xlink:href="#DejaVuSans-69"/>
       <use x="740.730469" xlink:href="#DejaVuSans-76"/>
       <use x="799.910156" xlink:href="#DejaVuSans-65"/>
       <use x="861.433594" xlink:href="#DejaVuSans-72"/>
       <use x="902.546875" xlink:href="#DejaVuSans-73"/>
       <use x="954.646484" xlink:href="#DejaVuSans-69"/>
       <use x="982.429688" xlink:href="#DejaVuSans-74"/>
       <use x="1021.638672" xlink:href="#DejaVuSans-79"/>
      </g>
     </g>
    </g>
    <g id="xtick_3">
     <g id="line2d_5">
      <path clip-path="url(#pd869ac6058)" d="M 658.125 630 
L 658.125 86.4 
" style="fill:none;stroke:#b0b0b0;stroke-dasharray:5.55,2.4;stroke-dashoffset:0;stroke-opacity:0.5;stroke-width:1.5;"/>
     </g>
     <g id="line2d_6">
      <g>
       <use style="stroke:#000000;stroke-width:1.875;" x="658.125" xlink:href="#m032670f695" y="630"/>
      </g>
     </g>
     <g id="text_3">
      <!-- Chicago &amp; University -->
      <g transform="translate(571.672734 655.037422)scale(0.165 -0.165)">
       <defs>
        <path d="M 3513 2113 
L 3513 0 
L 2938 0 
L 2938 2094 
Q 2938 2591 2744 2837 
Q 2550 3084 2163 3084 
Q 1697 3084 1428 2787 
Q 1159 2491 1159 1978 
L 1159 0 
L 581 0 
L 581 4863 
L 1159 4863 
L 1159 2956 
Q 1366 3272 1645 3428 
Q 1925 3584 2291 3584 
Q 2894 3584 3203 3211 
Q 3513 2838 3513 2113 
z
" id="DejaVuSans-68" transform="scale(0.015625)"/>
        <path d="M 3122 3366 
L 3122 2828 
Q 2878 2963 2633 3030 
Q 2388 3097 2138 3097 
Q 1578 3097 1268 2742 
Q 959 2388 959 1747 
Q 959 1106 1268 751 
Q 1578 397 2138 397 
Q 2388 397 2633 464 
Q 2878 531 3122 666 
L 3122 134 
Q 2881 22 2623 -34 
Q 2366 -91 2075 -91 
Q 1284 -91 818 406 
Q 353 903 353 1747 
Q 353 2603 823 3093 
Q 1294 3584 2113 3584 
Q 2378 3584 2631 3529 
Q 2884 3475 3122 3366 
z
" id="DejaVuSans-63" transform="scale(0.015625)"/>
       </defs>
       <use xlink:href="#DejaVuSans-43"/>
       <use x="69.824219" xlink:href="#DejaVuSans-68"/>
       <use x="133.203125" xlink:href="#DejaVuSans-69"/>
       <use x="160.986328" xlink:href="#DejaVuSans-63"/>
       <use x="215.966797" xlink:href="#DejaVuSans-61"/>
       <use x="277.246094" xlink:href="#DejaVuSans-67"/>
       <use x="340.722656" xlink:href="#DejaVuSans-6f"/>
       <use x="401.904297" xlink:href="#DejaVuSans-20"/>
       <use x="433.691406" xlink:href="#DejaVuSans-26"/>
       <use x="511.669922" xlink:href="#DejaVuSans-20"/>
       <use x="543.457031" xlink:href="#DejaVuSans-55"/>
       <use x="616.650391" xlink:href="#DejaVuSans-6e"/>
       <use x="680.029297" xlink:href="#DejaVuSans-69"/>
       <use x="707.8125" xlink:href="#DejaVuSans-76"/>
       <use x="766.992188" xlink:href="#DejaVuSans-65"/>
       <use x="828.515625" xlink:href="#DejaVuSans-72"/>
       <use x="869.628906" xlink:href="#DejaVuSans-73"/>
       <use x="921.728516" xlink:href="#DejaVuSans-69"/>
       <use x="949.511719" xlink:href="#DejaVuSans-74"/>
       <use x="988.720703" xlink:href="#DejaVuSans-79"/>
      </g>
     </g>
    </g>
    <g id="xtick_4">
     <g id="line2d_7">
      <path clip-path="url(#pd869ac6058)" d="M 867.375 630 
L 867.375 86.4 
" style="fill:none;stroke:#b0b0b0;stroke-dasharray:5.55,2.4;stroke-dashoffset:0;stroke-opacity:0.5;stroke-width:1.5;"/>
     </g>
     <g id="line2d_8">
      <g>
       <use style="stroke:#000000;stroke-width:1.875;" x="867.375" xlink:href="#m032670f695" y="630"/>
      </g>
     </g>
     <g id="text_4">
      <!-- Iowa &amp; University -->
      <g transform="translate(794.796914 655.037422)scale(0.165 -0.165)">
       <defs>
        <path d="M 628 4666 
L 1259 4666 
L 1259 0 
L 628 0 
L 628 4666 
z
" id="DejaVuSans-49" transform="scale(0.015625)"/>
        <path d="M 269 3500 
L 844 3500 
L 1563 769 
L 2278 3500 
L 2956 3500 
L 3675 769 
L 4391 3500 
L 4966 3500 
L 4050 0 
L 3372 0 
L 2619 2869 
L 1863 0 
L 1184 0 
L 269 3500 
z
" id="DejaVuSans-77" transform="scale(0.015625)"/>
       </defs>
       <use xlink:href="#DejaVuSans-49"/>
       <use x="29.492188" xlink:href="#DejaVuSans-6f"/>
       <use x="90.673828" xlink:href="#DejaVuSans-77"/>
       <use x="172.460938" xlink:href="#DejaVuSans-61"/>
       <use x="233.740234" xlink:href="#DejaVuSans-20"/>
       <use x="265.527344" xlink:href="#DejaVuSans-26"/>
       <use x="343.505859" xlink:href="#DejaVuSans-20"/>
       <use x="375.292969" xlink:href="#DejaVuSans-55"/>
       <use x="448.486328" xlink:href="#DejaVuSans-6e"/>
       <use x="511.865234" xlink:href="#DejaVuSans-69"/>
       <use x="539.648438" xlink:href="#DejaVuSans-76"/>
       <use x="598.828125" xlink:href="#DejaVuSans-65"/>
       <use x="660.351562" xlink:href="#DejaVuSans-72"/>
       <use x="701.464844" xlink:href="#DejaVuSans-73"/>
       <use x="753.564453" xlink:href="#DejaVuSans-69"/>
       <use x="781.347656" xlink:href="#DejaVuSans-74"/>
       <use x="820.556641" xlink:href="#DejaVuSans-79"/>
      </g>
     </g>
    </g>
    <g id="text_5">
     <!-- Intersection -->
     <g transform="translate(499.96125 676.146094)scale(0.18 -0.18)">
      <use xlink:href="#DejaVuSans-49"/>
      <use x="29.492188" xlink:href="#DejaVuSans-6e"/>
      <use x="92.871094" xlink:href="#DejaVuSans-74"/>
      <use x="132.080078" xlink:href="#DejaVuSans-65"/>
      <use x="193.603516" xlink:href="#DejaVuSans-72"/>
      <use x="234.716797" xlink:href="#DejaVuSans-73"/>
      <use x="286.816406" xlink:href="#DejaVuSans-65"/>
      <use x="348.339844" xlink:href="#DejaVuSans-63"/>
      <use x="403.320312" xlink:href="#DejaVuSans-74"/>
      <use x="442.529297" xlink:href="#DejaVuSans-69"/>
      <use x="470.3125" xlink:href="#DejaVuSans-6f"/>
      <use x="531.494141" xlink:href="#DejaVuSans-6e"/>
     </g>
    </g>
   </g>
   <g id="matplotlib.axis_2">
    <g id="ytick_1">
     <g id="line2d_9">
      <path clip-path="url(#pd869ac6058)" d="M 135 599.976063 
L 972 599.976063 
" style="fill:none;stroke:#b0b0b0;stroke-dasharray:5.55,2.4;stroke-dashoffset:0;stroke-opacity:0.5;stroke-width:1.5;"/>
     </g>
     <g id="line2d_10">
      <defs>
       <path d="M 0 0 
L -9 0 
" id="m059cc2e1fe" style="stroke:#000000;stroke-width:1.875;"/>
      </defs>
      <g>
       <use style="stroke:#000000;stroke-width:1.875;" x="135" xlink:href="#m059cc2e1fe" y="599.976063"/>
      </g>
     </g>
     <g id="text_6">
      <!-- 0 -->
      <g transform="translate(112.001875 606.244774)scale(0.165 -0.165)">
       <defs>
        <path d="M 2034 4250 
Q 1547 4250 1301 3770 
Q 1056 3291 1056 2328 
Q 1056 1369 1301 889 
Q 1547 409 2034 409 
Q 2525 409 2770 889 
Q 3016 1369 3016 2328 
Q 3016 3291 2770 3770 
Q 2525 4250 2034 4250 
z
M 2034 4750 
Q 2819 4750 3233 4129 
Q 3647 3509 3647 2328 
Q 3647 1150 3233 529 
Q 2819 -91 2034 -91 
Q 1250 -91 836 529 
Q 422 1150 422 2328 
Q 422 3509 836 4129 
Q 1250 4750 2034 4750 
z
" id="DejaVuSans-30" transform="scale(0.015625)"/>
       </defs>
       <use xlink:href="#DejaVuSans-30"/>
      </g>
     </g>
    </g>
    <g id="ytick_2">
     <g id="line2d_11">
      <path clip-path="url(#pd869ac6058)" d="M 135 516.785178 
L 972 516.785178 
" style="fill:none;stroke:#b0b0b0;stroke-dasharray:5.55,2.4;stroke-dashoffset:0;stroke-opacity:0.5;stroke-width:1.5;"/>
     </g>
     <g id="line2d_12">
      <g>
       <use style="stroke:#000000;stroke-width:1.875;" x="135" xlink:href="#m059cc2e1fe" y="516.785178"/>
      </g>
     </g>
     <g id="text_7">
      <!-- 20 -->
      <g transform="translate(101.50375 523.053889)scale(0.165 -0.165)">
       <defs>
        <path d="M 1228 531 
L 3431 531 
L 3431 0 
L 469 0 
L 469 531 
Q 828 903 1448 1529 
Q 2069 2156 2228 2338 
Q 2531 2678 2651 2914 
Q 2772 3150 2772 3378 
Q 2772 3750 2511 3984 
Q 2250 4219 1831 4219 
Q 1534 4219 1204 4116 
Q 875 4013 500 3803 
L 500 4441 
Q 881 4594 1212 4672 
Q 1544 4750 1819 4750 
Q 2544 4750 2975 4387 
Q 3406 4025 3406 3419 
Q 3406 3131 3298 2873 
Q 3191 2616 2906 2266 
Q 2828 2175 2409 1742 
Q 1991 1309 1228 531 
z
" id="DejaVuSans-32" transform="scale(0.015625)"/>
       </defs>
       <use xlink:href="#DejaVuSans-32"/>
       <use x="63.623047" xlink:href="#DejaVuSans-30"/>
      </g>
     </g>
    </g>
    <g id="ytick_3">
     <g id="line2d_13">
      <path clip-path="url(#pd869ac6058)" d="M 135 433.594294 
L 972 433.594294 
" style="fill:none;stroke:#b0b0b0;stroke-dasharray:5.55,2.4;stroke-dashoffset:0;stroke-opacity:0.5;stroke-width:1.5;"/>
     </g>
     <g id="line2d_14">
      <g>
       <use style="stroke:#000000;stroke-width:1.875;" x="135" xlink:href="#m059cc2e1fe" y="433.594294"/>
      </g>
     </g>
     <g id="text_8">
      <!-- 40 -->
      <g transform="translate(101.50375 439.863005)scale(0.165 -0.165)">
       <defs>
        <path d="M 2419 4116 
L 825 1625 
L 2419 1625 
L 2419 4116 
z
M 2253 4666 
L 3047 4666 
L 3047 1625 
L 3713 1625 
L 3713 1100 
L 3047 1100 
L 3047 0 
L 2419 0 
L 2419 1100 
L 313 1100 
L 313 1709 
L 2253 4666 
z
" id="DejaVuSans-34" transform="scale(0.015625)"/>
       </defs>
       <use xlink:href="#DejaVuSans-34"/>
       <use x="63.623047" xlink:href="#DejaVuSans-30"/>
      </g>
     </g>
    </g>
    <g id="ytick_4">
     <g id="line2d_15">
      <path clip-path="url(#pd869ac6058)" d="M 135 350.403409 
L 972 350.403409 
" style="fill:none;stroke:#b0b0b0;stroke-dasharray:5.55,2.4;stroke-dashoffset:0;stroke-opacity:0.5;stroke-width:1.5;"/>
     </g>
     <g id="line2d_16">
      <g>
       <use style="stroke:#000000;stroke-width:1.875;" x="135" xlink:href="#m059cc2e1fe" y="350.403409"/>
      </g>
     </g>
     <g id="text_9">
      <!-- 60 -->
      <g transform="translate(101.50375 356.67212)scale(0.165 -0.165)">
       <defs>
        <path d="M 2113 2584 
Q 1688 2584 1439 2293 
Q 1191 2003 1191 1497 
Q 1191 994 1439 701 
Q 1688 409 2113 409 
Q 2538 409 2786 701 
Q 3034 994 3034 1497 
Q 3034 2003 2786 2293 
Q 2538 2584 2113 2584 
z
M 3366 4563 
L 3366 3988 
Q 3128 4100 2886 4159 
Q 2644 4219 2406 4219 
Q 1781 4219 1451 3797 
Q 1122 3375 1075 2522 
Q 1259 2794 1537 2939 
Q 1816 3084 2150 3084 
Q 2853 3084 3261 2657 
Q 3669 2231 3669 1497 
Q 3669 778 3244 343 
Q 2819 -91 2113 -91 
Q 1303 -91 875 529 
Q 447 1150 447 2328 
Q 447 3434 972 4092 
Q 1497 4750 2381 4750 
Q 2619 4750 2861 4703 
Q 3103 4656 3366 4563 
z
" id="DejaVuSans-36" transform="scale(0.015625)"/>
       </defs>
       <use xlink:href="#DejaVuSans-36"/>
       <use x="63.623047" xlink:href="#DejaVuSans-30"/>
      </g>
     </g>
    </g>
    <g id="ytick_5">
     <g id="line2d_17">
      <path clip-path="url(#pd869ac6058)" d="M 135 267.212525 
L 972 267.212525 
" style="fill:none;stroke:#b0b0b0;stroke-dasharray:5.55,2.4;stroke-dashoffset:0;stroke-opacity:0.5;stroke-width:1.5;"/>
     </g>
     <g id="line2d_18">
      <g>
       <use style="stroke:#000000;stroke-width:1.875;" x="135" xlink:href="#m059cc2e1fe" y="267.212525"/>
      </g>
     </g>
     <g id="text_10">
      <!-- 80 -->
      <g transform="translate(101.50375 273.481236)scale(0.165 -0.165)">
       <defs>
        <path d="M 2034 2216 
Q 1584 2216 1326 1975 
Q 1069 1734 1069 1313 
Q 1069 891 1326 650 
Q 1584 409 2034 409 
Q 2484 409 2743 651 
Q 3003 894 3003 1313 
Q 3003 1734 2745 1975 
Q 2488 2216 2034 2216 
z
M 1403 2484 
Q 997 2584 770 2862 
Q 544 3141 544 3541 
Q 544 4100 942 4425 
Q 1341 4750 2034 4750 
Q 2731 4750 3128 4425 
Q 3525 4100 3525 3541 
Q 3525 3141 3298 2862 
Q 3072 2584 2669 2484 
Q 3125 2378 3379 2068 
Q 3634 1759 3634 1313 
Q 3634 634 3220 271 
Q 2806 -91 2034 -91 
Q 1263 -91 848 271 
Q 434 634 434 1313 
Q 434 1759 690 2068 
Q 947 2378 1403 2484 
z
M 1172 3481 
Q 1172 3119 1398 2916 
Q 1625 2713 2034 2713 
Q 2441 2713 2670 2916 
Q 2900 3119 2900 3481 
Q 2900 3844 2670 4047 
Q 2441 4250 2034 4250 
Q 1625 4250 1398 4047 
Q 1172 3844 1172 3481 
z
" id="DejaVuSans-38" transform="scale(0.015625)"/>
       </defs>
       <use xlink:href="#DejaVuSans-38"/>
       <use x="63.623047" xlink:href="#DejaVuSans-30"/>
      </g>
     </g>
    </g>
    <g id="ytick_6">
     <g id="line2d_19">
      <path clip-path="url(#pd869ac6058)" d="M 135 184.021641 
L 972 184.021641 
" style="fill:none;stroke:#b0b0b0;stroke-dasharray:5.55,2.4;stroke-dashoffset:0;stroke-opacity:0.5;stroke-width:1.5;"/>
     </g>
     <g id="line2d_20">
      <g>
       <use style="stroke:#000000;stroke-width:1.875;" x="135" xlink:href="#m059cc2e1fe" y="184.021641"/>
      </g>
     </g>
     <g id="text_11">
      <!-- 100 -->
      <g transform="translate(91.005625 190.290351)scale(0.165 -0.165)">
       <defs>
        <path d="M 794 531 
L 1825 531 
L 1825 4091 
L 703 3866 
L 703 4441 
L 1819 4666 
L 2450 4666 
L 2450 531 
L 3481 531 
L 3481 0 
L 794 0 
L 794 531 
z
" id="DejaVuSans-31" transform="scale(0.015625)"/>
       </defs>
       <use xlink:href="#DejaVuSans-31"/>
       <use x="63.623047" xlink:href="#DejaVuSans-30"/>
       <use x="127.246094" xlink:href="#DejaVuSans-30"/>
      </g>
     </g>
    </g>
    <g id="ytick_7">
     <g id="line2d_21">
      <path clip-path="url(#pd869ac6058)" d="M 135 100.830756 
L 972 100.830756 
" style="fill:none;stroke:#b0b0b0;stroke-dasharray:5.55,2.4;stroke-dashoffset:0;stroke-opacity:0.5;stroke-width:1.5;"/>
     </g>
     <g id="line2d_22">
      <g>
       <use style="stroke:#000000;stroke-width:1.875;" x="135" xlink:href="#m059cc2e1fe" y="100.830756"/>
      </g>
     </g>
     <g id="text_12">
      <!-- 120 -->
      <g transform="translate(91.005625 107.099467)scale(0.165 -0.165)">
       <use xlink:href="#DejaVuSans-31"/>
       <use x="63.623047" xlink:href="#DejaVuSans-32"/>
       <use x="127.246094" xlink:href="#DejaVuSans-30"/>
      </g>
     </g>
    </g>
    <g id="text_13">
     <!-- Particulate Matter (2.5) Mass Concentration - Calibrated -->
     <g transform="translate(83.262187 610.353281)rotate(-90)scale(0.18 -0.18)">
      <defs>
       <path d="M 1259 4147 
L 1259 2394 
L 2053 2394 
Q 2494 2394 2734 2622 
Q 2975 2850 2975 3272 
Q 2975 3691 2734 3919 
Q 2494 4147 2053 4147 
L 1259 4147 
z
M 628 4666 
L 2053 4666 
Q 2838 4666 3239 4311 
Q 3641 3956 3641 3272 
Q 3641 2581 3239 2228 
Q 2838 1875 2053 1875 
L 1259 1875 
L 1259 0 
L 628 0 
L 628 4666 
z
" id="DejaVuSans-50" transform="scale(0.015625)"/>
       <path d="M 544 1381 
L 544 3500 
L 1119 3500 
L 1119 1403 
Q 1119 906 1312 657 
Q 1506 409 1894 409 
Q 2359 409 2629 706 
Q 2900 1003 2900 1516 
L 2900 3500 
L 3475 3500 
L 3475 0 
L 2900 0 
L 2900 538 
Q 2691 219 2414 64 
Q 2138 -91 1772 -91 
Q 1169 -91 856 284 
Q 544 659 544 1381 
z
M 1991 3584 
L 1991 3584 
z
" id="DejaVuSans-75" transform="scale(0.015625)"/>
       <path d="M 1984 4856 
Q 1566 4138 1362 3434 
Q 1159 2731 1159 2009 
Q 1159 1288 1364 580 
Q 1569 -128 1984 -844 
L 1484 -844 
Q 1016 -109 783 600 
Q 550 1309 550 2009 
Q 550 2706 781 3412 
Q 1013 4119 1484 4856 
L 1984 4856 
z
" id="DejaVuSans-28" transform="scale(0.015625)"/>
       <path d="M 684 794 
L 1344 794 
L 1344 0 
L 684 0 
L 684 794 
z
" id="DejaVuSans-2e" transform="scale(0.015625)"/>
       <path d="M 691 4666 
L 3169 4666 
L 3169 4134 
L 1269 4134 
L 1269 2991 
Q 1406 3038 1543 3061 
Q 1681 3084 1819 3084 
Q 2600 3084 3056 2656 
Q 3513 2228 3513 1497 
Q 3513 744 3044 326 
Q 2575 -91 1722 -91 
Q 1428 -91 1123 -41 
Q 819 9 494 109 
L 494 744 
Q 775 591 1075 516 
Q 1375 441 1709 441 
Q 2250 441 2565 725 
Q 2881 1009 2881 1497 
Q 2881 1984 2565 2268 
Q 2250 2553 1709 2553 
Q 1456 2553 1204 2497 
Q 953 2441 691 2322 
L 691 4666 
z
" id="DejaVuSans-35" transform="scale(0.015625)"/>
       <path d="M 513 4856 
L 1013 4856 
Q 1481 4119 1714 3412 
Q 1947 2706 1947 2009 
Q 1947 1309 1714 600 
Q 1481 -109 1013 -844 
L 513 -844 
Q 928 -128 1133 580 
Q 1338 1288 1338 2009 
Q 1338 2731 1133 3434 
Q 928 4138 513 4856 
z
" id="DejaVuSans-29" transform="scale(0.015625)"/>
       <path d="M 313 2009 
L 1997 2009 
L 1997 1497 
L 313 1497 
L 313 2009 
z
" id="DejaVuSans-2d" transform="scale(0.015625)"/>
       <path d="M 3116 1747 
Q 3116 2381 2855 2742 
Q 2594 3103 2138 3103 
Q 1681 3103 1420 2742 
Q 1159 2381 1159 1747 
Q 1159 1113 1420 752 
Q 1681 391 2138 391 
Q 2594 391 2855 752 
Q 3116 1113 3116 1747 
z
M 1159 2969 
Q 1341 3281 1617 3432 
Q 1894 3584 2278 3584 
Q 2916 3584 3314 3078 
Q 3713 2572 3713 1747 
Q 3713 922 3314 415 
Q 2916 -91 2278 -91 
Q 1894 -91 1617 61 
Q 1341 213 1159 525 
L 1159 0 
L 581 0 
L 581 4863 
L 1159 4863 
L 1159 2969 
z
" id="DejaVuSans-62" transform="scale(0.015625)"/>
      </defs>
      <use xlink:href="#DejaVuSans-50"/>
      <use x="55.802734" xlink:href="#DejaVuSans-61"/>
      <use x="117.082031" xlink:href="#DejaVuSans-72"/>
      <use x="158.195312" xlink:href="#DejaVuSans-74"/>
      <use x="197.404297" xlink:href="#DejaVuSans-69"/>
      <use x="225.1875" xlink:href="#DejaVuSans-63"/>
      <use x="280.167969" xlink:href="#DejaVuSans-75"/>
      <use x="343.546875" xlink:href="#DejaVuSans-6c"/>
      <use x="371.330078" xlink:href="#DejaVuSans-61"/>
      <use x="432.609375" xlink:href="#DejaVuSans-74"/>
      <use x="471.818359" xlink:href="#DejaVuSans-65"/>
      <use x="533.341797" xlink:href="#DejaVuSans-20"/>
      <use x="565.128906" xlink:href="#DejaVuSans-4d"/>
      <use x="651.408203" xlink:href="#DejaVuSans-61"/>
      <use x="712.6875" xlink:href="#DejaVuSans-74"/>
      <use x="751.896484" xlink:href="#DejaVuSans-74"/>
      <use x="791.105469" xlink:href="#DejaVuSans-65"/>
      <use x="852.628906" xlink:href="#DejaVuSans-72"/>
      <use x="893.742188" xlink:href="#DejaVuSans-20"/>
      <use x="925.529297" xlink:href="#DejaVuSans-28"/>
      <use x="964.542969" xlink:href="#DejaVuSans-32"/>
      <use x="1028.166016" xlink:href="#DejaVuSans-2e"/>
      <use x="1059.953125" xlink:href="#DejaVuSans-35"/>
      <use x="1123.576172" xlink:href="#DejaVuSans-29"/>
      <use x="1162.589844" xlink:href="#DejaVuSans-20"/>
      <use x="1194.376953" xlink:href="#DejaVuSans-4d"/>
      <use x="1280.65625" xlink:href="#DejaVuSans-61"/>
      <use x="1341.935547" xlink:href="#DejaVuSans-73"/>
      <use x="1394.035156" xlink:href="#DejaVuSans-73"/>
      <use x="1446.134766" xlink:href="#DejaVuSans-20"/>
      <use x="1477.921875" xlink:href="#DejaVuSans-43"/>
      <use x="1547.746094" xlink:href="#DejaVuSans-6f"/>
      <use x="1608.927734" xlink:href="#DejaVuSans-6e"/>
      <use x="1672.306641" xlink:href="#DejaVuSans-63"/>
      <use x="1727.287109" xlink:href="#DejaVuSans-65"/>
      <use x="1788.810547" xlink:href="#DejaVuSans-6e"/>
      <use x="1852.189453" xlink:href="#DejaVuSans-74"/>
      <use x="1891.398438" xlink:href="#DejaVuSans-72"/>
      <use x="1932.511719" xlink:href="#DejaVuSans-61"/>
      <use x="1993.791016" xlink:href="#DejaVuSans-74"/>
      <use x="2033" xlink:href="#DejaVuSans-69"/>
      <use x="2060.783203" xlink:href="#DejaVuSans-6f"/>
      <use x="2121.964844" xlink:href="#DejaVuSans-6e"/>
      <use x="2185.34375" xlink:href="#DejaVuSans-20"/>
      <use x="2217.130859" xlink:href="#DejaVuSans-2d"/>
      <use x="2253.214844" xlink:href="#DejaVuSans-20"/>
      <use x="2285.001953" xlink:href="#DejaVuSans-43"/>
      <use x="2354.826172" xlink:href="#DejaVuSans-61"/>
      <use x="2416.105469" xlink:href="#DejaVuSans-6c"/>
      <use x="2443.888672" xlink:href="#DejaVuSans-69"/>
      <use x="2471.671875" xlink:href="#DejaVuSans-62"/>
      <use x="2535.148438" xlink:href="#DejaVuSans-72"/>
      <use x="2576.261719" xlink:href="#DejaVuSans-61"/>
      <use x="2637.541016" xlink:href="#DejaVuSans-74"/>
      <use x="2676.75" xlink:href="#DejaVuSans-65"/>
      <use x="2738.273438" xlink:href="#DejaVuSans-64"/>
     </g>
    </g>
   </g>
   <g id="line2d_23">
    <path clip-path="url(#pd869ac6058)" d="M 239.625 595.150136 
L 239.625 477.231144 
" style="fill:none;stroke:#3d3d3d;stroke-linecap:square;stroke-width:2.25;"/>
   </g>
   <g id="line2d_24">
    <path clip-path="url(#pd869ac6058)" d="M 239.625 561.84247 
L 239.625 527.992242 
" style="fill:none;stroke:#3d3d3d;stroke-linecap:square;stroke-width:6.75;"/>
   </g>
   <g id="line2d_25">
    <path clip-path="url(#pd869ac6058)" d="M 448.875 594.325768 
L 448.875 472.673181 
" style="fill:none;stroke:#3d3d3d;stroke-linecap:square;stroke-width:2.25;"/>
   </g>
   <g id="line2d_26">
    <path clip-path="url(#pd869ac6058)" d="M 448.875 558.916229 
L 448.875 524.391536 
" style="fill:none;stroke:#3d3d3d;stroke-linecap:square;stroke-width:6.75;"/>
   </g>
   <g id="line2d_27">
    <path clip-path="url(#pd869ac6058)" d="M 658.125 592.508603 
L 658.125 478.808211 
" style="fill:none;stroke:#3d3d3d;stroke-linecap:square;stroke-width:2.25;"/>
   </g>
   <g id="line2d_28">
    <path clip-path="url(#pd869ac6058)" d="M 658.125 559.047076 
L 658.125 526.940626 
" style="fill:none;stroke:#3d3d3d;stroke-linecap:square;stroke-width:6.75;"/>
   </g>
   <g id="line2d_29">
    <path clip-path="url(#pd869ac6058)" d="M 867.375 595.581646 
L 867.375 473.899955 
" style="fill:none;stroke:#3d3d3d;stroke-linecap:square;stroke-width:2.25;"/>
   </g>
   <g id="line2d_30">
    <path clip-path="url(#pd869ac6058)" d="M 867.375 560.829256 
L 867.375 526.054293 
" style="fill:none;stroke:#3d3d3d;stroke-linecap:square;stroke-width:6.75;"/>
   </g>
   <g id="patch_3">
    <path d="M 135 630 
L 135 86.4 
" style="fill:none;stroke:#000000;stroke-linecap:square;stroke-linejoin:miter;stroke-width:1.875;"/>
   </g>
   <g id="patch_4">
    <path d="M 972 630 
L 972 86.4 
" style="fill:none;stroke:#000000;stroke-linecap:square;stroke-linejoin:miter;stroke-width:1.875;"/>
   </g>
   <g id="patch_5">
    <path d="M 135 630 
L 972 630 
" style="fill:none;stroke:#000000;stroke-linecap:square;stroke-linejoin:miter;stroke-width:1.875;"/>
   </g>
   <g id="patch_6">
    <path d="M 135 86.4 
L 972 86.4 
" style="fill:none;stroke:#000000;stroke-linecap:square;stroke-linejoin:miter;stroke-width:1.875;"/>
   </g>
   <g id="PathCollection_1">
    <defs>
     <path d="M 0 2.25 
C 0.596707 2.25 1.169055 2.012926 1.59099 1.59099 
C 2.012926 1.169055 2.25 0.596707 2.25 0 
C 2.25 -0.596707 2.012926 -1.169055 1.59099 -1.59099 
C 1.169055 -2.012926 0.596707 -2.25 0 -2.25 
C -0.596707 -2.25 -1.169055 -2.012926 -1.59099 -1.59099 
C -2.012926 -1.169055 -2.25 -0.596707 -2.25 0 
C -2.25 0.596707 -2.012926 1.169055 -1.59099 1.59099 
C -1.169055 2.012926 -0.596707 2.25 0 2.25 
z
" id="m78b7e38ef6" style="stroke:#3d3d3d;stroke-width:1.5;"/>
    </defs>
    <g clip-path="url(#pd869ac6058)">
     <use style="fill:#ffffff;stroke:#3d3d3d;stroke-width:1.5;" x="239.625" xlink:href="#m78b7e38ef6" y="548.344938"/>
    </g>
   </g>
   <g id="PathCollection_2">
    <g clip-path="url(#pd869ac6058)">
     <use style="fill:#ffffff;stroke:#3d3d3d;stroke-width:1.5;" x="448.875" xlink:href="#m78b7e38ef6" y="544.891076"/>
    </g>
   </g>
   <g id="PathCollection_3">
    <g clip-path="url(#pd869ac6058)">
     <use style="fill:#ffffff;stroke:#3d3d3d;stroke-width:1.5;" x="658.125" xlink:href="#m78b7e38ef6" y="547.020561"/>
    </g>
   </g>
   <g id="PathCollection_4">
    <g clip-path="url(#pd869ac6058)">
     <use style="fill:#ffffff;stroke:#3d3d3d;stroke-width:1.5;" x="867.375" xlink:href="#m78b7e38ef6" y="547.457398"/>
    </g>
   </g>
  </g>
  <g id="text_14">
   <!-- Distribution of Particulate Matter (2.5) January to August -->
   <g transform="translate(234.287438 30.812625)scale(0.216 -0.216)">
    <defs>
     <path d="M 1259 4147 
L 1259 519 
L 2022 519 
Q 2988 519 3436 956 
Q 3884 1394 3884 2338 
Q 3884 3275 3436 3711 
Q 2988 4147 2022 4147 
L 1259 4147 
z
M 628 4666 
L 1925 4666 
Q 3281 4666 3915 4102 
Q 4550 3538 4550 2338 
Q 4550 1131 3912 565 
Q 3275 0 1925 0 
L 628 0 
L 628 4666 
z
" id="DejaVuSans-44" transform="scale(0.015625)"/>
     <path d="M 628 4666 
L 1259 4666 
L 1259 325 
Q 1259 -519 939 -900 
Q 619 -1281 -91 -1281 
L -331 -1281 
L -331 -750 
L -134 -750 
Q 284 -750 456 -515 
Q 628 -281 628 325 
L 628 4666 
z
" id="DejaVuSans-4a" transform="scale(0.015625)"/>
     <path d="M 2188 4044 
L 1331 1722 
L 3047 1722 
L 2188 4044 
z
M 1831 4666 
L 2547 4666 
L 4325 0 
L 3669 0 
L 3244 1197 
L 1141 1197 
L 716 0 
L 50 0 
L 1831 4666 
z
" id="DejaVuSans-41" transform="scale(0.015625)"/>
    </defs>
    <use xlink:href="#DejaVuSans-44"/>
    <use x="77.001953" xlink:href="#DejaVuSans-69"/>
    <use x="104.785156" xlink:href="#DejaVuSans-73"/>
    <use x="156.884766" xlink:href="#DejaVuSans-74"/>
    <use x="196.09375" xlink:href="#DejaVuSans-72"/>
    <use x="237.207031" xlink:href="#DejaVuSans-69"/>
    <use x="264.990234" xlink:href="#DejaVuSans-62"/>
    <use x="328.466797" xlink:href="#DejaVuSans-75"/>
    <use x="391.845703" xlink:href="#DejaVuSans-74"/>
    <use x="431.054688" xlink:href="#DejaVuSans-69"/>
    <use x="458.837891" xlink:href="#DejaVuSans-6f"/>
    <use x="520.019531" xlink:href="#DejaVuSans-6e"/>
    <use x="583.398438" xlink:href="#DejaVuSans-20"/>
    <use x="615.185547" xlink:href="#DejaVuSans-6f"/>
    <use x="676.367188" xlink:href="#DejaVuSans-66"/>
    <use x="711.572266" xlink:href="#DejaVuSans-20"/>
    <use x="743.359375" xlink:href="#DejaVuSans-50"/>
    <use x="799.162109" xlink:href="#DejaVuSans-61"/>
    <use x="860.441406" xlink:href="#DejaVuSans-72"/>
    <use x="901.554688" xlink:href="#DejaVuSans-74"/>
    <use x="940.763672" xlink:href="#DejaVuSans-69"/>
    <use x="968.546875" xlink:href="#DejaVuSans-63"/>
    <use x="1023.527344" xlink:href="#DejaVuSans-75"/>
    <use x="1086.90625" xlink:href="#DejaVuSans-6c"/>
    <use x="1114.689453" xlink:href="#DejaVuSans-61"/>
    <use x="1175.96875" xlink:href="#DejaVuSans-74"/>
    <use x="1215.177734" xlink:href="#DejaVuSans-65"/>
    <use x="1276.701172" xlink:href="#DejaVuSans-20"/>
    <use x="1308.488281" xlink:href="#DejaVuSans-4d"/>
    <use x="1394.767578" xlink:href="#DejaVuSans-61"/>
    <use x="1456.046875" xlink:href="#DejaVuSans-74"/>
    <use x="1495.255859" xlink:href="#DejaVuSans-74"/>
    <use x="1534.464844" xlink:href="#DejaVuSans-65"/>
    <use x="1595.988281" xlink:href="#DejaVuSans-72"/>
    <use x="1637.101562" xlink:href="#DejaVuSans-20"/>
    <use x="1668.888672" xlink:href="#DejaVuSans-28"/>
    <use x="1707.902344" xlink:href="#DejaVuSans-32"/>
    <use x="1771.525391" xlink:href="#DejaVuSans-2e"/>
    <use x="1803.3125" xlink:href="#DejaVuSans-35"/>
    <use x="1866.935547" xlink:href="#DejaVuSans-29"/>
    <use x="1905.949219" xlink:href="#DejaVuSans-20"/>
    <use x="1937.736328" xlink:href="#DejaVuSans-4a"/>
    <use x="1967.228516" xlink:href="#DejaVuSans-61"/>
    <use x="2028.507812" xlink:href="#DejaVuSans-6e"/>
    <use x="2091.886719" xlink:href="#DejaVuSans-75"/>
    <use x="2155.265625" xlink:href="#DejaVuSans-61"/>
    <use x="2216.544922" xlink:href="#DejaVuSans-72"/>
    <use x="2257.658203" xlink:href="#DejaVuSans-79"/>
    <use x="2316.837891" xlink:href="#DejaVuSans-20"/>
    <use x="2348.625" xlink:href="#DejaVuSans-74"/>
    <use x="2387.833984" xlink:href="#DejaVuSans-6f"/>
    <use x="2449.015625" xlink:href="#DejaVuSans-20"/>
    <use x="2480.802734" xlink:href="#DejaVuSans-41"/>
    <use x="2549.210938" xlink:href="#DejaVuSans-75"/>
    <use x="2612.589844" xlink:href="#DejaVuSans-67"/>
    <use x="2676.066406" xlink:href="#DejaVuSans-75"/>
    <use x="2739.445312" xlink:href="#DejaVuSans-73"/>
    <use x="2791.544922" xlink:href="#DejaVuSans-74"/>
   </g>
  </g>
 </g>
 <defs>
  <clipPath id="pd869ac6058">
   <rect height="543.6" width="837" x="135" y="86.4"/>
  </clipPath>
 </defs>
</svg>
