<?xml version="1.0" encoding="utf-8" standalone="no"?>
<!DOCTYPE svg PUBLIC "-//W3C//DTD SVG 1.1//EN"
  "http://www.w3.org/Graphics/SVG/1.1/DTD/svg11.dtd">
<svg height="720pt" version="1.1" viewBox="0 0 1080 720" width="1080pt" xmlns="http://www.w3.org/2000/svg" xmlns:xlink="http://www.w3.org/1999/xlink">
 <metadata>
  <rdf:RDF xmlns:cc="http://creativecommons.org/ns#" xmlns:dc="http://purl.org/dc/elements/1.1/" xmlns:rdf="http://www.w3.org/1999/02/22-rdf-syntax-ns#">
   <cc:Work>
    <dc:type rdf:resource="http://purl.org/dc/dcmitype/StillImage"/>
    <dc:date>2021-10-11T14:22:39.262667</dc:date>
    <dc:format>image/svg+xml</dc:format>
    <dc:creator>
     <cc:Agent>
      <dc:title>Matplotlib v3.4.2, https://matplotlib.org/</dc:title>
     </cc:Agent>
    </dc:creator>
   </cc:Work>
  </rdf:RDF>
 </metadata>
 <defs>
  <style type="text/css">*{stroke-linecap:butt;stroke-linejoin:round;}</style>
 </defs>
 <g id="figure_1">
  <g id="patch_1">
   <path d="M 0 720 
L 1080 720 
L 1080 0 
L 0 0 
z
" style="fill:#f0ffff;"/>
  </g>
  <g id="axes_1">
   <g id="patch_2">
    <path d="M 135 630 
L 972 630 
L 972 86.4 
L 135 86.4 
z
" style="fill:#ffffff;"/>
   </g>
   <g id="PolyCollection_1">
    <defs>
     <path d="M 239.631823 -332.181034 
L 239.618177 -332.181034 
L 239.60521 -333.547682 
L 239.58077 -334.914329 
L 239.546654 -336.280977 
L 239.510494 -337.647625 
L 239.480055 -339.014272 
L 239.457595 -340.38092 
L 239.437414 -341.747568 
L 239.406467 -343.114215 
L 239.350873 -344.480863 
L 239.263631 -345.847511 
L 239.144737 -347.214158 
L 238.999011 -348.580806 
L 238.839498 -349.947454 
L 238.685762 -351.314101 
L 238.546108 -352.680749 
L 238.396796 -354.047397 
L 238.18231 -355.414044 
L 237.848095 -356.780692 
L 237.378154 -358.14734 
L 236.788521 -359.513988 
L 236.093534 -360.880635 
L 235.297907 -362.247283 
L 234.384014 -363.613931 
L 233.269045 -364.980578 
L 231.815575 -366.347226 
L 229.91571 -367.713874 
L 227.537777 -369.080521 
L 224.70685 -370.447169 
L 221.483221 -371.813817 
L 217.919512 -373.180464 
L 213.97217 -374.547112 
L 209.453431 -375.91376 
L 204.105116 -377.280407 
L 197.776856 -378.647055 
L 190.619769 -380.013703 
L 183.151571 -381.38035 
L 176.054799 -382.746998 
L 169.821137 -384.113646 
L 164.633301 -385.480293 
L 160.59771 -386.846941 
L 157.933985 -388.213589 
L 156.881823 -389.580236 
L 157.553664 -390.946884 
L 159.856362 -392.313532 
L 163.373855 -393.680179 
L 167.386563 -395.046827 
L 171.220223 -396.413475 
L 174.604345 -397.780122 
L 177.715382 -399.14677 
L 180.946202 -400.513418 
L 184.535804 -401.880065 
L 188.339262 -403.246713 
L 191.993774 -404.613361 
L 195.240789 -405.980008 
L 197.9948 -407.346656 
L 200.207593 -408.713304 
L 201.811418 -410.079952 
L 202.753739 -411.446599 
L 203.049969 -412.813247 
L 202.887793 -414.179895 
L 202.638355 -415.546542 
L 202.617665 -416.91319 
L 202.848607 -418.279838 
L 203.13162 -419.646485 
L 203.341506 -421.013133 
L 203.670651 -422.379781 
L 204.597594 -423.746428 
L 206.560796 -425.113076 
L 209.620646 -426.479724 
L 213.409334 -427.846371 
L 217.337972 -429.213019 
L 220.888675 -430.579667 
L 223.87478 -431.946314 
L 226.461064 -433.312962 
L 228.87991 -434.67961 
L 231.18246 -436.046257 
L 233.272024 -437.412905 
L 235.045096 -438.779553 
L 236.449024 -440.1462 
L 237.489541 -441.512848 
L 238.231146 -442.879496 
L 238.759888 -444.246143 
L 239.132167 -445.612791 
L 239.37275 -446.979439 
L 239.507738 -448.346086 
L 239.574326 -449.712734 
L 239.604895 -451.079382 
L 239.618096 -452.446029 
L 239.623025 -453.812677 
L 239.624209 -455.179325 
L 239.623219 -456.545972 
L 239.619326 -457.91262 
L 239.611233 -459.279268 
L 239.600397 -460.645916 
L 239.592656 -462.012563 
L 239.593722 -463.379211 
L 239.60275 -464.745859 
L 239.613358 -466.112506 
L 239.620519 -467.479154 
L 239.629481 -467.479154 
L 239.629481 -467.479154 
L 239.636642 -466.112506 
L 239.64725 -464.745859 
L 239.656278 -463.379211 
L 239.657344 -462.012563 
L 239.649603 -460.645916 
L 239.638767 -459.279268 
L 239.630674 -457.91262 
L 239.626781 -456.545972 
L 239.625791 -455.179325 
L 239.626975 -453.812677 
L 239.631904 -452.446029 
L 239.645105 -451.079382 
L 239.675674 -449.712734 
L 239.742262 -448.346086 
L 239.87725 -446.979439 
L 240.117833 -445.612791 
L 240.490112 -444.246143 
L 241.018854 -442.879496 
L 241.760459 -441.512848 
L 242.800976 -440.1462 
L 244.204904 -438.779553 
L 245.977976 -437.412905 
L 248.06754 -436.046257 
L 250.37009 -434.67961 
L 252.788936 -433.312962 
L 255.37522 -431.946314 
L 258.361325 -430.579667 
L 261.912028 -429.213019 
L 265.840666 -427.846371 
L 269.629354 -426.479724 
L 272.689204 -425.113076 
L 274.652406 -423.746428 
L 275.579349 -422.379781 
L 275.908494 -421.013133 
L 276.11838 -419.646485 
L 276.401393 -418.279838 
L 276.632335 -416.91319 
L 276.611645 -415.546542 
L 276.362207 -414.179895 
L 276.200031 -412.813247 
L 276.496261 -411.446599 
L 277.438582 -410.079952 
L 279.042407 -408.713304 
L 281.2552 -407.346656 
L 284.009211 -405.980008 
L 287.256226 -404.613361 
L 290.910738 -403.246713 
L 294.714196 -401.880065 
L 298.303798 -400.513418 
L 301.534618 -399.14677 
L 304.645655 -397.780122 
L 308.029777 -396.413475 
L 311.863437 -395.046827 
L 315.876145 -393.680179 
L 319.393638 -392.313532 
L 321.696336 -390.946884 
L 322.368177 -389.580236 
L 321.316015 -388.213589 
L 318.65229 -386.846941 
L 314.616699 -385.480293 
L 309.428863 -384.113646 
L 303.195201 -382.746998 
L 296.098429 -381.38035 
L 288.630231 -380.013703 
L 281.473144 -378.647055 
L 275.144884 -377.280407 
L 269.796569 -375.91376 
L 265.27783 -374.547112 
L 261.330488 -373.180464 
L 257.766779 -371.813817 
L 254.54315 -370.447169 
L 251.712223 -369.080521 
L 249.33429 -367.713874 
L 247.434425 -366.347226 
L 245.980955 -364.980578 
L 244.865986 -363.613931 
L 243.952093 -362.247283 
L 243.156466 -360.880635 
L 242.461479 -359.513988 
L 241.871846 -358.14734 
L 241.401905 -356.780692 
L 241.06769 -355.414044 
L 240.853204 -354.047397 
L 240.703892 -352.680749 
L 240.564238 -351.314101 
L 240.410502 -349.947454 
L 240.250989 -348.580806 
L 240.105263 -347.214158 
L 239.986369 -345.847511 
L 239.899127 -344.480863 
L 239.843533 -343.114215 
L 239.812586 -341.747568 
L 239.792405 -340.38092 
L 239.769945 -339.014272 
L 239.739506 -337.647625 
L 239.703346 -336.280977 
L 239.66923 -334.914329 
L 239.64479 -333.547682 
L 239.631823 -332.181034 
z
" id="m85ffa3214e" style="stroke:#3d3d3d;stroke-width:2.25;"/>
    </defs>
    <g clip-path="url(#p011d0d849b)">
     <use style="fill:#3274a1;stroke:#3d3d3d;stroke-width:2.25;" x="0" xlink:href="#m85ffa3214e" y="720"/>
    </g>
   </g>
   <g id="PolyCollection_2">
    <defs>
     <path d="M 448.880853 -300.808424 
L 448.869147 -300.808424 
L 448.857645 -302.680156 
L 448.837639 -304.551887 
L 448.815692 -306.423618 
L 448.80462 -308.29535 
L 448.812155 -310.167081 
L 448.83279 -312.038813 
L 448.852925 -313.910544 
L 448.861504 -315.782276 
L 448.852166 -317.654007 
L 448.81818 -319.525738 
L 448.752692 -321.39747 
L 448.658007 -323.269201 
L 448.552643 -325.140933 
L 448.462027 -327.012664 
L 448.400462 -328.884395 
L 448.360924 -330.756127 
L 448.307855 -332.627858 
L 448.177594 -334.49959 
L 447.914313 -336.371321 
L 447.537592 -338.243052 
L 447.160979 -340.114784 
L 446.898609 -341.986515 
L 446.74152 -343.858247 
L 446.53926 -345.729978 
L 446.127166 -347.60171 
L 445.473589 -349.473441 
L 444.674367 -351.345172 
L 443.823623 -353.216904 
L 442.889405 -355.088635 
L 441.654268 -356.960367 
L 439.777052 -358.832098 
L 436.939787 -360.703829 
L 433.019373 -362.575561 
L 428.268335 -364.447292 
L 423.235255 -366.319024 
L 418.251346 -368.190755 
L 413.039096 -370.062486 
L 407.10464 -371.934218 
L 400.539932 -373.805949 
L 394.169678 -375.677681 
L 388.814673 -377.549412 
L 384.683343 -379.421144 
L 381.661282 -381.292875 
L 379.817045 -383.164606 
L 379.211883 -385.036338 
L 379.375732 -386.908069 
L 379.339609 -388.779801 
L 378.341177 -390.651532 
L 376.342153 -392.523263 
L 373.694658 -394.394995 
L 370.756116 -396.266726 
L 368.216695 -398.138458 
L 367.116141 -400.010189 
L 367.953378 -401.88192 
L 370.329781 -403.753652 
L 373.688232 -405.625383 
L 377.736462 -407.497115 
L 382.121166 -409.368846 
L 386.306901 -411.240578 
L 389.79833 -413.112309 
L 392.246595 -414.98404 
L 393.502729 -416.855772 
L 393.789466 -418.727503 
L 393.844155 -420.599235 
L 394.615008 -422.470966 
L 396.591994 -424.342697 
L 399.62499 -426.214429 
L 403.387738 -428.08616 
L 407.653324 -429.957892 
L 412.122771 -431.829623 
L 416.401845 -433.701354 
L 420.308691 -435.573086 
L 424.048881 -437.444817 
L 427.927371 -439.316549 
L 431.89383 -441.18828 
L 435.573091 -443.060012 
L 438.704901 -444.931743 
L 441.288232 -446.803474 
L 443.391116 -448.675206 
L 445.05545 -450.546937 
L 446.312317 -452.418669 
L 447.182561 -454.2904 
L 447.713619 -456.162131 
L 448.017111 -458.033863 
L 448.222934 -459.905594 
L 448.406146 -461.777326 
L 448.570707 -463.649057 
L 448.690669 -465.520788 
L 448.757676 -467.39252 
L 448.78973 -469.264251 
L 448.806176 -471.135983 
L 448.809602 -473.007714 
L 448.795992 -474.879446 
L 448.774692 -476.751177 
L 448.767499 -478.622908 
L 448.786404 -480.49464 
L 448.820705 -482.366371 
L 448.85068 -484.238103 
L 448.867134 -486.109834 
L 448.882866 -486.109834 
L 448.882866 -486.109834 
L 448.89932 -484.238103 
L 448.929295 -482.366371 
L 448.963596 -480.49464 
L 448.982501 -478.622908 
L 448.975308 -476.751177 
L 448.954008 -474.879446 
L 448.940398 -473.007714 
L 448.943824 -471.135983 
L 448.96027 -469.264251 
L 448.992324 -467.39252 
L 449.059331 -465.520788 
L 449.179293 -463.649057 
L 449.343854 -461.777326 
L 449.527066 -459.905594 
L 449.732889 -458.033863 
L 450.036381 -456.162131 
L 450.567439 -454.2904 
L 451.437683 -452.418669 
L 452.69455 -450.546937 
L 454.358884 -448.675206 
L 456.461768 -446.803474 
L 459.045099 -444.931743 
L 462.176909 -443.060012 
L 465.85617 -441.18828 
L 469.822629 -439.316549 
L 473.701119 -437.444817 
L 477.441309 -435.573086 
L 481.348155 -433.701354 
L 485.627229 -431.829623 
L 490.096676 -429.957892 
L 494.362262 -428.08616 
L 498.12501 -426.214429 
L 501.158006 -424.342697 
L 503.134992 -422.470966 
L 503.905845 -420.599235 
L 503.960534 -418.727503 
L 504.247271 -416.855772 
L 505.503405 -414.98404 
L 507.95167 -413.112309 
L 511.443099 -411.240578 
L 515.628834 -409.368846 
L 520.013538 -407.497115 
L 524.061768 -405.625383 
L 527.420219 -403.753652 
L 529.796622 -401.88192 
L 530.633859 -400.010189 
L 529.533305 -398.138458 
L 526.993884 -396.266726 
L 524.055342 -394.394995 
L 521.407847 -392.523263 
L 519.408823 -390.651532 
L 518.410391 -388.779801 
L 518.374268 -386.908069 
L 518.538117 -385.036338 
L 517.932955 -383.164606 
L 516.088718 -381.292875 
L 513.066657 -379.421144 
L 508.935327 -377.549412 
L 503.580322 -375.677681 
L 497.210068 -373.805949 
L 490.64536 -371.934218 
L 484.710904 -370.062486 
L 479.498654 -368.190755 
L 474.514745 -366.319024 
L 469.481665 -364.447292 
L 464.730627 -362.575561 
L 460.810213 -360.703829 
L 457.972948 -358.832098 
L 456.095732 -356.960367 
L 454.860595 -355.088635 
L 453.926377 -353.216904 
L 453.075633 -351.345172 
L 452.276411 -349.473441 
L 451.622834 -347.60171 
L 451.21074 -345.729978 
L 451.00848 -343.858247 
L 450.851391 -341.986515 
L 450.589021 -340.114784 
L 450.212408 -338.243052 
L 449.835687 -336.371321 
L 449.572406 -334.49959 
L 449.442145 -332.627858 
L 449.389076 -330.756127 
L 449.349538 -328.884395 
L 449.287973 -327.012664 
L 449.197357 -325.140933 
L 449.091993 -323.269201 
L 448.997308 -321.39747 
L 448.93182 -319.525738 
L 448.897834 -317.654007 
L 448.888496 -315.782276 
L 448.897075 -313.910544 
L 448.91721 -312.038813 
L 448.937845 -310.167081 
L 448.94538 -308.29535 
L 448.934308 -306.423618 
L 448.912361 -304.551887 
L 448.892355 -302.680156 
L 448.880853 -300.808424 
z
" id="m2c098ac28d" style="stroke:#3d3d3d;stroke-width:2.25;"/>
    </defs>
    <g clip-path="url(#p011d0d849b)">
     <use style="fill:#e1812c;stroke:#3d3d3d;stroke-width:2.25;" x="0" xlink:href="#m2c098ac28d" y="720"/>
    </g>
   </g>
   <g id="PolyCollection_3">
    <defs>
     <path d="M 658.131682 -114.709091 
L 658.118318 -114.709091 
L 658.102974 -119.700826 
L 658.076722 -124.692562 
L 658.054123 -129.684298 
L 658.053395 -134.676033 
L 658.068001 -139.667769 
L 658.069929 -144.659504 
L 658.040751 -149.65124 
L 657.980041 -154.642975 
L 657.898657 -159.634711 
L 657.825808 -164.626446 
L 657.793181 -169.618182 
L 657.794273 -174.609917 
L 657.797329 -179.601653 
L 657.785434 -184.593388 
L 657.750255 -189.585124 
L 657.683121 -194.57686 
L 657.588228 -199.568595 
L 657.493786 -204.560331 
L 657.444616 -209.552066 
L 657.436341 -214.543802 
L 657.382716 -219.535537 
L 657.232329 -224.527273 
L 657.05353 -229.519008 
L 656.933348 -234.510744 
L 656.856295 -239.502479 
L 656.721448 -244.494215 
L 656.471712 -249.48595 
L 656.152626 -254.477686 
L 655.80812 -259.469421 
L 655.399011 -264.461157 
L 654.866581 -269.452893 
L 654.18373 -274.444628 
L 653.2737 -279.436364 
L 651.991381 -284.428099 
L 650.259083 -289.419835 
L 648.109868 -294.41157 
L 645.584813 -299.403306 
L 642.679532 -304.395041 
L 639.409316 -309.386777 
L 635.862753 -314.378512 
L 632.102472 -319.370248 
L 628.073121 -324.361983 
L 623.683507 -329.353719 
L 618.956384 -334.345455 
L 614.041562 -339.33719 
L 609.079223 -344.328926 
L 604.162074 -349.320661 
L 599.426991 -354.312397 
L 595.203895 -359.304132 
L 592.267111 -364.295868 
L 591.524199 -369.287603 
L 592.811257 -374.279339 
L 594.318265 -379.271074 
L 593.907372 -384.26281 
L 591.046978 -389.254545 
L 587.081307 -394.246281 
L 583.602576 -399.238017 
L 580.910039 -404.229752 
L 578.284619 -409.221488 
L 575.69664 -414.213223 
L 574.425 -419.204959 
L 575.368537 -424.196694 
L 577.671393 -429.18843 
L 579.988861 -434.180165 
L 582.408604 -439.171901 
L 586.102951 -444.163636 
L 591.760511 -449.155372 
L 598.931145 -454.147107 
L 606.500856 -459.138843 
L 613.735367 -464.130579 
L 620.591557 -469.122314 
L 627.070449 -474.11405 
L 632.788276 -479.105785 
L 637.289719 -484.097521 
L 640.704027 -489.089256 
L 643.69779 -494.080992 
L 646.624587 -499.072727 
L 649.252183 -504.064463 
L 651.342224 -509.056198 
L 652.950741 -514.047934 
L 654.22135 -519.039669 
L 655.232253 -524.031405 
L 656.019467 -529.02314 
L 656.605153 -534.014876 
L 657.012829 -539.006612 
L 657.302488 -543.998347 
L 657.533508 -548.990083 
L 657.703599 -553.981818 
L 657.796448 -558.973554 
L 657.839341 -563.965289 
L 657.874042 -568.957025 
L 657.924997 -573.94876 
L 657.992196 -578.940496 
L 658.048799 -583.932231 
L 658.074556 -588.923967 
L 658.082892 -593.915702 
L 658.09441 -598.907438 
L 658.109556 -603.899174 
L 658.119878 -608.890909 
L 658.130122 -608.890909 
L 658.130122 -608.890909 
L 658.140444 -603.899174 
L 658.15559 -598.907438 
L 658.167108 -593.915702 
L 658.175444 -588.923967 
L 658.201201 -583.932231 
L 658.257804 -578.940496 
L 658.325003 -573.94876 
L 658.375958 -568.957025 
L 658.410659 -563.965289 
L 658.453552 -558.973554 
L 658.546401 -553.981818 
L 658.716492 -548.990083 
L 658.947512 -543.998347 
L 659.237171 -539.006612 
L 659.644847 -534.014876 
L 660.230533 -529.02314 
L 661.017747 -524.031405 
L 662.02865 -519.039669 
L 663.299259 -514.047934 
L 664.907776 -509.056198 
L 666.997817 -504.064463 
L 669.625413 -499.072727 
L 672.55221 -494.080992 
L 675.545973 -489.089256 
L 678.960281 -484.097521 
L 683.461724 -479.105785 
L 689.179551 -474.11405 
L 695.658443 -469.122314 
L 702.514633 -464.130579 
L 709.749144 -459.138843 
L 717.318855 -454.147107 
L 724.489489 -449.155372 
L 730.147049 -444.163636 
L 733.841396 -439.171901 
L 736.261139 -434.180165 
L 738.578607 -429.18843 
L 740.881463 -424.196694 
L 741.825 -419.204959 
L 740.55336 -414.213223 
L 737.965381 -409.221488 
L 735.339961 -404.229752 
L 732.647424 -399.238017 
L 729.168693 -394.246281 
L 725.203022 -389.254545 
L 722.342628 -384.26281 
L 721.931735 -379.271074 
L 723.438743 -374.279339 
L 724.725801 -369.287603 
L 723.982889 -364.295868 
L 721.046105 -359.304132 
L 716.823009 -354.312397 
L 712.087926 -349.320661 
L 707.170777 -344.328926 
L 702.208438 -339.33719 
L 697.293616 -334.345455 
L 692.566493 -329.353719 
L 688.176879 -324.361983 
L 684.147528 -319.370248 
L 680.387247 -314.378512 
L 676.840684 -309.386777 
L 673.570468 -304.395041 
L 670.665187 -299.403306 
L 668.140132 -294.41157 
L 665.990917 -289.419835 
L 664.258619 -284.428099 
L 662.9763 -279.436364 
L 662.06627 -274.444628 
L 661.383419 -269.452893 
L 660.850989 -264.461157 
L 660.44188 -259.469421 
L 660.097374 -254.477686 
L 659.778288 -249.48595 
L 659.528552 -244.494215 
L 659.393705 -239.502479 
L 659.316652 -234.510744 
L 659.19647 -229.519008 
L 659.017671 -224.527273 
L 658.867284 -219.535537 
L 658.813659 -214.543802 
L 658.805384 -209.552066 
L 658.756214 -204.560331 
L 658.661772 -199.568595 
L 658.566879 -194.57686 
L 658.499745 -189.585124 
L 658.464566 -184.593388 
L 658.452671 -179.601653 
L 658.455727 -174.609917 
L 658.456819 -169.618182 
L 658.424192 -164.626446 
L 658.351343 -159.634711 
L 658.269959 -154.642975 
L 658.209249 -149.65124 
L 658.180071 -144.659504 
L 658.181999 -139.667769 
L 658.196605 -134.676033 
L 658.195877 -129.684298 
L 658.173278 -124.692562 
L 658.147026 -119.700826 
L 658.131682 -114.709091 
z
" id="m6c1d5adc39" style="stroke:#3d3d3d;stroke-width:2.25;"/>
    </defs>
    <g clip-path="url(#p011d0d849b)">
     <use style="fill:#3a923a;stroke:#3d3d3d;stroke-width:2.25;" x="0" xlink:href="#m6c1d5adc39" y="720"/>
    </g>
   </g>
   <g id="PolyCollection_4">
    <defs>
     <path d="M 867.381018 -335.261498 
L 867.368982 -335.261498 
L 867.356115 -336.571332 
L 867.331935 -337.881166 
L 867.303542 -339.190999 
L 867.288771 -340.500833 
L 867.299311 -341.810667 
L 867.325336 -343.120501 
L 867.343334 -344.430334 
L 867.332379 -345.740168 
L 867.280738 -347.050002 
L 867.192898 -348.359836 
L 867.094122 -349.669669 
L 867.011573 -350.979503 
L 866.947821 -352.289337 
L 866.879712 -353.599171 
L 866.778332 -354.909004 
L 866.631323 -356.218838 
L 866.453479 -357.528672 
L 866.268346 -358.838506 
L 866.069885 -360.148339 
L 865.80439 -361.458173 
L 865.394069 -362.768007 
L 864.782194 -364.077841 
L 863.960564 -365.387674 
L 862.965665 -366.697508 
L 861.842673 -368.007342 
L 860.548997 -369.317176 
L 858.868273 -370.627009 
L 856.479072 -371.936843 
L 853.114052 -373.246677 
L 848.585498 -374.556511 
L 842.676119 -375.866344 
L 835.239494 -377.176178 
L 826.575707 -378.486012 
L 817.497309 -379.795846 
L 808.828626 -381.105679 
L 800.950138 -382.415513 
L 793.975015 -383.725347 
L 788.387513 -385.035181 
L 785.19129 -386.345014 
L 784.983758 -387.654848 
L 787.169923 -388.964682 
L 790.614368 -390.274516 
L 794.69572 -391.584349 
L 799.348594 -392.894183 
L 804.628676 -394.204017 
L 810.534368 -395.513851 
L 816.742419 -396.823684 
L 822.454458 -398.133518 
L 826.949815 -399.443352 
L 830.185326 -400.753186 
L 832.538571 -402.063019 
L 834.186695 -403.372853 
L 835.055466 -404.682687 
L 835.188835 -405.992521 
L 834.862369 -407.302354 
L 834.391579 -408.612188 
L 833.953149 -409.922022 
L 833.542828 -411.231856 
L 833.106603 -412.541689 
L 832.777406 -413.851523 
L 832.878994 -415.161357 
L 833.643443 -416.471191 
L 835.109819 -417.781024 
L 837.266923 -419.090858 
L 840.027382 -420.400692 
L 843.099925 -421.710526 
L 846.093912 -423.020359 
L 848.749907 -424.330193 
L 851.052346 -425.640027 
L 853.160527 -426.949861 
L 855.222499 -428.259694 
L 857.276445 -429.569528 
L 859.301304 -430.879362 
L 861.230737 -432.189196 
L 862.926854 -433.499029 
L 864.275325 -434.808863 
L 865.287871 -436.118697 
L 866.036907 -437.428531 
L 866.563167 -438.738364 
L 866.897479 -440.048198 
L 867.095701 -441.358032 
L 867.213342 -442.667866 
L 867.281755 -443.977699 
L 867.316566 -445.287533 
L 867.331171 -446.597367 
L 867.339641 -447.907201 
L 867.350325 -449.217034 
L 867.361932 -450.526868 
L 867.369994 -451.836702 
L 867.373532 -453.146536 
L 867.374045 -454.456369 
L 867.371994 -455.766203 
L 867.366074 -457.076037 
L 867.356147 -458.385871 
L 867.346976 -459.695704 
L 867.345694 -461.005538 
L 867.353438 -462.315372 
L 867.363839 -463.625206 
L 867.370936 -464.935039 
L 867.379064 -464.935039 
L 867.379064 -464.935039 
L 867.386161 -463.625206 
L 867.396562 -462.315372 
L 867.404306 -461.005538 
L 867.403024 -459.695704 
L 867.393853 -458.385871 
L 867.383926 -457.076037 
L 867.378006 -455.766203 
L 867.375955 -454.456369 
L 867.376468 -453.146536 
L 867.380006 -451.836702 
L 867.388068 -450.526868 
L 867.399675 -449.217034 
L 867.410359 -447.907201 
L 867.418829 -446.597367 
L 867.433434 -445.287533 
L 867.468245 -443.977699 
L 867.536658 -442.667866 
L 867.654299 -441.358032 
L 867.852521 -440.048198 
L 868.186833 -438.738364 
L 868.713093 -437.428531 
L 869.462129 -436.118697 
L 870.474675 -434.808863 
L 871.823146 -433.499029 
L 873.519263 -432.189196 
L 875.448696 -430.879362 
L 877.473555 -429.569528 
L 879.527501 -428.259694 
L 881.589473 -426.949861 
L 883.697654 -425.640027 
L 886.000093 -424.330193 
L 888.656088 -423.020359 
L 891.650075 -421.710526 
L 894.722618 -420.400692 
L 897.483077 -419.090858 
L 899.640181 -417.781024 
L 901.106557 -416.471191 
L 901.871006 -415.161357 
L 901.972594 -413.851523 
L 901.643397 -412.541689 
L 901.207172 -411.231856 
L 900.796851 -409.922022 
L 900.358421 -408.612188 
L 899.887631 -407.302354 
L 899.561165 -405.992521 
L 899.694534 -404.682687 
L 900.563305 -403.372853 
L 902.211429 -402.063019 
L 904.564674 -400.753186 
L 907.800185 -399.443352 
L 912.295542 -398.133518 
L 918.007581 -396.823684 
L 924.215632 -395.513851 
L 930.121324 -394.204017 
L 935.401406 -392.894183 
L 940.05428 -391.584349 
L 944.135632 -390.274516 
L 947.580077 -388.964682 
L 949.766242 -387.654848 
L 949.55871 -386.345014 
L 946.362487 -385.035181 
L 940.774985 -383.725347 
L 933.799862 -382.415513 
L 925.921374 -381.105679 
L 917.252691 -379.795846 
L 908.174293 -378.486012 
L 899.510506 -377.176178 
L 892.073881 -375.866344 
L 886.164502 -374.556511 
L 881.635948 -373.246677 
L 878.270928 -371.936843 
L 875.881727 -370.627009 
L 874.201003 -369.317176 
L 872.907327 -368.007342 
L 871.784335 -366.697508 
L 870.789436 -365.387674 
L 869.967806 -364.077841 
L 869.355931 -362.768007 
L 868.94561 -361.458173 
L 868.680115 -360.148339 
L 868.481654 -358.838506 
L 868.296521 -357.528672 
L 868.118677 -356.218838 
L 867.971668 -354.909004 
L 867.870288 -353.599171 
L 867.802179 -352.289337 
L 867.738427 -350.979503 
L 867.655878 -349.669669 
L 867.557102 -348.359836 
L 867.469262 -347.050002 
L 867.417621 -345.740168 
L 867.406666 -344.430334 
L 867.424664 -343.120501 
L 867.450689 -341.810667 
L 867.461229 -340.500833 
L 867.446458 -339.190999 
L 867.418065 -337.881166 
L 867.393885 -336.571332 
L 867.381018 -335.261498 
z
" id="m957092b654" style="stroke:#3d3d3d;stroke-width:2.25;"/>
    </defs>
    <g clip-path="url(#p011d0d849b)">
     <use style="fill:#c03d3e;stroke:#3d3d3d;stroke-width:2.25;" x="0" xlink:href="#m957092b654" y="720"/>
    </g>
   </g>
   <g id="matplotlib.axis_1">
    <g id="xtick_1">
     <g id="line2d_1">
      <path clip-path="url(#p011d0d849b)" d="M 239.625 630 
L 239.625 86.4 
" style="fill:none;stroke:#b0b0b0;stroke-dasharray:5.55,2.4;stroke-dashoffset:0;stroke-opacity:0.3;stroke-width:1.5;"/>
     </g>
     <g id="line2d_2">
      <defs>
       <path d="M 0 0 
L 0 9 
" id="m7113858bdb" style="stroke:#000000;stroke-width:1.875;"/>
      </defs>
      <g>
       <use style="stroke:#000000;stroke-width:1.875;" x="239.625" xlink:href="#m7113858bdb" y="630"/>
      </g>
     </g>
     <g id="text_1">
      <!-- Chicago -->
      <g transform="translate(206.466445 655.037422)scale(0.165 -0.165)">
       <defs>
        <path d="M 4122 4306 
L 4122 3641 
Q 3803 3938 3442 4084 
Q 3081 4231 2675 4231 
Q 1875 4231 1450 3742 
Q 1025 3253 1025 2328 
Q 1025 1406 1450 917 
Q 1875 428 2675 428 
Q 3081 428 3442 575 
Q 3803 722 4122 1019 
L 4122 359 
Q 3791 134 3420 21 
Q 3050 -91 2638 -91 
Q 1578 -91 968 557 
Q 359 1206 359 2328 
Q 359 3453 968 4101 
Q 1578 4750 2638 4750 
Q 3056 4750 3426 4639 
Q 3797 4528 4122 4306 
z
" id="DejaVuSans-43" transform="scale(0.015625)"/>
        <path d="M 3513 2113 
L 3513 0 
L 2938 0 
L 2938 2094 
Q 2938 2591 2744 2837 
Q 2550 3084 2163 3084 
Q 1697 3084 1428 2787 
Q 1159 2491 1159 1978 
L 1159 0 
L 581 0 
L 581 4863 
L 1159 4863 
L 1159 2956 
Q 1366 3272 1645 3428 
Q 1925 3584 2291 3584 
Q 2894 3584 3203 3211 
Q 3513 2838 3513 2113 
z
" id="DejaVuSans-68" transform="scale(0.015625)"/>
        <path d="M 603 3500 
L 1178 3500 
L 1178 0 
L 603 0 
L 603 3500 
z
M 603 4863 
L 1178 4863 
L 1178 4134 
L 603 4134 
L 603 4863 
z
" id="DejaVuSans-69" transform="scale(0.015625)"/>
        <path d="M 3122 3366 
L 3122 2828 
Q 2878 2963 2633 3030 
Q 2388 3097 2138 3097 
Q 1578 3097 1268 2742 
Q 959 2388 959 1747 
Q 959 1106 1268 751 
Q 1578 397 2138 397 
Q 2388 397 2633 464 
Q 2878 531 3122 666 
L 3122 134 
Q 2881 22 2623 -34 
Q 2366 -91 2075 -91 
Q 1284 -91 818 406 
Q 353 903 353 1747 
Q 353 2603 823 3093 
Q 1294 3584 2113 3584 
Q 2378 3584 2631 3529 
Q 2884 3475 3122 3366 
z
" id="DejaVuSans-63" transform="scale(0.015625)"/>
        <path d="M 2194 1759 
Q 1497 1759 1228 1600 
Q 959 1441 959 1056 
Q 959 750 1161 570 
Q 1363 391 1709 391 
Q 2188 391 2477 730 
Q 2766 1069 2766 1631 
L 2766 1759 
L 2194 1759 
z
M 3341 1997 
L 3341 0 
L 2766 0 
L 2766 531 
Q 2569 213 2275 61 
Q 1981 -91 1556 -91 
Q 1019 -91 701 211 
Q 384 513 384 1019 
Q 384 1609 779 1909 
Q 1175 2209 1959 2209 
L 2766 2209 
L 2766 2266 
Q 2766 2663 2505 2880 
Q 2244 3097 1772 3097 
Q 1472 3097 1187 3025 
Q 903 2953 641 2809 
L 641 3341 
Q 956 3463 1253 3523 
Q 1550 3584 1831 3584 
Q 2591 3584 2966 3190 
Q 3341 2797 3341 1997 
z
" id="DejaVuSans-61" transform="scale(0.015625)"/>
        <path d="M 2906 1791 
Q 2906 2416 2648 2759 
Q 2391 3103 1925 3103 
Q 1463 3103 1205 2759 
Q 947 2416 947 1791 
Q 947 1169 1205 825 
Q 1463 481 1925 481 
Q 2391 481 2648 825 
Q 2906 1169 2906 1791 
z
M 3481 434 
Q 3481 -459 3084 -895 
Q 2688 -1331 1869 -1331 
Q 1566 -1331 1297 -1286 
Q 1028 -1241 775 -1147 
L 775 -588 
Q 1028 -725 1275 -790 
Q 1522 -856 1778 -856 
Q 2344 -856 2625 -561 
Q 2906 -266 2906 331 
L 2906 616 
Q 2728 306 2450 153 
Q 2172 0 1784 0 
Q 1141 0 747 490 
Q 353 981 353 1791 
Q 353 2603 747 3093 
Q 1141 3584 1784 3584 
Q 2172 3584 2450 3431 
Q 2728 3278 2906 2969 
L 2906 3500 
L 3481 3500 
L 3481 434 
z
" id="DejaVuSans-67" transform="scale(0.015625)"/>
        <path d="M 1959 3097 
Q 1497 3097 1228 2736 
Q 959 2375 959 1747 
Q 959 1119 1226 758 
Q 1494 397 1959 397 
Q 2419 397 2687 759 
Q 2956 1122 2956 1747 
Q 2956 2369 2687 2733 
Q 2419 3097 1959 3097 
z
M 1959 3584 
Q 2709 3584 3137 3096 
Q 3566 2609 3566 1747 
Q 3566 888 3137 398 
Q 2709 -91 1959 -91 
Q 1206 -91 779 398 
Q 353 888 353 1747 
Q 353 2609 779 3096 
Q 1206 3584 1959 3584 
z
" id="DejaVuSans-6f" transform="scale(0.015625)"/>
       </defs>
       <use xlink:href="#DejaVuSans-43"/>
       <use x="69.824219" xlink:href="#DejaVuSans-68"/>
       <use x="133.203125" xlink:href="#DejaVuSans-69"/>
       <use x="160.986328" xlink:href="#DejaVuSans-63"/>
       <use x="215.966797" xlink:href="#DejaVuSans-61"/>
       <use x="277.246094" xlink:href="#DejaVuSans-67"/>
       <use x="340.722656" xlink:href="#DejaVuSans-6f"/>
      </g>
     </g>
    </g>
    <g id="xtick_2">
     <g id="line2d_3">
      <path clip-path="url(#p011d0d849b)" d="M 448.875 630 
L 448.875 86.4 
" style="fill:none;stroke:#b0b0b0;stroke-dasharray:5.55,2.4;stroke-dashoffset:0;stroke-opacity:0.3;stroke-width:1.5;"/>
     </g>
     <g id="line2d_4">
      <g>
       <use style="stroke:#000000;stroke-width:1.875;" x="448.875" xlink:href="#m7113858bdb" y="630"/>
      </g>
     </g>
     <g id="text_2">
      <!-- Magnolia -->
      <g transform="translate(411.547617 655.037422)scale(0.165 -0.165)">
       <defs>
        <path d="M 628 4666 
L 1569 4666 
L 2759 1491 
L 3956 4666 
L 4897 4666 
L 4897 0 
L 4281 0 
L 4281 4097 
L 3078 897 
L 2444 897 
L 1241 4097 
L 1241 0 
L 628 0 
L 628 4666 
z
" id="DejaVuSans-4d" transform="scale(0.015625)"/>
        <path d="M 3513 2113 
L 3513 0 
L 2938 0 
L 2938 2094 
Q 2938 2591 2744 2837 
Q 2550 3084 2163 3084 
Q 1697 3084 1428 2787 
Q 1159 2491 1159 1978 
L 1159 0 
L 581 0 
L 581 3500 
L 1159 3500 
L 1159 2956 
Q 1366 3272 1645 3428 
Q 1925 3584 2291 3584 
Q 2894 3584 3203 3211 
Q 3513 2838 3513 2113 
z
" id="DejaVuSans-6e" transform="scale(0.015625)"/>
        <path d="M 603 4863 
L 1178 4863 
L 1178 0 
L 603 0 
L 603 4863 
z
" id="DejaVuSans-6c" transform="scale(0.015625)"/>
       </defs>
       <use xlink:href="#DejaVuSans-4d"/>
       <use x="86.279297" xlink:href="#DejaVuSans-61"/>
       <use x="147.558594" xlink:href="#DejaVuSans-67"/>
       <use x="211.035156" xlink:href="#DejaVuSans-6e"/>
       <use x="274.414062" xlink:href="#DejaVuSans-6f"/>
       <use x="335.595703" xlink:href="#DejaVuSans-6c"/>
       <use x="363.378906" xlink:href="#DejaVuSans-69"/>
       <use x="391.162109" xlink:href="#DejaVuSans-61"/>
      </g>
     </g>
    </g>
    <g id="xtick_3">
     <g id="line2d_5">
      <path clip-path="url(#p011d0d849b)" d="M 658.125 630 
L 658.125 86.4 
" style="fill:none;stroke:#b0b0b0;stroke-dasharray:5.55,2.4;stroke-dashoffset:0;stroke-opacity:0.3;stroke-width:1.5;"/>
     </g>
     <g id="line2d_6">
      <g>
       <use style="stroke:#000000;stroke-width:1.875;" x="658.125" xlink:href="#m7113858bdb" y="630"/>
      </g>
     </g>
     <g id="text_3">
      <!-- Cranford -->
      <g transform="translate(622.25168 655.037422)scale(0.165 -0.165)">
       <defs>
        <path d="M 2631 2963 
Q 2534 3019 2420 3045 
Q 2306 3072 2169 3072 
Q 1681 3072 1420 2755 
Q 1159 2438 1159 1844 
L 1159 0 
L 581 0 
L 581 3500 
L 1159 3500 
L 1159 2956 
Q 1341 3275 1631 3429 
Q 1922 3584 2338 3584 
Q 2397 3584 2469 3576 
Q 2541 3569 2628 3553 
L 2631 2963 
z
" id="DejaVuSans-72" transform="scale(0.015625)"/>
        <path d="M 2375 4863 
L 2375 4384 
L 1825 4384 
Q 1516 4384 1395 4259 
Q 1275 4134 1275 3809 
L 1275 3500 
L 2222 3500 
L 2222 3053 
L 1275 3053 
L 1275 0 
L 697 0 
L 697 3053 
L 147 3053 
L 147 3500 
L 697 3500 
L 697 3744 
Q 697 4328 969 4595 
Q 1241 4863 1831 4863 
L 2375 4863 
z
" id="DejaVuSans-66" transform="scale(0.015625)"/>
        <path d="M 2906 2969 
L 2906 4863 
L 3481 4863 
L 3481 0 
L 2906 0 
L 2906 525 
Q 2725 213 2448 61 
Q 2172 -91 1784 -91 
Q 1150 -91 751 415 
Q 353 922 353 1747 
Q 353 2572 751 3078 
Q 1150 3584 1784 3584 
Q 2172 3584 2448 3432 
Q 2725 3281 2906 2969 
z
M 947 1747 
Q 947 1113 1208 752 
Q 1469 391 1925 391 
Q 2381 391 2643 752 
Q 2906 1113 2906 1747 
Q 2906 2381 2643 2742 
Q 2381 3103 1925 3103 
Q 1469 3103 1208 2742 
Q 947 2381 947 1747 
z
" id="DejaVuSans-64" transform="scale(0.015625)"/>
       </defs>
       <use xlink:href="#DejaVuSans-43"/>
       <use x="69.824219" xlink:href="#DejaVuSans-72"/>
       <use x="110.9375" xlink:href="#DejaVuSans-61"/>
       <use x="172.216797" xlink:href="#DejaVuSans-6e"/>
       <use x="235.595703" xlink:href="#DejaVuSans-66"/>
       <use x="270.800781" xlink:href="#DejaVuSans-6f"/>
       <use x="331.982422" xlink:href="#DejaVuSans-72"/>
       <use x="371.345703" xlink:href="#DejaVuSans-64"/>
      </g>
     </g>
    </g>
    <g id="xtick_4">
     <g id="line2d_7">
      <path clip-path="url(#p011d0d849b)" d="M 867.375 630 
L 867.375 86.4 
" style="fill:none;stroke:#b0b0b0;stroke-dasharray:5.55,2.4;stroke-dashoffset:0;stroke-opacity:0.3;stroke-width:1.5;"/>
     </g>
     <g id="line2d_8">
      <g>
       <use style="stroke:#000000;stroke-width:1.875;" x="867.375" xlink:href="#m7113858bdb" y="630"/>
      </g>
     </g>
     <g id="text_4">
      <!-- Iowa -->
      <g transform="translate(848.090625 655.037422)scale(0.165 -0.165)">
       <defs>
        <path d="M 628 4666 
L 1259 4666 
L 1259 0 
L 628 0 
L 628 4666 
z
" id="DejaVuSans-49" transform="scale(0.015625)"/>
        <path d="M 269 3500 
L 844 3500 
L 1563 769 
L 2278 3500 
L 2956 3500 
L 3675 769 
L 4391 3500 
L 4966 3500 
L 4050 0 
L 3372 0 
L 2619 2869 
L 1863 0 
L 1184 0 
L 269 3500 
z
" id="DejaVuSans-77" transform="scale(0.015625)"/>
       </defs>
       <use xlink:href="#DejaVuSans-49"/>
       <use x="29.492188" xlink:href="#DejaVuSans-6f"/>
       <use x="90.673828" xlink:href="#DejaVuSans-77"/>
       <use x="172.460938" xlink:href="#DejaVuSans-61"/>
      </g>
     </g>
    </g>
    <g id="text_5">
     <!-- Sensor Name -->
     <g transform="translate(493.236562 676.146094)scale(0.18 -0.18)">
      <defs>
       <path d="M 3425 4513 
L 3425 3897 
Q 3066 4069 2747 4153 
Q 2428 4238 2131 4238 
Q 1616 4238 1336 4038 
Q 1056 3838 1056 3469 
Q 1056 3159 1242 3001 
Q 1428 2844 1947 2747 
L 2328 2669 
Q 3034 2534 3370 2195 
Q 3706 1856 3706 1288 
Q 3706 609 3251 259 
Q 2797 -91 1919 -91 
Q 1588 -91 1214 -16 
Q 841 59 441 206 
L 441 856 
Q 825 641 1194 531 
Q 1563 422 1919 422 
Q 2459 422 2753 634 
Q 3047 847 3047 1241 
Q 3047 1584 2836 1778 
Q 2625 1972 2144 2069 
L 1759 2144 
Q 1053 2284 737 2584 
Q 422 2884 422 3419 
Q 422 4038 858 4394 
Q 1294 4750 2059 4750 
Q 2388 4750 2728 4690 
Q 3069 4631 3425 4513 
z
" id="DejaVuSans-53" transform="scale(0.015625)"/>
       <path d="M 3597 1894 
L 3597 1613 
L 953 1613 
Q 991 1019 1311 708 
Q 1631 397 2203 397 
Q 2534 397 2845 478 
Q 3156 559 3463 722 
L 3463 178 
Q 3153 47 2828 -22 
Q 2503 -91 2169 -91 
Q 1331 -91 842 396 
Q 353 884 353 1716 
Q 353 2575 817 3079 
Q 1281 3584 2069 3584 
Q 2775 3584 3186 3129 
Q 3597 2675 3597 1894 
z
M 3022 2063 
Q 3016 2534 2758 2815 
Q 2500 3097 2075 3097 
Q 1594 3097 1305 2825 
Q 1016 2553 972 2059 
L 3022 2063 
z
" id="DejaVuSans-65" transform="scale(0.015625)"/>
       <path d="M 2834 3397 
L 2834 2853 
Q 2591 2978 2328 3040 
Q 2066 3103 1784 3103 
Q 1356 3103 1142 2972 
Q 928 2841 928 2578 
Q 928 2378 1081 2264 
Q 1234 2150 1697 2047 
L 1894 2003 
Q 2506 1872 2764 1633 
Q 3022 1394 3022 966 
Q 3022 478 2636 193 
Q 2250 -91 1575 -91 
Q 1294 -91 989 -36 
Q 684 19 347 128 
L 347 722 
Q 666 556 975 473 
Q 1284 391 1588 391 
Q 1994 391 2212 530 
Q 2431 669 2431 922 
Q 2431 1156 2273 1281 
Q 2116 1406 1581 1522 
L 1381 1569 
Q 847 1681 609 1914 
Q 372 2147 372 2553 
Q 372 3047 722 3315 
Q 1072 3584 1716 3584 
Q 2034 3584 2315 3537 
Q 2597 3491 2834 3397 
z
" id="DejaVuSans-73" transform="scale(0.015625)"/>
       <path id="DejaVuSans-20" transform="scale(0.015625)"/>
       <path d="M 628 4666 
L 1478 4666 
L 3547 763 
L 3547 4666 
L 4159 4666 
L 4159 0 
L 3309 0 
L 1241 3903 
L 1241 0 
L 628 0 
L 628 4666 
z
" id="DejaVuSans-4e" transform="scale(0.015625)"/>
       <path d="M 3328 2828 
Q 3544 3216 3844 3400 
Q 4144 3584 4550 3584 
Q 5097 3584 5394 3201 
Q 5691 2819 5691 2113 
L 5691 0 
L 5113 0 
L 5113 2094 
Q 5113 2597 4934 2840 
Q 4756 3084 4391 3084 
Q 3944 3084 3684 2787 
Q 3425 2491 3425 1978 
L 3425 0 
L 2847 0 
L 2847 2094 
Q 2847 2600 2669 2842 
Q 2491 3084 2119 3084 
Q 1678 3084 1418 2786 
Q 1159 2488 1159 1978 
L 1159 0 
L 581 0 
L 581 3500 
L 1159 3500 
L 1159 2956 
Q 1356 3278 1631 3431 
Q 1906 3584 2284 3584 
Q 2666 3584 2933 3390 
Q 3200 3197 3328 2828 
z
" id="DejaVuSans-6d" transform="scale(0.015625)"/>
      </defs>
      <use xlink:href="#DejaVuSans-53"/>
      <use x="63.476562" xlink:href="#DejaVuSans-65"/>
      <use x="125" xlink:href="#DejaVuSans-6e"/>
      <use x="188.378906" xlink:href="#DejaVuSans-73"/>
      <use x="240.478516" xlink:href="#DejaVuSans-6f"/>
      <use x="301.660156" xlink:href="#DejaVuSans-72"/>
      <use x="342.773438" xlink:href="#DejaVuSans-20"/>
      <use x="374.560547" xlink:href="#DejaVuSans-4e"/>
      <use x="449.365234" xlink:href="#DejaVuSans-61"/>
      <use x="510.644531" xlink:href="#DejaVuSans-6d"/>
      <use x="608.056641" xlink:href="#DejaVuSans-65"/>
     </g>
    </g>
   </g>
   <g id="matplotlib.axis_2">
    <g id="ytick_1">
     <g id="line2d_9">
      <path clip-path="url(#p011d0d849b)" d="M 135 573.174764 
L 972 573.174764 
" style="fill:none;stroke:#b0b0b0;stroke-dasharray:5.55,2.4;stroke-dashoffset:0;stroke-opacity:0.3;stroke-width:1.5;"/>
     </g>
     <g id="line2d_10">
      <defs>
       <path d="M 0 0 
L -9 0 
" id="m54bf8ce315" style="stroke:#000000;stroke-width:1.875;"/>
      </defs>
      <g>
       <use style="stroke:#000000;stroke-width:1.875;" x="135" xlink:href="#m54bf8ce315" y="573.174764"/>
      </g>
     </g>
     <g id="text_6">
      <!-- −150 -->
      <g transform="translate(77.179141 579.443475)scale(0.165 -0.165)">
       <defs>
        <path d="M 678 2272 
L 4684 2272 
L 4684 1741 
L 678 1741 
L 678 2272 
z
" id="DejaVuSans-2212" transform="scale(0.015625)"/>
        <path d="M 794 531 
L 1825 531 
L 1825 4091 
L 703 3866 
L 703 4441 
L 1819 4666 
L 2450 4666 
L 2450 531 
L 3481 531 
L 3481 0 
L 794 0 
L 794 531 
z
" id="DejaVuSans-31" transform="scale(0.015625)"/>
        <path d="M 691 4666 
L 3169 4666 
L 3169 4134 
L 1269 4134 
L 1269 2991 
Q 1406 3038 1543 3061 
Q 1681 3084 1819 3084 
Q 2600 3084 3056 2656 
Q 3513 2228 3513 1497 
Q 3513 744 3044 326 
Q 2575 -91 1722 -91 
Q 1428 -91 1123 -41 
Q 819 9 494 109 
L 494 744 
Q 775 591 1075 516 
Q 1375 441 1709 441 
Q 2250 441 2565 725 
Q 2881 1009 2881 1497 
Q 2881 1984 2565 2268 
Q 2250 2553 1709 2553 
Q 1456 2553 1204 2497 
Q 953 2441 691 2322 
L 691 4666 
z
" id="DejaVuSans-35" transform="scale(0.015625)"/>
        <path d="M 2034 4250 
Q 1547 4250 1301 3770 
Q 1056 3291 1056 2328 
Q 1056 1369 1301 889 
Q 1547 409 2034 409 
Q 2525 409 2770 889 
Q 3016 1369 3016 2328 
Q 3016 3291 2770 3770 
Q 2525 4250 2034 4250 
z
M 2034 4750 
Q 2819 4750 3233 4129 
Q 3647 3509 3647 2328 
Q 3647 1150 3233 529 
Q 2819 -91 2034 -91 
Q 1250 -91 836 529 
Q 422 1150 422 2328 
Q 422 3509 836 4129 
Q 1250 4750 2034 4750 
z
" id="DejaVuSans-30" transform="scale(0.015625)"/>
       </defs>
       <use xlink:href="#DejaVuSans-2212"/>
       <use x="83.789062" xlink:href="#DejaVuSans-31"/>
       <use x="147.412109" xlink:href="#DejaVuSans-35"/>
       <use x="211.035156" xlink:href="#DejaVuSans-30"/>
      </g>
     </g>
    </g>
    <g id="ytick_2">
     <g id="line2d_11">
      <path clip-path="url(#p011d0d849b)" d="M 135 500.695073 
L 972 500.695073 
" style="fill:none;stroke:#b0b0b0;stroke-dasharray:5.55,2.4;stroke-dashoffset:0;stroke-opacity:0.3;stroke-width:1.5;"/>
     </g>
     <g id="line2d_12">
      <g>
       <use style="stroke:#000000;stroke-width:1.875;" x="135" xlink:href="#m54bf8ce315" y="500.695073"/>
      </g>
     </g>
     <g id="text_7">
      <!-- −100 -->
      <g transform="translate(77.179141 506.963784)scale(0.165 -0.165)">
       <use xlink:href="#DejaVuSans-2212"/>
       <use x="83.789062" xlink:href="#DejaVuSans-31"/>
       <use x="147.412109" xlink:href="#DejaVuSans-30"/>
       <use x="211.035156" xlink:href="#DejaVuSans-30"/>
      </g>
     </g>
    </g>
    <g id="ytick_3">
     <g id="line2d_13">
      <path clip-path="url(#p011d0d849b)" d="M 135 428.215382 
L 972 428.215382 
" style="fill:none;stroke:#b0b0b0;stroke-dasharray:5.55,2.4;stroke-dashoffset:0;stroke-opacity:0.3;stroke-width:1.5;"/>
     </g>
     <g id="line2d_14">
      <g>
       <use style="stroke:#000000;stroke-width:1.875;" x="135" xlink:href="#m54bf8ce315" y="428.215382"/>
      </g>
     </g>
     <g id="text_8">
      <!-- −50 -->
      <g transform="translate(87.677266 434.484093)scale(0.165 -0.165)">
       <use xlink:href="#DejaVuSans-2212"/>
       <use x="83.789062" xlink:href="#DejaVuSans-35"/>
       <use x="147.412109" xlink:href="#DejaVuSans-30"/>
      </g>
     </g>
    </g>
    <g id="ytick_4">
     <g id="line2d_15">
      <path clip-path="url(#p011d0d849b)" d="M 135 355.735691 
L 972 355.735691 
" style="fill:none;stroke:#b0b0b0;stroke-dasharray:5.55,2.4;stroke-dashoffset:0;stroke-opacity:0.3;stroke-width:1.5;"/>
     </g>
     <g id="line2d_16">
      <g>
       <use style="stroke:#000000;stroke-width:1.875;" x="135" xlink:href="#m54bf8ce315" y="355.735691"/>
      </g>
     </g>
     <g id="text_9">
      <!-- 0 -->
      <g transform="translate(112.001875 362.004401)scale(0.165 -0.165)">
       <use xlink:href="#DejaVuSans-30"/>
      </g>
     </g>
    </g>
    <g id="ytick_5">
     <g id="line2d_17">
      <path clip-path="url(#p011d0d849b)" d="M 135 283.255999 
L 972 283.255999 
" style="fill:none;stroke:#b0b0b0;stroke-dasharray:5.55,2.4;stroke-dashoffset:0;stroke-opacity:0.3;stroke-width:1.5;"/>
     </g>
     <g id="line2d_18">
      <g>
       <use style="stroke:#000000;stroke-width:1.875;" x="135" xlink:href="#m54bf8ce315" y="283.255999"/>
      </g>
     </g>
     <g id="text_10">
      <!-- 50 -->
      <g transform="translate(101.50375 289.52471)scale(0.165 -0.165)">
       <use xlink:href="#DejaVuSans-35"/>
       <use x="63.623047" xlink:href="#DejaVuSans-30"/>
      </g>
     </g>
    </g>
    <g id="ytick_6">
     <g id="line2d_19">
      <path clip-path="url(#p011d0d849b)" d="M 135 210.776308 
L 972 210.776308 
" style="fill:none;stroke:#b0b0b0;stroke-dasharray:5.55,2.4;stroke-dashoffset:0;stroke-opacity:0.3;stroke-width:1.5;"/>
     </g>
     <g id="line2d_20">
      <g>
       <use style="stroke:#000000;stroke-width:1.875;" x="135" xlink:href="#m54bf8ce315" y="210.776308"/>
      </g>
     </g>
     <g id="text_11">
      <!-- 100 -->
      <g transform="translate(91.005625 217.045019)scale(0.165 -0.165)">
       <use xlink:href="#DejaVuSans-31"/>
       <use x="63.623047" xlink:href="#DejaVuSans-30"/>
       <use x="127.246094" xlink:href="#DejaVuSans-30"/>
      </g>
     </g>
    </g>
    <g id="ytick_7">
     <g id="line2d_21">
      <path clip-path="url(#p011d0d849b)" d="M 135 138.296617 
L 972 138.296617 
" style="fill:none;stroke:#b0b0b0;stroke-dasharray:5.55,2.4;stroke-dashoffset:0;stroke-opacity:0.3;stroke-width:1.5;"/>
     </g>
     <g id="line2d_22">
      <g>
       <use style="stroke:#000000;stroke-width:1.875;" x="135" xlink:href="#m54bf8ce315" y="138.296617"/>
      </g>
     </g>
     <g id="text_12">
      <!-- 150 -->
      <g transform="translate(91.005625 144.565328)scale(0.165 -0.165)">
       <use xlink:href="#DejaVuSans-31"/>
       <use x="63.623047" xlink:href="#DejaVuSans-35"/>
       <use x="127.246094" xlink:href="#DejaVuSans-30"/>
      </g>
     </g>
    </g>
    <g id="text_13">
     <!-- NO_2 Raw Concentration(ppb) -->
     <g transform="translate(68.935078 494.722969)rotate(-90)scale(0.18 -0.18)">
      <defs>
       <path d="M 2522 4238 
Q 1834 4238 1429 3725 
Q 1025 3213 1025 2328 
Q 1025 1447 1429 934 
Q 1834 422 2522 422 
Q 3209 422 3611 934 
Q 4013 1447 4013 2328 
Q 4013 3213 3611 3725 
Q 3209 4238 2522 4238 
z
M 2522 4750 
Q 3503 4750 4090 4092 
Q 4678 3434 4678 2328 
Q 4678 1225 4090 567 
Q 3503 -91 2522 -91 
Q 1538 -91 948 565 
Q 359 1222 359 2328 
Q 359 3434 948 4092 
Q 1538 4750 2522 4750 
z
" id="DejaVuSans-4f" transform="scale(0.015625)"/>
       <path d="M 3263 -1063 
L 3263 -1509 
L -63 -1509 
L -63 -1063 
L 3263 -1063 
z
" id="DejaVuSans-5f" transform="scale(0.015625)"/>
       <path d="M 1228 531 
L 3431 531 
L 3431 0 
L 469 0 
L 469 531 
Q 828 903 1448 1529 
Q 2069 2156 2228 2338 
Q 2531 2678 2651 2914 
Q 2772 3150 2772 3378 
Q 2772 3750 2511 3984 
Q 2250 4219 1831 4219 
Q 1534 4219 1204 4116 
Q 875 4013 500 3803 
L 500 4441 
Q 881 4594 1212 4672 
Q 1544 4750 1819 4750 
Q 2544 4750 2975 4387 
Q 3406 4025 3406 3419 
Q 3406 3131 3298 2873 
Q 3191 2616 2906 2266 
Q 2828 2175 2409 1742 
Q 1991 1309 1228 531 
z
" id="DejaVuSans-32" transform="scale(0.015625)"/>
       <path d="M 2841 2188 
Q 3044 2119 3236 1894 
Q 3428 1669 3622 1275 
L 4263 0 
L 3584 0 
L 2988 1197 
Q 2756 1666 2539 1819 
Q 2322 1972 1947 1972 
L 1259 1972 
L 1259 0 
L 628 0 
L 628 4666 
L 2053 4666 
Q 2853 4666 3247 4331 
Q 3641 3997 3641 3322 
Q 3641 2881 3436 2590 
Q 3231 2300 2841 2188 
z
M 1259 4147 
L 1259 2491 
L 2053 2491 
Q 2509 2491 2742 2702 
Q 2975 2913 2975 3322 
Q 2975 3731 2742 3939 
Q 2509 4147 2053 4147 
L 1259 4147 
z
" id="DejaVuSans-52" transform="scale(0.015625)"/>
       <path d="M 1172 4494 
L 1172 3500 
L 2356 3500 
L 2356 3053 
L 1172 3053 
L 1172 1153 
Q 1172 725 1289 603 
Q 1406 481 1766 481 
L 2356 481 
L 2356 0 
L 1766 0 
Q 1100 0 847 248 
Q 594 497 594 1153 
L 594 3053 
L 172 3053 
L 172 3500 
L 594 3500 
L 594 4494 
L 1172 4494 
z
" id="DejaVuSans-74" transform="scale(0.015625)"/>
       <path d="M 1984 4856 
Q 1566 4138 1362 3434 
Q 1159 2731 1159 2009 
Q 1159 1288 1364 580 
Q 1569 -128 1984 -844 
L 1484 -844 
Q 1016 -109 783 600 
Q 550 1309 550 2009 
Q 550 2706 781 3412 
Q 1013 4119 1484 4856 
L 1984 4856 
z
" id="DejaVuSans-28" transform="scale(0.015625)"/>
       <path d="M 1159 525 
L 1159 -1331 
L 581 -1331 
L 581 3500 
L 1159 3500 
L 1159 2969 
Q 1341 3281 1617 3432 
Q 1894 3584 2278 3584 
Q 2916 3584 3314 3078 
Q 3713 2572 3713 1747 
Q 3713 922 3314 415 
Q 2916 -91 2278 -91 
Q 1894 -91 1617 61 
Q 1341 213 1159 525 
z
M 3116 1747 
Q 3116 2381 2855 2742 
Q 2594 3103 2138 3103 
Q 1681 3103 1420 2742 
Q 1159 2381 1159 1747 
Q 1159 1113 1420 752 
Q 1681 391 2138 391 
Q 2594 391 2855 752 
Q 3116 1113 3116 1747 
z
" id="DejaVuSans-70" transform="scale(0.015625)"/>
       <path d="M 3116 1747 
Q 3116 2381 2855 2742 
Q 2594 3103 2138 3103 
Q 1681 3103 1420 2742 
Q 1159 2381 1159 1747 
Q 1159 1113 1420 752 
Q 1681 391 2138 391 
Q 2594 391 2855 752 
Q 3116 1113 3116 1747 
z
M 1159 2969 
Q 1341 3281 1617 3432 
Q 1894 3584 2278 3584 
Q 2916 3584 3314 3078 
Q 3713 2572 3713 1747 
Q 3713 922 3314 415 
Q 2916 -91 2278 -91 
Q 1894 -91 1617 61 
Q 1341 213 1159 525 
L 1159 0 
L 581 0 
L 581 4863 
L 1159 4863 
L 1159 2969 
z
" id="DejaVuSans-62" transform="scale(0.015625)"/>
       <path d="M 513 4856 
L 1013 4856 
Q 1481 4119 1714 3412 
Q 1947 2706 1947 2009 
Q 1947 1309 1714 600 
Q 1481 -109 1013 -844 
L 513 -844 
Q 928 -128 1133 580 
Q 1338 1288 1338 2009 
Q 1338 2731 1133 3434 
Q 928 4138 513 4856 
z
" id="DejaVuSans-29" transform="scale(0.015625)"/>
      </defs>
      <use xlink:href="#DejaVuSans-4e"/>
      <use x="74.804688" xlink:href="#DejaVuSans-4f"/>
      <use x="153.515625" xlink:href="#DejaVuSans-5f"/>
      <use x="203.515625" xlink:href="#DejaVuSans-32"/>
      <use x="267.138672" xlink:href="#DejaVuSans-20"/>
      <use x="298.925781" xlink:href="#DejaVuSans-52"/>
      <use x="366.158203" xlink:href="#DejaVuSans-61"/>
      <use x="427.4375" xlink:href="#DejaVuSans-77"/>
      <use x="509.224609" xlink:href="#DejaVuSans-20"/>
      <use x="541.011719" xlink:href="#DejaVuSans-43"/>
      <use x="610.835938" xlink:href="#DejaVuSans-6f"/>
      <use x="672.017578" xlink:href="#DejaVuSans-6e"/>
      <use x="735.396484" xlink:href="#DejaVuSans-63"/>
      <use x="790.376953" xlink:href="#DejaVuSans-65"/>
      <use x="851.900391" xlink:href="#DejaVuSans-6e"/>
      <use x="915.279297" xlink:href="#DejaVuSans-74"/>
      <use x="954.488281" xlink:href="#DejaVuSans-72"/>
      <use x="995.601562" xlink:href="#DejaVuSans-61"/>
      <use x="1056.880859" xlink:href="#DejaVuSans-74"/>
      <use x="1096.089844" xlink:href="#DejaVuSans-69"/>
      <use x="1123.873047" xlink:href="#DejaVuSans-6f"/>
      <use x="1185.054688" xlink:href="#DejaVuSans-6e"/>
      <use x="1248.433594" xlink:href="#DejaVuSans-28"/>
      <use x="1287.447266" xlink:href="#DejaVuSans-70"/>
      <use x="1350.923828" xlink:href="#DejaVuSans-70"/>
      <use x="1414.400391" xlink:href="#DejaVuSans-62"/>
      <use x="1477.876953" xlink:href="#DejaVuSans-29"/>
     </g>
    </g>
   </g>
   <g id="line2d_23">
    <path clip-path="url(#p011d0d849b)" d="M 239.625 370.40558 
L 239.625 274.790371 
" style="fill:none;stroke:#3d3d3d;stroke-linecap:square;stroke-width:2.25;"/>
   </g>
   <g id="line2d_24">
    <path clip-path="url(#p011d0d849b)" d="M 239.625 333.767096 
L 239.625 309.3052 
" style="fill:none;stroke:#3d3d3d;stroke-linecap:square;stroke-width:6.75;"/>
   </g>
   <g id="line2d_25">
    <path clip-path="url(#p011d0d849b)" d="M 448.875 382.393721 
L 448.875 256.699441 
" style="fill:none;stroke:#3d3d3d;stroke-linecap:square;stroke-width:2.25;"/>
   </g>
   <g id="line2d_26">
    <path clip-path="url(#p011d0d849b)" d="M 448.875 335.658816 
L 448.875 303.883719 
" style="fill:none;stroke:#3d3d3d;stroke-linecap:square;stroke-width:6.75;"/>
   </g>
   <g id="line2d_27">
    <path clip-path="url(#p011d0d849b)" d="M 658.125 466.673106 
L 658.125 174.695918 
" style="fill:none;stroke:#3d3d3d;stroke-linecap:square;stroke-width:2.25;"/>
   </g>
   <g id="line2d_28">
    <path clip-path="url(#p011d0d849b)" d="M 658.125 356.156073 
L 658.125 282.429731 
" style="fill:none;stroke:#3d3d3d;stroke-linecap:square;stroke-width:6.75;"/>
   </g>
   <g id="line2d_29">
    <path clip-path="url(#p011d0d849b)" d="M 867.375 368.506612 
L 867.375 278.544819 
" style="fill:none;stroke:#3d3d3d;stroke-linecap:square;stroke-width:2.25;"/>
   </g>
   <g id="line2d_30">
    <path clip-path="url(#p011d0d849b)" d="M 867.375 334.745572 
L 867.375 312.218884 
" style="fill:none;stroke:#3d3d3d;stroke-linecap:square;stroke-width:6.75;"/>
   </g>
   <g id="patch_3">
    <path d="M 135 630 
L 135 86.4 
" style="fill:none;stroke:#000000;stroke-linecap:square;stroke-linejoin:miter;stroke-width:1.875;"/>
   </g>
   <g id="patch_4">
    <path d="M 972 630 
L 972 86.4 
" style="fill:none;stroke:#000000;stroke-linecap:square;stroke-linejoin:miter;stroke-width:1.875;"/>
   </g>
   <g id="patch_5">
    <path d="M 135 630 
L 972 630 
" style="fill:none;stroke:#000000;stroke-linecap:square;stroke-linejoin:miter;stroke-width:1.875;"/>
   </g>
   <g id="patch_6">
    <path d="M 135 86.4 
L 972 86.4 
" style="fill:none;stroke:#000000;stroke-linecap:square;stroke-linejoin:miter;stroke-width:1.875;"/>
   </g>
   <g id="PathCollection_1">
    <defs>
     <path d="M 0 2.25 
C 0.596707 2.25 1.169055 2.012926 1.59099 1.59099 
C 2.012926 1.169055 2.25 0.596707 2.25 0 
C 2.25 -0.596707 2.012926 -1.169055 1.59099 -1.59099 
C 1.169055 -2.012926 0.596707 -2.25 0 -2.25 
C -0.596707 -2.25 -1.169055 -2.012926 -1.59099 -1.59099 
C -2.012926 -1.169055 -2.25 -0.596707 -2.25 0 
C -2.25 0.596707 -2.012926 1.169055 -1.59099 1.59099 
C -1.169055 2.012926 -0.596707 2.25 0 2.25 
z
" id="m3b06304af1" style="stroke:#3d3d3d;stroke-width:1.5;"/>
    </defs>
    <g clip-path="url(#p011d0d849b)">
     <use style="fill:#ffffff;stroke:#3d3d3d;stroke-width:1.5;" x="239.625" xlink:href="#m3b06304af1" y="324.236017"/>
    </g>
   </g>
   <g id="PathCollection_2">
    <g clip-path="url(#p011d0d849b)">
     <use style="fill:#ffffff;stroke:#3d3d3d;stroke-width:1.5;" x="448.875" xlink:href="#m3b06304af1" y="320.148162"/>
    </g>
   </g>
   <g id="PathCollection_3">
    <g clip-path="url(#p011d0d849b)">
     <use style="fill:#ffffff;stroke:#3d3d3d;stroke-width:1.5;" x="658.125" xlink:href="#m3b06304af1" y="316.219763"/>
    </g>
   </g>
   <g id="PathCollection_4">
    <g clip-path="url(#p011d0d849b)">
     <use style="fill:#ffffff;stroke:#3d3d3d;stroke-width:1.5;" x="867.375" xlink:href="#m3b06304af1" y="327.048229"/>
    </g>
   </g>
  </g>
  <g id="text_14">
   <!-- Distribution of NO_2 January to August -->
   <g transform="translate(330.991313 30.812625)scale(0.216 -0.216)">
    <defs>
     <path d="M 1259 4147 
L 1259 519 
L 2022 519 
Q 2988 519 3436 956 
Q 3884 1394 3884 2338 
Q 3884 3275 3436 3711 
Q 2988 4147 2022 4147 
L 1259 4147 
z
M 628 4666 
L 1925 4666 
Q 3281 4666 3915 4102 
Q 4550 3538 4550 2338 
Q 4550 1131 3912 565 
Q 3275 0 1925 0 
L 628 0 
L 628 4666 
z
" id="DejaVuSans-44" transform="scale(0.015625)"/>
     <path d="M 544 1381 
L 544 3500 
L 1119 3500 
L 1119 1403 
Q 1119 906 1312 657 
Q 1506 409 1894 409 
Q 2359 409 2629 706 
Q 2900 1003 2900 1516 
L 2900 3500 
L 3475 3500 
L 3475 0 
L 2900 0 
L 2900 538 
Q 2691 219 2414 64 
Q 2138 -91 1772 -91 
Q 1169 -91 856 284 
Q 544 659 544 1381 
z
M 1991 3584 
L 1991 3584 
z
" id="DejaVuSans-75" transform="scale(0.015625)"/>
     <path d="M 628 4666 
L 1259 4666 
L 1259 325 
Q 1259 -519 939 -900 
Q 619 -1281 -91 -1281 
L -331 -1281 
L -331 -750 
L -134 -750 
Q 284 -750 456 -515 
Q 628 -281 628 325 
L 628 4666 
z
" id="DejaVuSans-4a" transform="scale(0.015625)"/>
     <path d="M 2059 -325 
Q 1816 -950 1584 -1140 
Q 1353 -1331 966 -1331 
L 506 -1331 
L 506 -850 
L 844 -850 
Q 1081 -850 1212 -737 
Q 1344 -625 1503 -206 
L 1606 56 
L 191 3500 
L 800 3500 
L 1894 763 
L 2988 3500 
L 3597 3500 
L 2059 -325 
z
" id="DejaVuSans-79" transform="scale(0.015625)"/>
     <path d="M 2188 4044 
L 1331 1722 
L 3047 1722 
L 2188 4044 
z
M 1831 4666 
L 2547 4666 
L 4325 0 
L 3669 0 
L 3244 1197 
L 1141 1197 
L 716 0 
L 50 0 
L 1831 4666 
z
" id="DejaVuSans-41" transform="scale(0.015625)"/>
    </defs>
    <use xlink:href="#DejaVuSans-44"/>
    <use x="77.001953" xlink:href="#DejaVuSans-69"/>
    <use x="104.785156" xlink:href="#DejaVuSans-73"/>
    <use x="156.884766" xlink:href="#DejaVuSans-74"/>
    <use x="196.09375" xlink:href="#DejaVuSans-72"/>
    <use x="237.207031" xlink:href="#DejaVuSans-69"/>
    <use x="264.990234" xlink:href="#DejaVuSans-62"/>
    <use x="328.466797" xlink:href="#DejaVuSans-75"/>
    <use x="391.845703" xlink:href="#DejaVuSans-74"/>
    <use x="431.054688" xlink:href="#DejaVuSans-69"/>
    <use x="458.837891" xlink:href="#DejaVuSans-6f"/>
    <use x="520.019531" xlink:href="#DejaVuSans-6e"/>
    <use x="583.398438" xlink:href="#DejaVuSans-20"/>
    <use x="615.185547" xlink:href="#DejaVuSans-6f"/>
    <use x="676.367188" xlink:href="#DejaVuSans-66"/>
    <use x="711.572266" xlink:href="#DejaVuSans-20"/>
    <use x="743.359375" xlink:href="#DejaVuSans-4e"/>
    <use x="818.164062" xlink:href="#DejaVuSans-4f"/>
    <use x="896.875" xlink:href="#DejaVuSans-5f"/>
    <use x="946.875" xlink:href="#DejaVuSans-32"/>
    <use x="1010.498047" xlink:href="#DejaVuSans-20"/>
    <use x="1042.285156" xlink:href="#DejaVuSans-4a"/>
    <use x="1071.777344" xlink:href="#DejaVuSans-61"/>
    <use x="1133.056641" xlink:href="#DejaVuSans-6e"/>
    <use x="1196.435547" xlink:href="#DejaVuSans-75"/>
    <use x="1259.814453" xlink:href="#DejaVuSans-61"/>
    <use x="1321.09375" xlink:href="#DejaVuSans-72"/>
    <use x="1362.207031" xlink:href="#DejaVuSans-79"/>
    <use x="1421.386719" xlink:href="#DejaVuSans-20"/>
    <use x="1453.173828" xlink:href="#DejaVuSans-74"/>
    <use x="1492.382812" xlink:href="#DejaVuSans-6f"/>
    <use x="1553.564453" xlink:href="#DejaVuSans-20"/>
    <use x="1585.351562" xlink:href="#DejaVuSans-41"/>
    <use x="1653.759766" xlink:href="#DejaVuSans-75"/>
    <use x="1717.138672" xlink:href="#DejaVuSans-67"/>
    <use x="1780.615234" xlink:href="#DejaVuSans-75"/>
    <use x="1843.994141" xlink:href="#DejaVuSans-73"/>
    <use x="1896.09375" xlink:href="#DejaVuSans-74"/>
   </g>
  </g>
 </g>
 <defs>
  <clipPath id="p011d0d849b">
   <rect height="543.6" width="837" x="135" y="86.4"/>
  </clipPath>
 </defs>
</svg>
