<?xml version="1.0" encoding="utf-8" standalone="no"?>
<!DOCTYPE svg PUBLIC "-//W3C//DTD SVG 1.1//EN"
  "http://www.w3.org/Graphics/SVG/1.1/DTD/svg11.dtd">
<!-- Created with matplotlib (https://matplotlib.org/) -->
<svg height="504pt" version="1.1" viewBox="0 0 792 504" width="792pt" xmlns="http://www.w3.org/2000/svg" xmlns:xlink="http://www.w3.org/1999/xlink">
 <metadata>
  <rdf:RDF xmlns:cc="http://creativecommons.org/ns#" xmlns:dc="http://purl.org/dc/elements/1.1/" xmlns:rdf="http://www.w3.org/1999/02/22-rdf-syntax-ns#">
   <cc:Work>
    <dc:type rdf:resource="http://purl.org/dc/dcmitype/StillImage"/>
    <dc:date>2021-04-09T08:44:18.520642</dc:date>
    <dc:format>image/svg+xml</dc:format>
    <dc:creator>
     <cc:Agent>
      <dc:title>Matplotlib v3.3.2, https://matplotlib.org/</dc:title>
     </cc:Agent>
    </dc:creator>
   </cc:Work>
  </rdf:RDF>
 </metadata>
 <defs>
  <style type="text/css">*{stroke-linecap:butt;stroke-linejoin:round;}</style>
 </defs>
 <g id="figure_1">
  <g id="patch_1">
   <path d="M 0 504 
L 792 504 
L 792 0 
L 0 0 
z
" style="fill:#f0ffff;"/>
  </g>
  <g id="axes_1">
   <g id="patch_2">
    <path d="M 63.36 333.396 
L 784.08 333.396 
L 784.08 35.28 
L 63.36 35.28 
z
" style="fill:#ffffff;"/>
   </g>
   <g id="matplotlib.axis_1">
    <g id="xtick_1">
     <g id="line2d_1">
      <defs>
       <path d="M 0 0 
L 0 3.5 
" id="mae3ce43ab6" style="stroke:#000000;stroke-width:0.8;"/>
      </defs>
      <g>
       <use style="stroke:#000000;stroke-width:0.8;" x="153.45" xlink:href="#mae3ce43ab6" y="333.396"/>
      </g>
     </g>
     <g id="text_1">
      <!-- Iowa -->
      <g transform="translate(141.7625 347.994438)scale(0.1 -0.1)">
       <defs>
        <path d="M 9.8125 72.90625 
L 19.671875 72.90625 
L 19.671875 0 
L 9.8125 0 
z
" id="DejaVuSans-73"/>
        <path d="M 30.609375 48.390625 
Q 23.390625 48.390625 19.1875 42.75 
Q 14.984375 37.109375 14.984375 27.296875 
Q 14.984375 17.484375 19.15625 11.84375 
Q 23.34375 6.203125 30.609375 6.203125 
Q 37.796875 6.203125 41.984375 11.859375 
Q 46.1875 17.53125 46.1875 27.296875 
Q 46.1875 37.015625 41.984375 42.703125 
Q 37.796875 48.390625 30.609375 48.390625 
z
M 30.609375 56 
Q 42.328125 56 49.015625 48.375 
Q 55.71875 40.765625 55.71875 27.296875 
Q 55.71875 13.875 49.015625 6.21875 
Q 42.328125 -1.421875 30.609375 -1.421875 
Q 18.84375 -1.421875 12.171875 6.21875 
Q 5.515625 13.875 5.515625 27.296875 
Q 5.515625 40.765625 12.171875 48.375 
Q 18.84375 56 30.609375 56 
z
" id="DejaVuSans-111"/>
        <path d="M 4.203125 54.6875 
L 13.1875 54.6875 
L 24.421875 12.015625 
L 35.59375 54.6875 
L 46.1875 54.6875 
L 57.421875 12.015625 
L 68.609375 54.6875 
L 77.59375 54.6875 
L 63.28125 0 
L 52.6875 0 
L 40.921875 44.828125 
L 29.109375 0 
L 18.5 0 
z
" id="DejaVuSans-119"/>
        <path d="M 34.28125 27.484375 
Q 23.390625 27.484375 19.1875 25 
Q 14.984375 22.515625 14.984375 16.5 
Q 14.984375 11.71875 18.140625 8.90625 
Q 21.296875 6.109375 26.703125 6.109375 
Q 34.1875 6.109375 38.703125 11.40625 
Q 43.21875 16.703125 43.21875 25.484375 
L 43.21875 27.484375 
z
M 52.203125 31.203125 
L 52.203125 0 
L 43.21875 0 
L 43.21875 8.296875 
Q 40.140625 3.328125 35.546875 0.953125 
Q 30.953125 -1.421875 24.3125 -1.421875 
Q 15.921875 -1.421875 10.953125 3.296875 
Q 6 8.015625 6 15.921875 
Q 6 25.140625 12.171875 29.828125 
Q 18.359375 34.515625 30.609375 34.515625 
L 43.21875 34.515625 
L 43.21875 35.40625 
Q 43.21875 41.609375 39.140625 45 
Q 35.0625 48.390625 27.6875 48.390625 
Q 23 48.390625 18.546875 47.265625 
Q 14.109375 46.140625 10.015625 43.890625 
L 10.015625 52.203125 
Q 14.9375 54.109375 19.578125 55.046875 
Q 24.21875 56 28.609375 56 
Q 40.484375 56 46.34375 49.84375 
Q 52.203125 43.703125 52.203125 31.203125 
z
" id="DejaVuSans-97"/>
       </defs>
       <use xlink:href="#DejaVuSans-73"/>
       <use x="29.492188" xlink:href="#DejaVuSans-111"/>
       <use x="90.673828" xlink:href="#DejaVuSans-119"/>
       <use x="172.460938" xlink:href="#DejaVuSans-97"/>
      </g>
     </g>
    </g>
    <g id="xtick_2">
     <g id="line2d_2">
      <g>
       <use style="stroke:#000000;stroke-width:0.8;" x="333.63" xlink:href="#mae3ce43ab6" y="333.396"/>
      </g>
     </g>
     <g id="text_2">
      <!-- Chicago -->
      <g transform="translate(313.533906 347.994438)scale(0.1 -0.1)">
       <defs>
        <path d="M 64.40625 67.28125 
L 64.40625 56.890625 
Q 59.421875 61.53125 53.78125 63.8125 
Q 48.140625 66.109375 41.796875 66.109375 
Q 29.296875 66.109375 22.65625 58.46875 
Q 16.015625 50.828125 16.015625 36.375 
Q 16.015625 21.96875 22.65625 14.328125 
Q 29.296875 6.6875 41.796875 6.6875 
Q 48.140625 6.6875 53.78125 8.984375 
Q 59.421875 11.28125 64.40625 15.921875 
L 64.40625 5.609375 
Q 59.234375 2.09375 53.4375 0.328125 
Q 47.65625 -1.421875 41.21875 -1.421875 
Q 24.65625 -1.421875 15.125 8.703125 
Q 5.609375 18.84375 5.609375 36.375 
Q 5.609375 53.953125 15.125 64.078125 
Q 24.65625 74.21875 41.21875 74.21875 
Q 47.75 74.21875 53.53125 72.484375 
Q 59.328125 70.75 64.40625 67.28125 
z
" id="DejaVuSans-67"/>
        <path d="M 54.890625 33.015625 
L 54.890625 0 
L 45.90625 0 
L 45.90625 32.71875 
Q 45.90625 40.484375 42.875 44.328125 
Q 39.84375 48.1875 33.796875 48.1875 
Q 26.515625 48.1875 22.3125 43.546875 
Q 18.109375 38.921875 18.109375 30.90625 
L 18.109375 0 
L 9.078125 0 
L 9.078125 75.984375 
L 18.109375 75.984375 
L 18.109375 46.1875 
Q 21.34375 51.125 25.703125 53.5625 
Q 30.078125 56 35.796875 56 
Q 45.21875 56 50.046875 50.171875 
Q 54.890625 44.34375 54.890625 33.015625 
z
" id="DejaVuSans-104"/>
        <path d="M 9.421875 54.6875 
L 18.40625 54.6875 
L 18.40625 0 
L 9.421875 0 
z
M 9.421875 75.984375 
L 18.40625 75.984375 
L 18.40625 64.59375 
L 9.421875 64.59375 
z
" id="DejaVuSans-105"/>
        <path d="M 48.78125 52.59375 
L 48.78125 44.1875 
Q 44.96875 46.296875 41.140625 47.34375 
Q 37.3125 48.390625 33.40625 48.390625 
Q 24.65625 48.390625 19.8125 42.84375 
Q 14.984375 37.3125 14.984375 27.296875 
Q 14.984375 17.28125 19.8125 11.734375 
Q 24.65625 6.203125 33.40625 6.203125 
Q 37.3125 6.203125 41.140625 7.25 
Q 44.96875 8.296875 48.78125 10.40625 
L 48.78125 2.09375 
Q 45.015625 0.34375 40.984375 -0.53125 
Q 36.96875 -1.421875 32.421875 -1.421875 
Q 20.0625 -1.421875 12.78125 6.34375 
Q 5.515625 14.109375 5.515625 27.296875 
Q 5.515625 40.671875 12.859375 48.328125 
Q 20.21875 56 33.015625 56 
Q 37.15625 56 41.109375 55.140625 
Q 45.0625 54.296875 48.78125 52.59375 
z
" id="DejaVuSans-99"/>
        <path d="M 45.40625 27.984375 
Q 45.40625 37.75 41.375 43.109375 
Q 37.359375 48.484375 30.078125 48.484375 
Q 22.859375 48.484375 18.828125 43.109375 
Q 14.796875 37.75 14.796875 27.984375 
Q 14.796875 18.265625 18.828125 12.890625 
Q 22.859375 7.515625 30.078125 7.515625 
Q 37.359375 7.515625 41.375 12.890625 
Q 45.40625 18.265625 45.40625 27.984375 
z
M 54.390625 6.78125 
Q 54.390625 -7.171875 48.1875 -13.984375 
Q 42 -20.796875 29.203125 -20.796875 
Q 24.46875 -20.796875 20.265625 -20.09375 
Q 16.0625 -19.390625 12.109375 -17.921875 
L 12.109375 -9.1875 
Q 16.0625 -11.328125 19.921875 -12.34375 
Q 23.78125 -13.375 27.78125 -13.375 
Q 36.625 -13.375 41.015625 -8.765625 
Q 45.40625 -4.15625 45.40625 5.171875 
L 45.40625 9.625 
Q 42.625 4.78125 38.28125 2.390625 
Q 33.9375 0 27.875 0 
Q 17.828125 0 11.671875 7.65625 
Q 5.515625 15.328125 5.515625 27.984375 
Q 5.515625 40.671875 11.671875 48.328125 
Q 17.828125 56 27.875 56 
Q 33.9375 56 38.28125 53.609375 
Q 42.625 51.21875 45.40625 46.390625 
L 45.40625 54.6875 
L 54.390625 54.6875 
z
" id="DejaVuSans-103"/>
       </defs>
       <use xlink:href="#DejaVuSans-67"/>
       <use x="69.824219" xlink:href="#DejaVuSans-104"/>
       <use x="133.203125" xlink:href="#DejaVuSans-105"/>
       <use x="160.986328" xlink:href="#DejaVuSans-99"/>
       <use x="215.966797" xlink:href="#DejaVuSans-97"/>
       <use x="277.246094" xlink:href="#DejaVuSans-103"/>
       <use x="340.722656" xlink:href="#DejaVuSans-111"/>
      </g>
     </g>
    </g>
    <g id="xtick_3">
     <g id="line2d_3">
      <g>
       <use style="stroke:#000000;stroke-width:0.8;" x="513.81" xlink:href="#mae3ce43ab6" y="333.396"/>
      </g>
     </g>
     <g id="text_3">
      <!-- Cranford -->
      <g transform="translate(492.068594 347.994438)scale(0.1 -0.1)">
       <defs>
        <path d="M 41.109375 46.296875 
Q 39.59375 47.171875 37.8125 47.578125 
Q 36.03125 48 33.890625 48 
Q 26.265625 48 22.1875 43.046875 
Q 18.109375 38.09375 18.109375 28.8125 
L 18.109375 0 
L 9.078125 0 
L 9.078125 54.6875 
L 18.109375 54.6875 
L 18.109375 46.1875 
Q 20.953125 51.171875 25.484375 53.578125 
Q 30.03125 56 36.53125 56 
Q 37.453125 56 38.578125 55.875 
Q 39.703125 55.765625 41.0625 55.515625 
z
" id="DejaVuSans-114"/>
        <path d="M 54.890625 33.015625 
L 54.890625 0 
L 45.90625 0 
L 45.90625 32.71875 
Q 45.90625 40.484375 42.875 44.328125 
Q 39.84375 48.1875 33.796875 48.1875 
Q 26.515625 48.1875 22.3125 43.546875 
Q 18.109375 38.921875 18.109375 30.90625 
L 18.109375 0 
L 9.078125 0 
L 9.078125 54.6875 
L 18.109375 54.6875 
L 18.109375 46.1875 
Q 21.34375 51.125 25.703125 53.5625 
Q 30.078125 56 35.796875 56 
Q 45.21875 56 50.046875 50.171875 
Q 54.890625 44.34375 54.890625 33.015625 
z
" id="DejaVuSans-110"/>
        <path d="M 37.109375 75.984375 
L 37.109375 68.5 
L 28.515625 68.5 
Q 23.6875 68.5 21.796875 66.546875 
Q 19.921875 64.59375 19.921875 59.515625 
L 19.921875 54.6875 
L 34.71875 54.6875 
L 34.71875 47.703125 
L 19.921875 47.703125 
L 19.921875 0 
L 10.890625 0 
L 10.890625 47.703125 
L 2.296875 47.703125 
L 2.296875 54.6875 
L 10.890625 54.6875 
L 10.890625 58.5 
Q 10.890625 67.625 15.140625 71.796875 
Q 19.390625 75.984375 28.609375 75.984375 
z
" id="DejaVuSans-102"/>
        <path d="M 45.40625 46.390625 
L 45.40625 75.984375 
L 54.390625 75.984375 
L 54.390625 0 
L 45.40625 0 
L 45.40625 8.203125 
Q 42.578125 3.328125 38.25 0.953125 
Q 33.9375 -1.421875 27.875 -1.421875 
Q 17.96875 -1.421875 11.734375 6.484375 
Q 5.515625 14.40625 5.515625 27.296875 
Q 5.515625 40.1875 11.734375 48.09375 
Q 17.96875 56 27.875 56 
Q 33.9375 56 38.25 53.625 
Q 42.578125 51.265625 45.40625 46.390625 
z
M 14.796875 27.296875 
Q 14.796875 17.390625 18.875 11.75 
Q 22.953125 6.109375 30.078125 6.109375 
Q 37.203125 6.109375 41.296875 11.75 
Q 45.40625 17.390625 45.40625 27.296875 
Q 45.40625 37.203125 41.296875 42.84375 
Q 37.203125 48.484375 30.078125 48.484375 
Q 22.953125 48.484375 18.875 42.84375 
Q 14.796875 37.203125 14.796875 27.296875 
z
" id="DejaVuSans-100"/>
       </defs>
       <use xlink:href="#DejaVuSans-67"/>
       <use x="69.824219" xlink:href="#DejaVuSans-114"/>
       <use x="110.9375" xlink:href="#DejaVuSans-97"/>
       <use x="172.216797" xlink:href="#DejaVuSans-110"/>
       <use x="235.595703" xlink:href="#DejaVuSans-102"/>
       <use x="270.800781" xlink:href="#DejaVuSans-111"/>
       <use x="331.982422" xlink:href="#DejaVuSans-114"/>
       <use x="371.345703" xlink:href="#DejaVuSans-100"/>
      </g>
     </g>
    </g>
    <g id="xtick_4">
     <g id="line2d_4">
      <g>
       <use style="stroke:#000000;stroke-width:0.8;" x="693.99" xlink:href="#mae3ce43ab6" y="333.396"/>
      </g>
     </g>
     <g id="text_4">
      <!-- Magnolia -->
      <g transform="translate(671.367344 347.994438)scale(0.1 -0.1)">
       <defs>
        <path d="M 9.8125 72.90625 
L 24.515625 72.90625 
L 43.109375 23.296875 
L 61.8125 72.90625 
L 76.515625 72.90625 
L 76.515625 0 
L 66.890625 0 
L 66.890625 64.015625 
L 48.09375 14.015625 
L 38.1875 14.015625 
L 19.390625 64.015625 
L 19.390625 0 
L 9.8125 0 
z
" id="DejaVuSans-77"/>
        <path d="M 9.421875 75.984375 
L 18.40625 75.984375 
L 18.40625 0 
L 9.421875 0 
z
" id="DejaVuSans-108"/>
       </defs>
       <use xlink:href="#DejaVuSans-77"/>
       <use x="86.279297" xlink:href="#DejaVuSans-97"/>
       <use x="147.558594" xlink:href="#DejaVuSans-103"/>
       <use x="211.035156" xlink:href="#DejaVuSans-110"/>
       <use x="274.414062" xlink:href="#DejaVuSans-111"/>
       <use x="335.595703" xlink:href="#DejaVuSans-108"/>
       <use x="363.378906" xlink:href="#DejaVuSans-105"/>
       <use x="391.162109" xlink:href="#DejaVuSans-97"/>
      </g>
     </g>
    </g>
    <g id="text_5">
     <!-- Cross Streets -->
     <g transform="translate(390.6325 361.672562)scale(0.1 -0.1)">
      <defs>
       <path d="M 44.28125 53.078125 
L 44.28125 44.578125 
Q 40.484375 46.53125 36.375 47.5 
Q 32.28125 48.484375 27.875 48.484375 
Q 21.1875 48.484375 17.84375 46.4375 
Q 14.5 44.390625 14.5 40.28125 
Q 14.5 37.15625 16.890625 35.375 
Q 19.28125 33.59375 26.515625 31.984375 
L 29.59375 31.296875 
Q 39.15625 29.25 43.1875 25.515625 
Q 47.21875 21.78125 47.21875 15.09375 
Q 47.21875 7.46875 41.1875 3.015625 
Q 35.15625 -1.421875 24.609375 -1.421875 
Q 20.21875 -1.421875 15.453125 -0.5625 
Q 10.6875 0.296875 5.421875 2 
L 5.421875 11.28125 
Q 10.40625 8.6875 15.234375 7.390625 
Q 20.0625 6.109375 24.8125 6.109375 
Q 31.15625 6.109375 34.5625 8.28125 
Q 37.984375 10.453125 37.984375 14.40625 
Q 37.984375 18.0625 35.515625 20.015625 
Q 33.0625 21.96875 24.703125 23.78125 
L 21.578125 24.515625 
Q 13.234375 26.265625 9.515625 29.90625 
Q 5.8125 33.546875 5.8125 39.890625 
Q 5.8125 47.609375 11.28125 51.796875 
Q 16.75 56 26.8125 56 
Q 31.78125 56 36.171875 55.265625 
Q 40.578125 54.546875 44.28125 53.078125 
z
" id="DejaVuSans-115"/>
       <path id="DejaVuSans-32"/>
       <path d="M 53.515625 70.515625 
L 53.515625 60.890625 
Q 47.90625 63.578125 42.921875 64.890625 
Q 37.9375 66.21875 33.296875 66.21875 
Q 25.25 66.21875 20.875 63.09375 
Q 16.5 59.96875 16.5 54.203125 
Q 16.5 49.359375 19.40625 46.890625 
Q 22.3125 44.4375 30.421875 42.921875 
L 36.375 41.703125 
Q 47.40625 39.59375 52.65625 34.296875 
Q 57.90625 29 57.90625 20.125 
Q 57.90625 9.515625 50.796875 4.046875 
Q 43.703125 -1.421875 29.984375 -1.421875 
Q 24.8125 -1.421875 18.96875 -0.25 
Q 13.140625 0.921875 6.890625 3.21875 
L 6.890625 13.375 
Q 12.890625 10.015625 18.65625 8.296875 
Q 24.421875 6.59375 29.984375 6.59375 
Q 38.421875 6.59375 43.015625 9.90625 
Q 47.609375 13.234375 47.609375 19.390625 
Q 47.609375 24.75 44.3125 27.78125 
Q 41.015625 30.8125 33.5 32.328125 
L 27.484375 33.5 
Q 16.453125 35.6875 11.515625 40.375 
Q 6.59375 45.0625 6.59375 53.421875 
Q 6.59375 63.09375 13.40625 68.65625 
Q 20.21875 74.21875 32.171875 74.21875 
Q 37.3125 74.21875 42.625 73.28125 
Q 47.953125 72.359375 53.515625 70.515625 
z
" id="DejaVuSans-83"/>
       <path d="M 18.3125 70.21875 
L 18.3125 54.6875 
L 36.8125 54.6875 
L 36.8125 47.703125 
L 18.3125 47.703125 
L 18.3125 18.015625 
Q 18.3125 11.328125 20.140625 9.421875 
Q 21.96875 7.515625 27.59375 7.515625 
L 36.8125 7.515625 
L 36.8125 0 
L 27.59375 0 
Q 17.1875 0 13.234375 3.875 
Q 9.28125 7.765625 9.28125 18.015625 
L 9.28125 47.703125 
L 2.6875 47.703125 
L 2.6875 54.6875 
L 9.28125 54.6875 
L 9.28125 70.21875 
z
" id="DejaVuSans-116"/>
       <path d="M 56.203125 29.59375 
L 56.203125 25.203125 
L 14.890625 25.203125 
Q 15.484375 15.921875 20.484375 11.0625 
Q 25.484375 6.203125 34.421875 6.203125 
Q 39.59375 6.203125 44.453125 7.46875 
Q 49.3125 8.734375 54.109375 11.28125 
L 54.109375 2.78125 
Q 49.265625 0.734375 44.1875 -0.34375 
Q 39.109375 -1.421875 33.890625 -1.421875 
Q 20.796875 -1.421875 13.15625 6.1875 
Q 5.515625 13.8125 5.515625 26.8125 
Q 5.515625 40.234375 12.765625 48.109375 
Q 20.015625 56 32.328125 56 
Q 43.359375 56 49.78125 48.890625 
Q 56.203125 41.796875 56.203125 29.59375 
z
M 47.21875 32.234375 
Q 47.125 39.59375 43.09375 43.984375 
Q 39.0625 48.390625 32.421875 48.390625 
Q 24.90625 48.390625 20.390625 44.140625 
Q 15.875 39.890625 15.1875 32.171875 
z
" id="DejaVuSans-101"/>
      </defs>
      <use xlink:href="#DejaVuSans-67"/>
      <use x="69.824219" xlink:href="#DejaVuSans-114"/>
      <use x="108.6875" xlink:href="#DejaVuSans-111"/>
      <use x="169.869141" xlink:href="#DejaVuSans-115"/>
      <use x="221.96875" xlink:href="#DejaVuSans-115"/>
      <use x="274.068359" xlink:href="#DejaVuSans-32"/>
      <use x="305.855469" xlink:href="#DejaVuSans-83"/>
      <use x="369.332031" xlink:href="#DejaVuSans-116"/>
      <use x="408.541016" xlink:href="#DejaVuSans-114"/>
      <use x="447.404297" xlink:href="#DejaVuSans-101"/>
      <use x="508.927734" xlink:href="#DejaVuSans-101"/>
      <use x="570.451172" xlink:href="#DejaVuSans-116"/>
      <use x="609.660156" xlink:href="#DejaVuSans-115"/>
     </g>
    </g>
   </g>
   <g id="matplotlib.axis_2">
    <g id="ytick_1">
     <g id="line2d_5">
      <path clip-path="url(#p77f063fa66)" d="M 63.36 303.739514 
L 784.08 303.739514 
" style="fill:none;stroke:#808080;stroke-linecap:square;stroke-width:0.8;"/>
     </g>
     <g id="line2d_6">
      <defs>
       <path d="M 0 0 
L -3.5 0 
" id="m0a0ead1a92" style="stroke:#000000;stroke-width:0.8;"/>
      </defs>
      <g>
       <use style="stroke:#000000;stroke-width:0.8;" x="63.36" xlink:href="#m0a0ead1a92" y="303.739514"/>
      </g>
     </g>
     <g id="text_6">
      <!-- 0 -->
      <g transform="translate(49.9975 307.538733)scale(0.1 -0.1)">
       <defs>
        <path d="M 31.78125 66.40625 
Q 24.171875 66.40625 20.328125 58.90625 
Q 16.5 51.421875 16.5 36.375 
Q 16.5 21.390625 20.328125 13.890625 
Q 24.171875 6.390625 31.78125 6.390625 
Q 39.453125 6.390625 43.28125 13.890625 
Q 47.125 21.390625 47.125 36.375 
Q 47.125 51.421875 43.28125 58.90625 
Q 39.453125 66.40625 31.78125 66.40625 
z
M 31.78125 74.21875 
Q 44.046875 74.21875 50.515625 64.515625 
Q 56.984375 54.828125 56.984375 36.375 
Q 56.984375 17.96875 50.515625 8.265625 
Q 44.046875 -1.421875 31.78125 -1.421875 
Q 19.53125 -1.421875 13.0625 8.265625 
Q 6.59375 17.96875 6.59375 36.375 
Q 6.59375 54.828125 13.0625 64.515625 
Q 19.53125 74.21875 31.78125 74.21875 
z
" id="DejaVuSans-48"/>
       </defs>
       <use xlink:href="#DejaVuSans-48"/>
      </g>
     </g>
    </g>
    <g id="ytick_2">
     <g id="line2d_7">
      <path clip-path="url(#p77f063fa66)" d="M 63.36 266.168655 
L 784.08 266.168655 
" style="fill:none;stroke:#808080;stroke-linecap:square;stroke-width:0.8;"/>
     </g>
     <g id="line2d_8">
      <g>
       <use style="stroke:#000000;stroke-width:0.8;" x="63.36" xlink:href="#m0a0ead1a92" y="266.168655"/>
      </g>
     </g>
     <g id="text_7">
      <!-- 25 -->
      <g transform="translate(43.635 269.967874)scale(0.1 -0.1)">
       <defs>
        <path d="M 19.1875 8.296875 
L 53.609375 8.296875 
L 53.609375 0 
L 7.328125 0 
L 7.328125 8.296875 
Q 12.9375 14.109375 22.625 23.890625 
Q 32.328125 33.6875 34.8125 36.53125 
Q 39.546875 41.84375 41.421875 45.53125 
Q 43.3125 49.21875 43.3125 52.78125 
Q 43.3125 58.59375 39.234375 62.25 
Q 35.15625 65.921875 28.609375 65.921875 
Q 23.96875 65.921875 18.8125 64.3125 
Q 13.671875 62.703125 7.8125 59.421875 
L 7.8125 69.390625 
Q 13.765625 71.78125 18.9375 73 
Q 24.125 74.21875 28.421875 74.21875 
Q 39.75 74.21875 46.484375 68.546875 
Q 53.21875 62.890625 53.21875 53.421875 
Q 53.21875 48.921875 51.53125 44.890625 
Q 49.859375 40.875 45.40625 35.40625 
Q 44.1875 33.984375 37.640625 27.21875 
Q 31.109375 20.453125 19.1875 8.296875 
z
" id="DejaVuSans-50"/>
        <path d="M 10.796875 72.90625 
L 49.515625 72.90625 
L 49.515625 64.59375 
L 19.828125 64.59375 
L 19.828125 46.734375 
Q 21.96875 47.46875 24.109375 47.828125 
Q 26.265625 48.1875 28.421875 48.1875 
Q 40.625 48.1875 47.75 41.5 
Q 54.890625 34.8125 54.890625 23.390625 
Q 54.890625 11.625 47.5625 5.09375 
Q 40.234375 -1.421875 26.90625 -1.421875 
Q 22.3125 -1.421875 17.546875 -0.640625 
Q 12.796875 0.140625 7.71875 1.703125 
L 7.71875 11.625 
Q 12.109375 9.234375 16.796875 8.0625 
Q 21.484375 6.890625 26.703125 6.890625 
Q 35.15625 6.890625 40.078125 11.328125 
Q 45.015625 15.765625 45.015625 23.390625 
Q 45.015625 31 40.078125 35.4375 
Q 35.15625 39.890625 26.703125 39.890625 
Q 22.75 39.890625 18.8125 39.015625 
Q 14.890625 38.140625 10.796875 36.28125 
z
" id="DejaVuSans-53"/>
       </defs>
       <use xlink:href="#DejaVuSans-50"/>
       <use x="63.623047" xlink:href="#DejaVuSans-53"/>
      </g>
     </g>
    </g>
    <g id="ytick_3">
     <g id="line2d_9">
      <path clip-path="url(#p77f063fa66)" d="M 63.36 228.597797 
L 784.08 228.597797 
" style="fill:none;stroke:#808080;stroke-linecap:square;stroke-width:0.8;"/>
     </g>
     <g id="line2d_10">
      <g>
       <use style="stroke:#000000;stroke-width:0.8;" x="63.36" xlink:href="#m0a0ead1a92" y="228.597797"/>
      </g>
     </g>
     <g id="text_8">
      <!-- 50 -->
      <g transform="translate(43.635 232.397015)scale(0.1 -0.1)">
       <use xlink:href="#DejaVuSans-53"/>
       <use x="63.623047" xlink:href="#DejaVuSans-48"/>
      </g>
     </g>
    </g>
    <g id="ytick_4">
     <g id="line2d_11">
      <path clip-path="url(#p77f063fa66)" d="M 63.36 191.026938 
L 784.08 191.026938 
" style="fill:none;stroke:#808080;stroke-linecap:square;stroke-width:0.8;"/>
     </g>
     <g id="line2d_12">
      <g>
       <use style="stroke:#000000;stroke-width:0.8;" x="63.36" xlink:href="#m0a0ead1a92" y="191.026938"/>
      </g>
     </g>
     <g id="text_9">
      <!-- 75 -->
      <g transform="translate(43.635 194.826157)scale(0.1 -0.1)">
       <defs>
        <path d="M 8.203125 72.90625 
L 55.078125 72.90625 
L 55.078125 68.703125 
L 28.609375 0 
L 18.3125 0 
L 43.21875 64.59375 
L 8.203125 64.59375 
z
" id="DejaVuSans-55"/>
       </defs>
       <use xlink:href="#DejaVuSans-55"/>
       <use x="63.623047" xlink:href="#DejaVuSans-53"/>
      </g>
     </g>
    </g>
    <g id="ytick_5">
     <g id="line2d_13">
      <path clip-path="url(#p77f063fa66)" d="M 63.36 153.456079 
L 784.08 153.456079 
" style="fill:none;stroke:#808080;stroke-linecap:square;stroke-width:0.8;"/>
     </g>
     <g id="line2d_14">
      <g>
       <use style="stroke:#000000;stroke-width:0.8;" x="63.36" xlink:href="#m0a0ead1a92" y="153.456079"/>
      </g>
     </g>
     <g id="text_10">
      <!-- 100 -->
      <g transform="translate(37.2725 157.255298)scale(0.1 -0.1)">
       <defs>
        <path d="M 12.40625 8.296875 
L 28.515625 8.296875 
L 28.515625 63.921875 
L 10.984375 60.40625 
L 10.984375 69.390625 
L 28.421875 72.90625 
L 38.28125 72.90625 
L 38.28125 8.296875 
L 54.390625 8.296875 
L 54.390625 0 
L 12.40625 0 
z
" id="DejaVuSans-49"/>
       </defs>
       <use xlink:href="#DejaVuSans-49"/>
       <use x="63.623047" xlink:href="#DejaVuSans-48"/>
       <use x="127.246094" xlink:href="#DejaVuSans-48"/>
      </g>
     </g>
    </g>
    <g id="ytick_6">
     <g id="line2d_15">
      <path clip-path="url(#p77f063fa66)" d="M 63.36 115.88522 
L 784.08 115.88522 
" style="fill:none;stroke:#808080;stroke-linecap:square;stroke-width:0.8;"/>
     </g>
     <g id="line2d_16">
      <g>
       <use style="stroke:#000000;stroke-width:0.8;" x="63.36" xlink:href="#m0a0ead1a92" y="115.88522"/>
      </g>
     </g>
     <g id="text_11">
      <!-- 125 -->
      <g transform="translate(37.2725 119.684439)scale(0.1 -0.1)">
       <use xlink:href="#DejaVuSans-49"/>
       <use x="63.623047" xlink:href="#DejaVuSans-50"/>
       <use x="127.246094" xlink:href="#DejaVuSans-53"/>
      </g>
     </g>
    </g>
    <g id="ytick_7">
     <g id="line2d_17">
      <path clip-path="url(#p77f063fa66)" d="M 63.36 78.314362 
L 784.08 78.314362 
" style="fill:none;stroke:#808080;stroke-linecap:square;stroke-width:0.8;"/>
     </g>
     <g id="line2d_18">
      <g>
       <use style="stroke:#000000;stroke-width:0.8;" x="63.36" xlink:href="#m0a0ead1a92" y="78.314362"/>
      </g>
     </g>
     <g id="text_12">
      <!-- 150 -->
      <g transform="translate(37.2725 82.11358)scale(0.1 -0.1)">
       <use xlink:href="#DejaVuSans-49"/>
       <use x="63.623047" xlink:href="#DejaVuSans-53"/>
       <use x="127.246094" xlink:href="#DejaVuSans-48"/>
      </g>
     </g>
    </g>
    <g id="ytick_8">
     <g id="line2d_19">
      <path clip-path="url(#p77f063fa66)" d="M 63.36 40.743503 
L 784.08 40.743503 
" style="fill:none;stroke:#808080;stroke-linecap:square;stroke-width:0.8;"/>
     </g>
     <g id="line2d_20">
      <g>
       <use style="stroke:#000000;stroke-width:0.8;" x="63.36" xlink:href="#m0a0ead1a92" y="40.743503"/>
      </g>
     </g>
     <g id="text_13">
      <!-- 175 -->
      <g transform="translate(37.2725 44.542722)scale(0.1 -0.1)">
       <use xlink:href="#DejaVuSans-49"/>
       <use x="63.623047" xlink:href="#DejaVuSans-55"/>
       <use x="127.246094" xlink:href="#DejaVuSans-53"/>
      </g>
     </g>
    </g>
    <g id="text_14">
     <!-- Particulate Matter (2.5) Mass Concentration -->
     <g transform="translate(31.192812 293.602844)rotate(-90)scale(0.1 -0.1)">
      <defs>
       <path d="M 19.671875 64.796875 
L 19.671875 37.40625 
L 32.078125 37.40625 
Q 38.96875 37.40625 42.71875 40.96875 
Q 46.484375 44.53125 46.484375 51.125 
Q 46.484375 57.671875 42.71875 61.234375 
Q 38.96875 64.796875 32.078125 64.796875 
z
M 9.8125 72.90625 
L 32.078125 72.90625 
Q 44.34375 72.90625 50.609375 67.359375 
Q 56.890625 61.8125 56.890625 51.125 
Q 56.890625 40.328125 50.609375 34.8125 
Q 44.34375 29.296875 32.078125 29.296875 
L 19.671875 29.296875 
L 19.671875 0 
L 9.8125 0 
z
" id="DejaVuSans-80"/>
       <path d="M 8.5 21.578125 
L 8.5 54.6875 
L 17.484375 54.6875 
L 17.484375 21.921875 
Q 17.484375 14.15625 20.5 10.265625 
Q 23.53125 6.390625 29.59375 6.390625 
Q 36.859375 6.390625 41.078125 11.03125 
Q 45.3125 15.671875 45.3125 23.6875 
L 45.3125 54.6875 
L 54.296875 54.6875 
L 54.296875 0 
L 45.3125 0 
L 45.3125 8.40625 
Q 42.046875 3.421875 37.71875 1 
Q 33.40625 -1.421875 27.6875 -1.421875 
Q 18.265625 -1.421875 13.375 4.4375 
Q 8.5 10.296875 8.5 21.578125 
z
M 31.109375 56 
z
" id="DejaVuSans-117"/>
       <path d="M 31 75.875 
Q 24.46875 64.65625 21.28125 53.65625 
Q 18.109375 42.671875 18.109375 31.390625 
Q 18.109375 20.125 21.3125 9.0625 
Q 24.515625 -2 31 -13.1875 
L 23.1875 -13.1875 
Q 15.875 -1.703125 12.234375 9.375 
Q 8.59375 20.453125 8.59375 31.390625 
Q 8.59375 42.28125 12.203125 53.3125 
Q 15.828125 64.359375 23.1875 75.875 
z
" id="DejaVuSans-40"/>
       <path d="M 10.6875 12.40625 
L 21 12.40625 
L 21 0 
L 10.6875 0 
z
" id="DejaVuSans-46"/>
       <path d="M 8.015625 75.875 
L 15.828125 75.875 
Q 23.140625 64.359375 26.78125 53.3125 
Q 30.421875 42.28125 30.421875 31.390625 
Q 30.421875 20.453125 26.78125 9.375 
Q 23.140625 -1.703125 15.828125 -13.1875 
L 8.015625 -13.1875 
Q 14.5 -2 17.703125 9.0625 
Q 20.90625 20.125 20.90625 31.390625 
Q 20.90625 42.671875 17.703125 53.65625 
Q 14.5 64.65625 8.015625 75.875 
z
" id="DejaVuSans-41"/>
      </defs>
      <use xlink:href="#DejaVuSans-80"/>
      <use x="55.802734" xlink:href="#DejaVuSans-97"/>
      <use x="117.082031" xlink:href="#DejaVuSans-114"/>
      <use x="158.195312" xlink:href="#DejaVuSans-116"/>
      <use x="197.404297" xlink:href="#DejaVuSans-105"/>
      <use x="225.1875" xlink:href="#DejaVuSans-99"/>
      <use x="280.167969" xlink:href="#DejaVuSans-117"/>
      <use x="343.546875" xlink:href="#DejaVuSans-108"/>
      <use x="371.330078" xlink:href="#DejaVuSans-97"/>
      <use x="432.609375" xlink:href="#DejaVuSans-116"/>
      <use x="471.818359" xlink:href="#DejaVuSans-101"/>
      <use x="533.341797" xlink:href="#DejaVuSans-32"/>
      <use x="565.128906" xlink:href="#DejaVuSans-77"/>
      <use x="651.408203" xlink:href="#DejaVuSans-97"/>
      <use x="712.6875" xlink:href="#DejaVuSans-116"/>
      <use x="751.896484" xlink:href="#DejaVuSans-116"/>
      <use x="791.105469" xlink:href="#DejaVuSans-101"/>
      <use x="852.628906" xlink:href="#DejaVuSans-114"/>
      <use x="893.742188" xlink:href="#DejaVuSans-32"/>
      <use x="925.529297" xlink:href="#DejaVuSans-40"/>
      <use x="964.542969" xlink:href="#DejaVuSans-50"/>
      <use x="1028.166016" xlink:href="#DejaVuSans-46"/>
      <use x="1059.953125" xlink:href="#DejaVuSans-53"/>
      <use x="1123.576172" xlink:href="#DejaVuSans-41"/>
      <use x="1162.589844" xlink:href="#DejaVuSans-32"/>
      <use x="1194.376953" xlink:href="#DejaVuSans-77"/>
      <use x="1280.65625" xlink:href="#DejaVuSans-97"/>
      <use x="1341.935547" xlink:href="#DejaVuSans-115"/>
      <use x="1394.035156" xlink:href="#DejaVuSans-115"/>
      <use x="1446.134766" xlink:href="#DejaVuSans-32"/>
      <use x="1477.921875" xlink:href="#DejaVuSans-67"/>
      <use x="1547.746094" xlink:href="#DejaVuSans-111"/>
      <use x="1608.927734" xlink:href="#DejaVuSans-110"/>
      <use x="1672.306641" xlink:href="#DejaVuSans-99"/>
      <use x="1727.287109" xlink:href="#DejaVuSans-101"/>
      <use x="1788.810547" xlink:href="#DejaVuSans-110"/>
      <use x="1852.189453" xlink:href="#DejaVuSans-116"/>
      <use x="1891.398438" xlink:href="#DejaVuSans-114"/>
      <use x="1932.511719" xlink:href="#DejaVuSans-97"/>
      <use x="1993.791016" xlink:href="#DejaVuSans-116"/>
      <use x="2033" xlink:href="#DejaVuSans-105"/>
      <use x="2060.783203" xlink:href="#DejaVuSans-111"/>
      <use x="2121.964844" xlink:href="#DejaVuSans-110"/>
     </g>
    </g>
   </g>
   <g id="PolyCollection_1">
    <defs>
     <path d="M 154.299443 -189.181361 
L 152.600557 -189.181361 
L 151.215999 -191.868108 
L 148.689043 -194.554854 
L 145.118045 -197.241601 
L 141.193962 -199.928348 
L 137.695223 -202.615094 
L 134.746622 -205.301841 
L 131.818512 -207.988587 
L 128.627126 -210.675334 
L 125.870195 -213.36208 
L 124.855407 -216.048827 
L 126.393848 -218.735574 
L 130.121975 -221.42232 
L 134.832363 -224.109067 
L 139.318899 -226.795813 
L 142.926953 -229.48256 
L 145.545758 -232.169307 
L 147.337336 -234.856053 
L 148.525344 -237.5428 
L 149.312933 -240.229546 
L 149.858864 -242.916293 
L 150.26376 -245.603039 
L 150.57143 -248.289786 
L 150.797842 -250.976533 
L 150.964051 -253.663279 
L 151.094311 -256.350026 
L 151.188973 -259.036772 
L 151.224377 -261.723519 
L 151.194243 -264.410265 
L 151.141611 -267.097012 
L 151.136483 -269.783759 
L 151.22383 -272.470505 
L 151.40023 -275.157252 
L 151.634071 -277.843998 
L 151.892989 -280.530745 
L 152.150076 -283.217492 
L 152.378801 -285.904238 
L 152.556006 -288.590985 
L 152.672808 -291.277731 
L 152.739968 -293.964478 
L 152.779993 -296.651224 
L 152.813323 -299.337971 
L 152.852728 -302.024718 
L 152.907407 -304.711464 
L 152.983868 -307.398211 
L 153.079371 -310.084957 
L 153.179968 -312.771704 
L 153.269192 -315.458451 
L 153.336988 -318.145197 
L 153.380145 -320.831944 
L 153.398922 -323.51869 
L 153.397125 -326.205437 
L 153.384301 -328.892183 
L 153.373879 -331.57893 
L 153.375649 -334.265677 
L 153.388815 -336.952423 
L 153.402865 -339.63917 
L 153.40579 -342.325916 
L 153.392765 -345.012663 
L 153.369643 -347.699409 
L 153.349526 -350.386156 
L 153.344292 -353.072903 
L 153.357103 -355.759649 
L 153.381707 -358.446396 
L 153.407964 -361.133142 
L 153.42803 -363.819889 
L 153.438774 -366.506636 
L 153.440273 -369.193382 
L 153.433442 -371.880129 
L 153.419742 -374.566875 
L 153.402549 -377.253622 
L 153.387101 -379.940368 
L 153.377685 -382.627115 
L 153.374448 -385.313862 
L 153.373246 -388.000608 
L 153.369723 -390.687355 
L 153.364539 -393.374101 
L 153.363455 -396.060848 
L 153.370544 -398.747595 
L 153.382656 -401.434341 
L 153.39302 -404.121088 
L 153.399309 -406.807834 
L 153.405304 -409.494581 
L 153.414846 -412.181327 
L 153.427007 -414.868074 
L 153.437883 -417.554821 
L 153.444914 -420.241567 
L 153.448284 -422.928314 
L 153.449404 -425.61506 
L 153.449228 -428.301807 
L 153.447578 -430.988554 
L 153.44326 -433.6753 
L 153.435091 -436.362047 
L 153.423925 -439.048793 
L 153.413955 -441.73554 
L 153.410619 -444.422286 
L 153.415992 -447.109033 
L 153.426788 -449.79578 
L 153.437478 -452.482526 
L 153.444661 -455.169273 
L 153.455339 -455.169273 
L 153.455339 -455.169273 
L 153.462522 -452.482526 
L 153.473212 -449.79578 
L 153.484008 -447.109033 
L 153.489381 -444.422286 
L 153.486045 -441.73554 
L 153.476075 -439.048793 
L 153.464909 -436.362047 
L 153.45674 -433.6753 
L 153.452422 -430.988554 
L 153.450772 -428.301807 
L 153.450596 -425.61506 
L 153.451716 -422.928314 
L 153.455086 -420.241567 
L 153.462117 -417.554821 
L 153.472993 -414.868074 
L 153.485154 -412.181327 
L 153.494696 -409.494581 
L 153.500691 -406.807834 
L 153.50698 -404.121088 
L 153.517344 -401.434341 
L 153.529456 -398.747595 
L 153.536545 -396.060848 
L 153.535461 -393.374101 
L 153.530277 -390.687355 
L 153.526754 -388.000608 
L 153.525552 -385.313862 
L 153.522315 -382.627115 
L 153.512899 -379.940368 
L 153.497451 -377.253622 
L 153.480258 -374.566875 
L 153.466558 -371.880129 
L 153.459727 -369.193382 
L 153.461226 -366.506636 
L 153.47197 -363.819889 
L 153.492036 -361.133142 
L 153.518293 -358.446396 
L 153.542897 -355.759649 
L 153.555708 -353.072903 
L 153.550474 -350.386156 
L 153.530357 -347.699409 
L 153.507235 -345.012663 
L 153.49421 -342.325916 
L 153.497135 -339.63917 
L 153.511185 -336.952423 
L 153.524351 -334.265677 
L 153.526121 -331.57893 
L 153.515699 -328.892183 
L 153.502875 -326.205437 
L 153.501078 -323.51869 
L 153.519855 -320.831944 
L 153.563012 -318.145197 
L 153.630808 -315.458451 
L 153.720032 -312.771704 
L 153.820629 -310.084957 
L 153.916132 -307.398211 
L 153.992593 -304.711464 
L 154.047272 -302.024718 
L 154.086677 -299.337971 
L 154.120007 -296.651224 
L 154.160032 -293.964478 
L 154.227192 -291.277731 
L 154.343994 -288.590985 
L 154.521199 -285.904238 
L 154.749924 -283.217492 
L 155.007011 -280.530745 
L 155.265929 -277.843998 
L 155.49977 -275.157252 
L 155.67617 -272.470505 
L 155.763517 -269.783759 
L 155.758389 -267.097012 
L 155.705757 -264.410265 
L 155.675623 -261.723519 
L 155.711027 -259.036772 
L 155.805689 -256.350026 
L 155.935949 -253.663279 
L 156.102158 -250.976533 
L 156.32857 -248.289786 
L 156.63624 -245.603039 
L 157.041136 -242.916293 
L 157.587067 -240.229546 
L 158.374656 -237.5428 
L 159.562664 -234.856053 
L 161.354242 -232.169307 
L 163.973047 -229.48256 
L 167.581101 -226.795813 
L 172.067637 -224.109067 
L 176.778025 -221.42232 
L 180.506152 -218.735574 
L 182.044593 -216.048827 
L 181.029805 -213.36208 
L 178.272874 -210.675334 
L 175.081488 -207.988587 
L 172.153378 -205.301841 
L 169.204777 -202.615094 
L 165.706038 -199.928348 
L 161.781955 -197.241601 
L 158.210957 -194.554854 
L 155.684001 -191.868108 
L 154.299443 -189.181361 
z
" id="md6303a6d90" style="stroke:#3d3d3d;stroke-width:1.5;"/>
    </defs>
    <g clip-path="url(#p77f063fa66)">
     <use style="fill:#3274a1;stroke:#3d3d3d;stroke-width:1.5;" x="0" xlink:href="#md6303a6d90" y="504"/>
    </g>
   </g>
   <g id="PolyCollection_2">
    <defs>
     <path d="M 334.360549 -190.700109 
L 332.899451 -190.700109 
L 331.83053 -193.069362 
L 329.9078 -195.438615 
L 327.104861 -197.807868 
L 323.779143 -200.177121 
L 320.472284 -202.546374 
L 317.442632 -204.915627 
L 314.43035 -207.284879 
L 311.030428 -209.654132 
L 307.365097 -212.023385 
L 304.335204 -214.392638 
L 303.131225 -216.761891 
L 304.424054 -219.131144 
L 307.927422 -221.500397 
L 312.628508 -223.86965 
L 317.397818 -226.238903 
L 321.474191 -228.608156 
L 324.576298 -230.977409 
L 326.752659 -233.346662 
L 328.194679 -235.715915 
L 329.118802 -238.085168 
L 329.706407 -240.454421 
L 330.079299 -242.823674 
L 330.309971 -245.192927 
L 330.451307 -247.56218 
L 330.553196 -249.931433 
L 330.654038 -252.300685 
L 330.765594 -254.669938 
L 330.871609 -257.039191 
L 330.943915 -259.408444 
L 330.966216 -261.777697 
L 330.948319 -264.14695 
L 330.918463 -266.516203 
L 330.903647 -268.885456 
L 330.921968 -271.254709 
L 330.991731 -273.623962 
L 331.135779 -275.993215 
L 331.366985 -278.362468 
L 331.669927 -280.731721 
L 332.001104 -283.100974 
L 332.309307 -285.470227 
L 332.558159 -287.83948 
L 332.734928 -290.208733 
L 332.846714 -292.577986 
L 332.914929 -294.947238 
L 332.970161 -297.316491 
L 333.0403 -299.685744 
L 333.134645 -302.054997 
L 333.239791 -304.42425 
L 333.333376 -306.793503 
L 333.401429 -309.162756 
L 333.443915 -311.532009 
L 333.469114 -313.901262 
L 333.486032 -316.270515 
L 333.500034 -318.639768 
L 333.512297 -321.009021 
L 333.522484 -323.378274 
L 333.531916 -325.747527 
L 333.543475 -328.11678 
L 333.558257 -330.486033 
L 333.573231 -332.855286 
L 333.583043 -335.224539 
L 333.584211 -337.593792 
L 333.577497 -339.963044 
L 333.566461 -342.332297 
L 333.554469 -344.70155 
L 333.543512 -347.070803 
L 333.535059 -349.440056 
L 333.53021 -351.809309 
L 333.528483 -354.178562 
L 333.52805 -356.547815 
L 333.528626 -358.917068 
L 333.533265 -361.286321 
L 333.545607 -363.655574 
L 333.565244 -366.024827 
L 333.586753 -368.39408 
L 333.603224 -370.763333 
L 333.610085 -373.132586 
L 333.606263 -375.501839 
L 333.593695 -377.871092 
L 333.576925 -380.240345 
L 333.562359 -382.609598 
L 333.556022 -384.97885 
L 333.560471 -387.348103 
L 333.57313 -389.717356 
L 333.587592 -392.086609 
L 333.597209 -394.455862 
L 333.598735 -396.825115 
L 333.593817 -399.194368 
L 333.587331 -401.563621 
L 333.58352 -403.932874 
L 333.582972 -406.302127 
L 333.583346 -408.67138 
L 333.583085 -411.040633 
L 333.583743 -413.409886 
L 333.588208 -415.779139 
L 333.597199 -418.148392 
L 333.608272 -420.517645 
L 333.61801 -422.886898 
L 333.624519 -425.256151 
L 333.635481 -425.256151 
L 333.635481 -425.256151 
L 333.64199 -422.886898 
L 333.651728 -420.517645 
L 333.662801 -418.148392 
L 333.671792 -415.779139 
L 333.676257 -413.409886 
L 333.676915 -411.040633 
L 333.676654 -408.67138 
L 333.677028 -406.302127 
L 333.67648 -403.932874 
L 333.672669 -401.563621 
L 333.666183 -399.194368 
L 333.661265 -396.825115 
L 333.662791 -394.455862 
L 333.672408 -392.086609 
L 333.68687 -389.717356 
L 333.699529 -387.348103 
L 333.703978 -384.97885 
L 333.697641 -382.609598 
L 333.683075 -380.240345 
L 333.666305 -377.871092 
L 333.653737 -375.501839 
L 333.649915 -373.132586 
L 333.656776 -370.763333 
L 333.673247 -368.39408 
L 333.694756 -366.024827 
L 333.714393 -363.655574 
L 333.726735 -361.286321 
L 333.731374 -358.917068 
L 333.73195 -356.547815 
L 333.731517 -354.178562 
L 333.72979 -351.809309 
L 333.724941 -349.440056 
L 333.716488 -347.070803 
L 333.705531 -344.70155 
L 333.693539 -342.332297 
L 333.682503 -339.963044 
L 333.675789 -337.593792 
L 333.676957 -335.224539 
L 333.686769 -332.855286 
L 333.701743 -330.486033 
L 333.716525 -328.11678 
L 333.728084 -325.747527 
L 333.737516 -323.378274 
L 333.747703 -321.009021 
L 333.759966 -318.639768 
L 333.773968 -316.270515 
L 333.790886 -313.901262 
L 333.816085 -311.532009 
L 333.858571 -309.162756 
L 333.926624 -306.793503 
L 334.020209 -304.42425 
L 334.125355 -302.054997 
L 334.2197 -299.685744 
L 334.289839 -297.316491 
L 334.345071 -294.947238 
L 334.413286 -292.577986 
L 334.525072 -290.208733 
L 334.701841 -287.83948 
L 334.950693 -285.470227 
L 335.258896 -283.100974 
L 335.590073 -280.731721 
L 335.893015 -278.362468 
L 336.124221 -275.993215 
L 336.268269 -273.623962 
L 336.338032 -271.254709 
L 336.356353 -268.885456 
L 336.341537 -266.516203 
L 336.311681 -264.14695 
L 336.293784 -261.777697 
L 336.316085 -259.408444 
L 336.388391 -257.039191 
L 336.494406 -254.669938 
L 336.605962 -252.300685 
L 336.706804 -249.931433 
L 336.808693 -247.56218 
L 336.950029 -245.192927 
L 337.180701 -242.823674 
L 337.553593 -240.454421 
L 338.141198 -238.085168 
L 339.065321 -235.715915 
L 340.507341 -233.346662 
L 342.683702 -230.977409 
L 345.785809 -228.608156 
L 349.862182 -226.238903 
L 354.631492 -223.86965 
L 359.332578 -221.500397 
L 362.835946 -219.131144 
L 364.128775 -216.761891 
L 362.924796 -214.392638 
L 359.894903 -212.023385 
L 356.229572 -209.654132 
L 352.82965 -207.284879 
L 349.817368 -204.915627 
L 346.787716 -202.546374 
L 343.480857 -200.177121 
L 340.155139 -197.807868 
L 337.3522 -195.438615 
L 335.42947 -193.069362 
L 334.360549 -190.700109 
z
" id="m8eaa0ff7e4" style="stroke:#3d3d3d;stroke-width:1.5;"/>
    </defs>
    <g clip-path="url(#p77f063fa66)">
     <use style="fill:#e1812c;stroke:#3d3d3d;stroke-width:1.5;" x="0" xlink:href="#m8eaa0ff7e4" y="504"/>
    </g>
   </g>
   <g id="PolyCollection_3">
    <defs>
     <path d="M 515.163441 -184.154727 
L 512.456559 -184.154727 
L 511.229838 -186.740053 
L 509.341006 -189.325378 
L 506.763452 -191.910703 
L 503.668796 -194.496029 
L 500.441116 -197.081354 
L 497.588742 -199.66668 
L 495.576824 -202.252005 
L 494.662542 -204.83733 
L 494.822078 -207.422656 
L 495.802471 -210.007981 
L 497.254886 -212.593306 
L 498.867099 -215.178632 
L 500.433887 -217.763957 
L 501.856734 -220.349282 
L 503.104815 -222.934608 
L 504.175649 -225.519933 
L 505.075096 -228.105259 
L 505.814485 -230.690584 
L 506.412751 -233.275909 
L 506.894752 -235.861235 
L 507.285352 -238.44656 
L 507.604228 -241.031885 
L 507.86544 -243.617211 
L 508.081012 -246.202536 
L 508.264127 -248.787862 
L 508.42815 -251.373187 
L 508.581981 -253.958512 
L 508.726357 -256.543838 
L 508.855966 -259.129163 
L 508.967972 -261.714488 
L 509.07197 -264.299814 
L 509.193946 -266.885139 
L 509.369673 -269.470465 
L 509.629377 -272.05579 
L 509.981472 -274.641115 
L 510.404786 -277.226441 
L 510.854718 -279.811766 
L 511.281046 -282.397091 
L 511.648127 -284.982417 
L 511.946653 -287.567742 
L 512.191221 -290.153068 
L 512.406586 -292.738393 
L 512.61163 -295.323718 
L 512.810204 -297.909044 
L 512.992533 -300.494369 
L 513.14424 -303.079694 
L 513.256407 -305.66502 
L 513.33093 -308.250345 
L 513.37927 -310.83567 
L 513.416617 -313.420996 
L 513.455348 -316.006321 
L 513.501059 -318.591647 
L 513.552363 -321.176972 
L 513.603625 -323.762297 
L 513.648723 -326.347623 
L 513.683899 -328.932948 
L 513.708629 -331.518273 
L 513.72457 -334.103599 
L 513.733685 -336.688924 
L 513.736934 -339.27425 
L 513.734372 -341.859575 
L 513.726354 -344.4449 
L 513.714765 -347.030226 
L 513.703098 -349.615551 
L 513.695093 -352.200876 
L 513.692778 -354.786202 
L 513.695305 -357.371527 
L 513.699516 -359.956853 
L 513.701958 -362.542178 
L 513.701002 -365.127503 
L 513.697665 -367.712829 
L 513.694614 -370.298154 
L 513.694113 -372.883479 
L 513.696314 -375.468805 
L 513.699015 -378.05413 
L 513.698994 -380.639456 
L 513.694065 -383.224781 
L 513.684602 -385.810106 
L 513.673694 -388.395432 
L 513.665931 -390.980757 
L 513.665481 -393.566082 
L 513.6744 -396.151408 
L 513.691883 -398.736733 
L 513.714652 -401.322058 
L 513.738184 -403.907384 
L 513.758175 -406.492709 
L 513.77165 -409.078035 
L 513.777498 -411.66336 
L 513.776471 -414.248685 
L 513.770839 -416.834011 
L 513.76379 -419.419336 
L 513.758574 -422.004661 
L 513.757553 -424.589987 
L 513.761488 -427.175312 
L 513.769448 -429.760638 
L 513.779403 -432.345963 
L 513.78917 -434.931288 
L 513.797207 -437.516614 
L 513.802913 -440.101939 
L 513.817087 -440.101939 
L 513.817087 -440.101939 
L 513.822793 -437.516614 
L 513.83083 -434.931288 
L 513.840597 -432.345963 
L 513.850552 -429.760638 
L 513.858512 -427.175312 
L 513.862447 -424.589987 
L 513.861426 -422.004661 
L 513.85621 -419.419336 
L 513.849161 -416.834011 
L 513.843529 -414.248685 
L 513.842502 -411.66336 
L 513.84835 -409.078035 
L 513.861825 -406.492709 
L 513.881816 -403.907384 
L 513.905348 -401.322058 
L 513.928117 -398.736733 
L 513.9456 -396.151408 
L 513.954519 -393.566082 
L 513.954069 -390.980757 
L 513.946306 -388.395432 
L 513.935398 -385.810106 
L 513.925935 -383.224781 
L 513.921006 -380.639456 
L 513.920985 -378.05413 
L 513.923686 -375.468805 
L 513.925887 -372.883479 
L 513.925386 -370.298154 
L 513.922335 -367.712829 
L 513.918998 -365.127503 
L 513.918042 -362.542178 
L 513.920484 -359.956853 
L 513.924695 -357.371527 
L 513.927222 -354.786202 
L 513.924907 -352.200876 
L 513.916902 -349.615551 
L 513.905235 -347.030226 
L 513.893646 -344.4449 
L 513.885628 -341.859575 
L 513.883066 -339.27425 
L 513.886315 -336.688924 
L 513.89543 -334.103599 
L 513.911371 -331.518273 
L 513.936101 -328.932948 
L 513.971277 -326.347623 
L 514.016375 -323.762297 
L 514.067637 -321.176972 
L 514.118941 -318.591647 
L 514.164652 -316.006321 
L 514.203383 -313.420996 
L 514.24073 -310.83567 
L 514.28907 -308.250345 
L 514.363593 -305.66502 
L 514.47576 -303.079694 
L 514.627467 -300.494369 
L 514.809796 -297.909044 
L 515.00837 -295.323718 
L 515.213414 -292.738393 
L 515.428779 -290.153068 
L 515.673347 -287.567742 
L 515.971873 -284.982417 
L 516.338954 -282.397091 
L 516.765282 -279.811766 
L 517.215214 -277.226441 
L 517.638528 -274.641115 
L 517.990623 -272.05579 
L 518.250327 -269.470465 
L 518.426054 -266.885139 
L 518.54803 -264.299814 
L 518.652028 -261.714488 
L 518.764034 -259.129163 
L 518.893643 -256.543838 
L 519.038019 -253.958512 
L 519.19185 -251.373187 
L 519.355873 -248.787862 
L 519.538988 -246.202536 
L 519.75456 -243.617211 
L 520.015772 -241.031885 
L 520.334648 -238.44656 
L 520.725248 -235.861235 
L 521.207249 -233.275909 
L 521.805515 -230.690584 
L 522.544904 -228.105259 
L 523.444351 -225.519933 
L 524.515185 -222.934608 
L 525.763266 -220.349282 
L 527.186113 -217.763957 
L 528.752901 -215.178632 
L 530.365114 -212.593306 
L 531.817529 -210.007981 
L 532.797922 -207.422656 
L 532.957458 -204.83733 
L 532.043176 -202.252005 
L 530.031258 -199.66668 
L 527.178884 -197.081354 
L 523.951204 -194.496029 
L 520.856548 -191.910703 
L 518.278994 -189.325378 
L 516.390162 -186.740053 
L 515.163441 -184.154727 
z
" id="mc2b2756b7c" style="stroke:#3d3d3d;stroke-width:1.5;"/>
    </defs>
    <g clip-path="url(#p77f063fa66)">
     <use style="fill:#3a923a;stroke:#3d3d3d;stroke-width:1.5;" x="0" xlink:href="#mc2b2756b7c" y="504"/>
    </g>
   </g>
   <g id="PolyCollection_4">
    <defs>
     <path d="M 694.157892 -203.340081 
L 693.822108 -203.340081 
L 693.680042 -203.821772 
L 693.460306 -204.303462 
L 693.149068 -204.785153 
L 692.742965 -205.266843 
L 692.248456 -205.748534 
L 691.672161 -206.230225 
L 691.002785 -206.711915 
L 690.191079 -207.193606 
L 689.138158 -207.675296 
L 687.701351 -208.156987 
L 685.720268 -208.638677 
L 683.056859 -209.120368 
L 679.635909 -209.602058 
L 675.46995 -210.083749 
L 670.657015 -210.565439 
L 665.350963 -211.04713 
L 659.718754 -211.528821 
L 653.908674 -212.010511 
L 648.049257 -212.492202 
L 642.279136 -212.973892 
L 636.784752 -213.455583 
L 631.813582 -213.937273 
L 627.644653 -214.418964 
L 624.526079 -214.900654 
L 622.610362 -215.382345 
L 621.918 -215.864035 
L 622.34257 -216.345726 
L 623.691024 -216.827417 
L 625.742163 -217.309107 
L 628.303543 -217.790798 
L 631.247766 -218.272488 
L 634.513767 -218.754179 
L 638.071667 -219.235869 
L 641.869273 -219.71756 
L 645.792162 -220.19925 
L 649.66405 -220.680941 
L 653.289342 -221.162631 
L 656.512286 -221.644322 
L 659.25807 -222.126013 
L 661.537399 -222.607703 
L 663.423162 -223.089394 
L 665.023026 -223.571084 
L 666.464179 -224.052775 
L 667.886174 -224.534465 
L 669.425646 -225.016156 
L 671.184071 -225.497846 
L 673.189246 -225.979537 
L 675.374217 -226.461227 
L 677.591877 -226.942918 
L 679.66333 -227.424609 
L 681.438597 -227.906299 
L 682.842407 -228.38799 
L 683.887386 -228.86968 
L 684.653727 -229.351371 
L 685.248461 -229.833061 
L 685.763149 -230.314752 
L 686.246386 -230.796442 
L 686.699611 -231.278133 
L 687.094882 -231.759823 
L 687.404481 -232.241514 
L 687.627683 -232.723205 
L 687.801792 -233.204895 
L 687.99231 -233.686586 
L 688.267452 -234.168276 
L 688.669819 -234.649967 
L 689.198738 -235.131657 
L 689.810671 -235.613348 
L 690.435933 -236.095038 
L 691.003086 -236.576729 
L 691.460535 -237.058419 
L 691.787912 -237.54011 
L 691.995251 -238.021801 
L 692.113037 -238.503491 
L 692.178921 -238.985182 
L 692.226665 -239.466872 
L 692.280113 -239.948563 
L 692.35186 -240.430253 
L 692.444591 -240.911944 
L 692.553484 -241.393634 
L 692.669313 -241.875325 
L 692.782234 -242.357015 
L 692.885396 -242.838706 
L 692.976745 -243.320397 
L 693.058104 -243.802087 
L 693.132418 -244.283778 
L 693.201306 -244.765468 
L 693.2646 -245.247159 
L 693.321766 -245.728849 
L 693.373781 -246.21054 
L 693.423905 -246.69223 
L 693.476796 -247.173921 
L 693.536464 -247.655611 
L 693.604236 -248.137302 
L 693.677804 -248.618992 
L 693.751876 -249.100683 
L 693.82009 -249.582374 
L 693.87722 -250.064064 
L 693.920651 -250.545755 
L 693.950617 -251.027445 
L 694.029383 -251.027445 
L 694.029383 -251.027445 
L 694.059349 -250.545755 
L 694.10278 -250.064064 
L 694.15991 -249.582374 
L 694.228124 -249.100683 
L 694.302196 -248.618992 
L 694.375764 -248.137302 
L 694.443536 -247.655611 
L 694.503204 -247.173921 
L 694.556095 -246.69223 
L 694.606219 -246.21054 
L 694.658234 -245.728849 
L 694.7154 -245.247159 
L 694.778694 -244.765468 
L 694.847582 -244.283778 
L 694.921896 -243.802087 
L 695.003255 -243.320397 
L 695.094604 -242.838706 
L 695.197766 -242.357015 
L 695.310687 -241.875325 
L 695.426516 -241.393634 
L 695.535409 -240.911944 
L 695.62814 -240.430253 
L 695.699887 -239.948563 
L 695.753335 -239.466872 
L 695.801079 -238.985182 
L 695.866963 -238.503491 
L 695.984749 -238.021801 
L 696.192088 -237.54011 
L 696.519465 -237.058419 
L 696.976914 -236.576729 
L 697.544067 -236.095038 
L 698.169329 -235.613348 
L 698.781262 -235.131657 
L 699.310181 -234.649967 
L 699.712548 -234.168276 
L 699.98769 -233.686586 
L 700.178208 -233.204895 
L 700.352317 -232.723205 
L 700.575519 -232.241514 
L 700.885118 -231.759823 
L 701.280389 -231.278133 
L 701.733614 -230.796442 
L 702.216851 -230.314752 
L 702.731539 -229.833061 
L 703.326273 -229.351371 
L 704.092614 -228.86968 
L 705.137593 -228.38799 
L 706.541403 -227.906299 
L 708.31667 -227.424609 
L 710.388123 -226.942918 
L 712.605783 -226.461227 
L 714.790754 -225.979537 
L 716.795929 -225.497846 
L 718.554354 -225.016156 
L 720.093826 -224.534465 
L 721.515821 -224.052775 
L 722.956974 -223.571084 
L 724.556838 -223.089394 
L 726.442601 -222.607703 
L 728.72193 -222.126013 
L 731.467714 -221.644322 
L 734.690658 -221.162631 
L 738.31595 -220.680941 
L 742.187838 -220.19925 
L 746.110727 -219.71756 
L 749.908333 -219.235869 
L 753.466233 -218.754179 
L 756.732234 -218.272488 
L 759.676457 -217.790798 
L 762.237837 -217.309107 
L 764.288976 -216.827417 
L 765.63743 -216.345726 
L 766.062 -215.864035 
L 765.369638 -215.382345 
L 763.453921 -214.900654 
L 760.335347 -214.418964 
L 756.166418 -213.937273 
L 751.195248 -213.455583 
L 745.700864 -212.973892 
L 739.930743 -212.492202 
L 734.071326 -212.010511 
L 728.261246 -211.528821 
L 722.629037 -211.04713 
L 717.322985 -210.565439 
L 712.51005 -210.083749 
L 708.344091 -209.602058 
L 704.923141 -209.120368 
L 702.259732 -208.638677 
L 700.278649 -208.156987 
L 698.841842 -207.675296 
L 697.788921 -207.193606 
L 696.977215 -206.711915 
L 696.307839 -206.230225 
L 695.731544 -205.748534 
L 695.237035 -205.266843 
L 694.830932 -204.785153 
L 694.519694 -204.303462 
L 694.299958 -203.821772 
L 694.157892 -203.340081 
z
" id="m629ab38cf7" style="stroke:#3d3d3d;stroke-width:1.5;"/>
    </defs>
    <g clip-path="url(#p77f063fa66)">
     <use style="fill:#c03d3e;stroke:#3d3d3d;stroke-width:1.5;" x="0" xlink:href="#m629ab38cf7" y="504"/>
    </g>
   </g>
   <g id="line2d_21">
    <path clip-path="url(#p77f063fa66)" d="M 153.45 303.739514 
L 153.45 254.401049 
" style="fill:none;stroke:#3d3d3d;stroke-linecap:square;stroke-width:1.5;"/>
   </g>
   <g id="line2d_22">
    <path clip-path="url(#p77f063fa66)" d="M 153.45 293.535269 
L 153.45 277.841436 
" style="fill:none;stroke:#3d3d3d;stroke-linecap:square;stroke-width:4.5;"/>
   </g>
   <g id="line2d_23">
    <path clip-path="url(#p77f063fa66)" d="M 333.63 302.483411 
L 333.63 255.745133 
" style="fill:none;stroke:#3d3d3d;stroke-linecap:square;stroke-width:1.5;"/>
   </g>
   <g id="line2d_24">
    <path clip-path="url(#p77f063fa66)" d="M 333.63 291.311074 
L 333.63 277.077695 
" style="fill:none;stroke:#3d3d3d;stroke-linecap:square;stroke-width:4.5;"/>
   </g>
   <g id="line2d_25">
    <path clip-path="url(#p77f063fa66)" d="M 513.81 303.739514 
L 513.81 204.060681 
" style="fill:none;stroke:#3d3d3d;stroke-linecap:square;stroke-width:1.5;"/>
   </g>
   <g id="line2d_26">
    <path clip-path="url(#p77f063fa66)" d="M 513.81 300.675693 
L 513.81 259.870119 
" style="fill:none;stroke:#3d3d3d;stroke-linecap:square;stroke-width:4.5;"/>
   </g>
   <g id="line2d_27">
    <path clip-path="url(#p77f063fa66)" d="M 693.99 297.397553 
L 693.99 271.323377 
" style="fill:none;stroke:#3d3d3d;stroke-linecap:square;stroke-width:1.5;"/>
   </g>
   <g id="line2d_28">
    <path clip-path="url(#p77f063fa66)" d="M 693.99 289.402474 
L 693.99 282.106214 
" style="fill:none;stroke:#3d3d3d;stroke-linecap:square;stroke-width:4.5;"/>
   </g>
   <g id="patch_3">
    <path d="M 63.36 333.396 
L 63.36 35.28 
" style="fill:none;stroke:#000000;stroke-linecap:square;stroke-linejoin:miter;stroke-width:0.8;"/>
   </g>
   <g id="patch_4">
    <path d="M 784.08 333.396 
L 784.08 35.28 
" style="fill:none;stroke:#000000;stroke-linecap:square;stroke-linejoin:miter;stroke-width:0.8;"/>
   </g>
   <g id="patch_5">
    <path d="M 63.36 333.396 
L 784.08 333.396 
" style="fill:none;stroke:#000000;stroke-linecap:square;stroke-linejoin:miter;stroke-width:0.8;"/>
   </g>
   <g id="patch_6">
    <path d="M 63.36 35.28 
L 784.08 35.28 
" style="fill:none;stroke:#000000;stroke-linecap:square;stroke-linejoin:miter;stroke-width:0.8;"/>
   </g>
   <g id="PathCollection_1">
    <defs>
     <path d="M 0 1.5 
C 0.397805 1.5 0.77937 1.341951 1.06066 1.06066 
C 1.341951 0.77937 1.5 0.397805 1.5 0 
C 1.5 -0.397805 1.341951 -0.77937 1.06066 -1.06066 
C 0.77937 -1.341951 0.397805 -1.5 0 -1.5 
C -0.397805 -1.5 -0.77937 -1.341951 -1.06066 -1.06066 
C -1.341951 -0.77937 -1.5 -0.397805 -1.5 0 
C -1.5 0.397805 -1.341951 0.77937 -1.06066 1.06066 
C -0.77937 1.341951 -0.397805 1.5 0 1.5 
z
" id="m6842fa0c1e" style="stroke:#3d3d3d;"/>
    </defs>
    <g clip-path="url(#p77f063fa66)">
     <use style="fill:#ffffff;stroke:#3d3d3d;" x="153.45" xlink:href="#m6842fa0c1e" y="287.133195"/>
    </g>
   </g>
   <g id="PathCollection_2">
    <g clip-path="url(#p77f063fa66)">
     <use style="fill:#ffffff;stroke:#3d3d3d;" x="333.63" xlink:href="#m6842fa0c1e" y="285.987716"/>
    </g>
   </g>
   <g id="PathCollection_3">
    <g clip-path="url(#p77f063fa66)">
     <use style="fill:#ffffff;stroke:#3d3d3d;" x="513.81" xlink:href="#m6842fa0c1e" y="286.990841"/>
    </g>
   </g>
   <g id="PathCollection_4">
    <g clip-path="url(#p77f063fa66)">
     <use style="fill:#ffffff;stroke:#3d3d3d;" x="693.99" xlink:href="#m6842fa0c1e" y="286.547089"/>
    </g>
   </g>
  </g>
  <g id="axes_2">
   <g id="table_1">
    <g id="patch_7">
     <path d="M 63.36 416.86848 
L 143.2398 416.86848 
L 143.2398 397.6056 
L 63.36 397.6056 
z
" style="fill:#ffffff;stroke:#000000;stroke-linejoin:miter;"/>
    </g>
    <g id="text_15">
     <!-- Iowa -->
     <g transform="translate(91.6124 409.996415)scale(0.1 -0.1)">
      <use xlink:href="#DejaVuSans-73"/>
      <use x="29.492188" xlink:href="#DejaVuSans-111"/>
      <use x="90.673828" xlink:href="#DejaVuSans-119"/>
      <use x="172.460938" xlink:href="#DejaVuSans-97"/>
     </g>
    </g>
    <g id="patch_8">
     <path d="M 143.2398 416.86848 
L 223.1196 416.86848 
L 223.1196 397.6056 
L 143.2398 397.6056 
z
" style="fill:#ffffff;stroke:#000000;stroke-linejoin:miter;"/>
    </g>
    <g id="text_16">
     <!-- Chicago -->
     <g transform="translate(163.083606 409.996415)scale(0.1 -0.1)">
      <use xlink:href="#DejaVuSans-67"/>
      <use x="69.824219" xlink:href="#DejaVuSans-104"/>
      <use x="133.203125" xlink:href="#DejaVuSans-105"/>
      <use x="160.986328" xlink:href="#DejaVuSans-99"/>
      <use x="215.966797" xlink:href="#DejaVuSans-97"/>
      <use x="277.246094" xlink:href="#DejaVuSans-103"/>
      <use x="340.722656" xlink:href="#DejaVuSans-111"/>
     </g>
    </g>
    <g id="patch_9">
     <path d="M 223.1196 416.86848 
L 302.9994 416.86848 
L 302.9994 397.6056 
L 223.1196 397.6056 
z
" style="fill:#ffffff;stroke:#000000;stroke-linejoin:miter;"/>
    </g>
    <g id="text_17">
     <!-- Cranford -->
     <g transform="translate(241.318094 409.996415)scale(0.1 -0.1)">
      <use xlink:href="#DejaVuSans-67"/>
      <use x="69.824219" xlink:href="#DejaVuSans-114"/>
      <use x="110.9375" xlink:href="#DejaVuSans-97"/>
      <use x="172.216797" xlink:href="#DejaVuSans-110"/>
      <use x="235.595703" xlink:href="#DejaVuSans-102"/>
      <use x="270.800781" xlink:href="#DejaVuSans-111"/>
      <use x="331.982422" xlink:href="#DejaVuSans-114"/>
      <use x="371.345703" xlink:href="#DejaVuSans-100"/>
     </g>
    </g>
    <g id="patch_10">
     <path d="M 302.9994 416.86848 
L 382.8792 416.86848 
L 382.8792 397.6056 
L 302.9994 397.6056 
z
" style="fill:#ffffff;stroke:#000000;stroke-linejoin:miter;"/>
    </g>
    <g id="text_18">
     <!-- Magnolia -->
     <g transform="translate(320.316644 409.996415)scale(0.1 -0.1)">
      <use xlink:href="#DejaVuSans-77"/>
      <use x="86.279297" xlink:href="#DejaVuSans-97"/>
      <use x="147.558594" xlink:href="#DejaVuSans-103"/>
      <use x="211.035156" xlink:href="#DejaVuSans-110"/>
      <use x="274.414062" xlink:href="#DejaVuSans-111"/>
      <use x="335.595703" xlink:href="#DejaVuSans-108"/>
      <use x="363.378906" xlink:href="#DejaVuSans-105"/>
      <use x="391.162109" xlink:href="#DejaVuSans-97"/>
     </g>
    </g>
    <g id="patch_11">
     <path d="M 9.065625 436.13136 
L 63.36 436.13136 
L 63.36 416.86848 
L 9.065625 416.86848 
z
" style="fill:#ffffff;stroke:#000000;stroke-linejoin:miter;"/>
    </g>
    <g id="text_19">
     <!-- Iowa -->
     <g transform="translate(24.525313 429.259295)scale(0.1 -0.1)">
      <use xlink:href="#DejaVuSans-73"/>
      <use x="29.492188" xlink:href="#DejaVuSans-111"/>
      <use x="90.673828" xlink:href="#DejaVuSans-119"/>
      <use x="172.460938" xlink:href="#DejaVuSans-97"/>
     </g>
    </g>
    <g id="patch_12">
     <path d="M 63.36 436.13136 
L 143.2398 436.13136 
L 143.2398 416.86848 
L 63.36 416.86848 
z
" style="fill:#ffffff;stroke:#000000;stroke-linejoin:miter;"/>
    </g>
    <g id="text_20">
     <!-- 4.9e-30 -->
     <g transform="translate(96.862758 429.259295)scale(0.1 -0.1)">
      <defs>
       <path d="M 37.796875 64.3125 
L 12.890625 25.390625 
L 37.796875 25.390625 
z
M 35.203125 72.90625 
L 47.609375 72.90625 
L 47.609375 25.390625 
L 58.015625 25.390625 
L 58.015625 17.1875 
L 47.609375 17.1875 
L 47.609375 0 
L 37.796875 0 
L 37.796875 17.1875 
L 4.890625 17.1875 
L 4.890625 26.703125 
z
" id="DejaVuSans-52"/>
       <path d="M 10.984375 1.515625 
L 10.984375 10.5 
Q 14.703125 8.734375 18.5 7.8125 
Q 22.3125 6.890625 25.984375 6.890625 
Q 35.75 6.890625 40.890625 13.453125 
Q 46.046875 20.015625 46.78125 33.40625 
Q 43.953125 29.203125 39.59375 26.953125 
Q 35.25 24.703125 29.984375 24.703125 
Q 19.046875 24.703125 12.671875 31.3125 
Q 6.296875 37.9375 6.296875 49.421875 
Q 6.296875 60.640625 12.9375 67.421875 
Q 19.578125 74.21875 30.609375 74.21875 
Q 43.265625 74.21875 49.921875 64.515625 
Q 56.59375 54.828125 56.59375 36.375 
Q 56.59375 19.140625 48.40625 8.859375 
Q 40.234375 -1.421875 26.421875 -1.421875 
Q 22.703125 -1.421875 18.890625 -0.6875 
Q 15.09375 0.046875 10.984375 1.515625 
z
M 30.609375 32.421875 
Q 37.25 32.421875 41.125 36.953125 
Q 45.015625 41.5 45.015625 49.421875 
Q 45.015625 57.28125 41.125 61.84375 
Q 37.25 66.40625 30.609375 66.40625 
Q 23.96875 66.40625 20.09375 61.84375 
Q 16.21875 57.28125 16.21875 49.421875 
Q 16.21875 41.5 20.09375 36.953125 
Q 23.96875 32.421875 30.609375 32.421875 
z
" id="DejaVuSans-57"/>
       <path d="M 4.890625 31.390625 
L 31.203125 31.390625 
L 31.203125 23.390625 
L 4.890625 23.390625 
z
" id="DejaVuSans-45"/>
       <path d="M 40.578125 39.3125 
Q 47.65625 37.796875 51.625 33 
Q 55.609375 28.21875 55.609375 21.1875 
Q 55.609375 10.40625 48.1875 4.484375 
Q 40.765625 -1.421875 27.09375 -1.421875 
Q 22.515625 -1.421875 17.65625 -0.515625 
Q 12.796875 0.390625 7.625 2.203125 
L 7.625 11.71875 
Q 11.71875 9.328125 16.59375 8.109375 
Q 21.484375 6.890625 26.8125 6.890625 
Q 36.078125 6.890625 40.9375 10.546875 
Q 45.796875 14.203125 45.796875 21.1875 
Q 45.796875 27.640625 41.28125 31.265625 
Q 36.765625 34.90625 28.71875 34.90625 
L 20.21875 34.90625 
L 20.21875 43.015625 
L 29.109375 43.015625 
Q 36.375 43.015625 40.234375 45.921875 
Q 44.09375 48.828125 44.09375 54.296875 
Q 44.09375 59.90625 40.109375 62.90625 
Q 36.140625 65.921875 28.71875 65.921875 
Q 24.65625 65.921875 20.015625 65.03125 
Q 15.375 64.15625 9.8125 62.3125 
L 9.8125 71.09375 
Q 15.4375 72.65625 20.34375 73.4375 
Q 25.25 74.21875 29.59375 74.21875 
Q 40.828125 74.21875 47.359375 69.109375 
Q 53.90625 64.015625 53.90625 55.328125 
Q 53.90625 49.265625 50.4375 45.09375 
Q 46.96875 40.921875 40.578125 39.3125 
z
" id="DejaVuSans-51"/>
      </defs>
      <use xlink:href="#DejaVuSans-52"/>
      <use x="63.623047" xlink:href="#DejaVuSans-46"/>
      <use x="95.410156" xlink:href="#DejaVuSans-57"/>
      <use x="159.033203" xlink:href="#DejaVuSans-101"/>
      <use x="220.556641" xlink:href="#DejaVuSans-45"/>
      <use x="256.640625" xlink:href="#DejaVuSans-51"/>
      <use x="320.263672" xlink:href="#DejaVuSans-48"/>
     </g>
    </g>
    <g id="patch_13">
     <path d="M 143.2398 436.13136 
L 223.1196 436.13136 
L 223.1196 416.86848 
L 143.2398 416.86848 
z
" style="fill:#ffffff;stroke:#000000;stroke-linejoin:miter;"/>
    </g>
    <g id="text_21">
     <!-- 3.45 -->
     <g transform="translate(192.865995 429.259295)scale(0.1 -0.1)">
      <use xlink:href="#DejaVuSans-51"/>
      <use x="63.623047" xlink:href="#DejaVuSans-46"/>
      <use x="95.410156" xlink:href="#DejaVuSans-52"/>
      <use x="159.033203" xlink:href="#DejaVuSans-53"/>
     </g>
    </g>
    <g id="patch_14">
     <path d="M 223.1196 436.13136 
L 302.9994 436.13136 
L 302.9994 416.86848 
L 223.1196 416.86848 
z
" style="fill:#ffffff;stroke:#000000;stroke-linejoin:miter;"/>
    </g>
    <g id="text_22">
     <!-- 15.95 -->
     <g transform="translate(266.383295 429.259295)scale(0.1 -0.1)">
      <use xlink:href="#DejaVuSans-49"/>
      <use x="63.623047" xlink:href="#DejaVuSans-53"/>
      <use x="127.246094" xlink:href="#DejaVuSans-46"/>
      <use x="159.033203" xlink:href="#DejaVuSans-57"/>
      <use x="222.65625" xlink:href="#DejaVuSans-53"/>
     </g>
    </g>
    <g id="patch_15">
     <path d="M 302.9994 436.13136 
L 382.8792 436.13136 
L 382.8792 416.86848 
L 302.9994 416.86848 
z
" style="fill:#ffffff;stroke:#000000;stroke-linejoin:miter;"/>
    </g>
    <g id="text_23">
     <!-- 25.44 -->
     <g transform="translate(346.263095 429.259295)scale(0.1 -0.1)">
      <use xlink:href="#DejaVuSans-50"/>
      <use x="63.623047" xlink:href="#DejaVuSans-53"/>
      <use x="127.246094" xlink:href="#DejaVuSans-46"/>
      <use x="159.033203" xlink:href="#DejaVuSans-52"/>
      <use x="222.65625" xlink:href="#DejaVuSans-52"/>
     </g>
    </g>
    <g id="patch_16">
     <path d="M 9.065625 455.39424 
L 63.36 455.39424 
L 63.36 436.13136 
L 9.065625 436.13136 
z
" style="fill:#ffffff;stroke:#000000;stroke-linejoin:miter;"/>
    </g>
    <g id="text_24">
     <!-- Chicago -->
     <g transform="translate(16.116719 448.522175)scale(0.1 -0.1)">
      <use xlink:href="#DejaVuSans-67"/>
      <use x="69.824219" xlink:href="#DejaVuSans-104"/>
      <use x="133.203125" xlink:href="#DejaVuSans-105"/>
      <use x="160.986328" xlink:href="#DejaVuSans-99"/>
      <use x="215.966797" xlink:href="#DejaVuSans-97"/>
      <use x="277.246094" xlink:href="#DejaVuSans-103"/>
      <use x="340.722656" xlink:href="#DejaVuSans-111"/>
     </g>
    </g>
    <g id="patch_17">
     <path d="M 63.36 455.39424 
L 143.2398 455.39424 
L 143.2398 436.13136 
L 63.36 436.13136 
z
" style="fill:#ffffff;stroke:#000000;stroke-linejoin:miter;"/>
    </g>
    <g id="text_25">
     <!-- 3.45 -->
     <g transform="translate(112.986195 448.522175)scale(0.1 -0.1)">
      <use xlink:href="#DejaVuSans-51"/>
      <use x="63.623047" xlink:href="#DejaVuSans-46"/>
      <use x="95.410156" xlink:href="#DejaVuSans-52"/>
      <use x="159.033203" xlink:href="#DejaVuSans-53"/>
     </g>
    </g>
    <g id="patch_18">
     <path d="M 143.2398 455.39424 
L 223.1196 455.39424 
L 223.1196 436.13136 
L 143.2398 436.13136 
z
" style="fill:#ffffff;stroke:#000000;stroke-linejoin:miter;"/>
    </g>
    <g id="text_26">
     <!-- 0.0 -->
     <g transform="translate(199.228495 448.522175)scale(0.1 -0.1)">
      <use xlink:href="#DejaVuSans-48"/>
      <use x="63.623047" xlink:href="#DejaVuSans-46"/>
      <use x="95.410156" xlink:href="#DejaVuSans-48"/>
     </g>
    </g>
    <g id="patch_19">
     <path d="M 223.1196 455.39424 
L 302.9994 455.39424 
L 302.9994 436.13136 
L 223.1196 436.13136 
z
" style="fill:#ffffff;stroke:#000000;stroke-linejoin:miter;"/>
    </g>
    <g id="text_27">
     <!-- 7.023 -->
     <g transform="translate(266.383295 448.522175)scale(0.1 -0.1)">
      <use xlink:href="#DejaVuSans-55"/>
      <use x="63.623047" xlink:href="#DejaVuSans-46"/>
      <use x="95.410156" xlink:href="#DejaVuSans-48"/>
      <use x="159.033203" xlink:href="#DejaVuSans-50"/>
      <use x="222.65625" xlink:href="#DejaVuSans-51"/>
     </g>
    </g>
    <g id="patch_20">
     <path d="M 302.9994 455.39424 
L 382.8792 455.39424 
L 382.8792 436.13136 
L 302.9994 436.13136 
z
" style="fill:#ffffff;stroke:#000000;stroke-linejoin:miter;"/>
    </g>
    <g id="text_28">
     <!-- 48.71 -->
     <g transform="translate(346.263095 448.522175)scale(0.1 -0.1)">
      <defs>
       <path d="M 31.78125 34.625 
Q 24.75 34.625 20.71875 30.859375 
Q 16.703125 27.09375 16.703125 20.515625 
Q 16.703125 13.921875 20.71875 10.15625 
Q 24.75 6.390625 31.78125 6.390625 
Q 38.8125 6.390625 42.859375 10.171875 
Q 46.921875 13.96875 46.921875 20.515625 
Q 46.921875 27.09375 42.890625 30.859375 
Q 38.875 34.625 31.78125 34.625 
z
M 21.921875 38.8125 
Q 15.578125 40.375 12.03125 44.71875 
Q 8.5 49.078125 8.5 55.328125 
Q 8.5 64.0625 14.71875 69.140625 
Q 20.953125 74.21875 31.78125 74.21875 
Q 42.671875 74.21875 48.875 69.140625 
Q 55.078125 64.0625 55.078125 55.328125 
Q 55.078125 49.078125 51.53125 44.71875 
Q 48 40.375 41.703125 38.8125 
Q 48.828125 37.15625 52.796875 32.3125 
Q 56.78125 27.484375 56.78125 20.515625 
Q 56.78125 9.90625 50.3125 4.234375 
Q 43.84375 -1.421875 31.78125 -1.421875 
Q 19.734375 -1.421875 13.25 4.234375 
Q 6.78125 9.90625 6.78125 20.515625 
Q 6.78125 27.484375 10.78125 32.3125 
Q 14.796875 37.15625 21.921875 38.8125 
z
M 18.3125 54.390625 
Q 18.3125 48.734375 21.84375 45.5625 
Q 25.390625 42.390625 31.78125 42.390625 
Q 38.140625 42.390625 41.71875 45.5625 
Q 45.3125 48.734375 45.3125 54.390625 
Q 45.3125 60.0625 41.71875 63.234375 
Q 38.140625 66.40625 31.78125 66.40625 
Q 25.390625 66.40625 21.84375 63.234375 
Q 18.3125 60.0625 18.3125 54.390625 
z
" id="DejaVuSans-56"/>
      </defs>
      <use xlink:href="#DejaVuSans-52"/>
      <use x="63.623047" xlink:href="#DejaVuSans-56"/>
      <use x="127.246094" xlink:href="#DejaVuSans-46"/>
      <use x="159.033203" xlink:href="#DejaVuSans-55"/>
      <use x="222.65625" xlink:href="#DejaVuSans-49"/>
     </g>
    </g>
    <g id="patch_21">
     <path d="M 9.065625 474.65712 
L 63.36 474.65712 
L 63.36 455.39424 
L 9.065625 455.39424 
z
" style="fill:#ffffff;stroke:#000000;stroke-linejoin:miter;"/>
    </g>
    <g id="text_29">
     <!-- Cranford -->
     <g transform="translate(14.471406 467.785055)scale(0.1 -0.1)">
      <use xlink:href="#DejaVuSans-67"/>
      <use x="69.824219" xlink:href="#DejaVuSans-114"/>
      <use x="110.9375" xlink:href="#DejaVuSans-97"/>
      <use x="172.216797" xlink:href="#DejaVuSans-110"/>
      <use x="235.595703" xlink:href="#DejaVuSans-102"/>
      <use x="270.800781" xlink:href="#DejaVuSans-111"/>
      <use x="331.982422" xlink:href="#DejaVuSans-114"/>
      <use x="371.345703" xlink:href="#DejaVuSans-100"/>
     </g>
    </g>
    <g id="patch_22">
     <path d="M 63.36 474.65712 
L 143.2398 474.65712 
L 143.2398 455.39424 
L 63.36 455.39424 
z
" style="fill:#ffffff;stroke:#000000;stroke-linejoin:miter;"/>
    </g>
    <g id="text_30">
     <!-- 15.95 -->
     <g transform="translate(106.623695 467.785055)scale(0.1 -0.1)">
      <use xlink:href="#DejaVuSans-49"/>
      <use x="63.623047" xlink:href="#DejaVuSans-53"/>
      <use x="127.246094" xlink:href="#DejaVuSans-46"/>
      <use x="159.033203" xlink:href="#DejaVuSans-57"/>
      <use x="222.65625" xlink:href="#DejaVuSans-53"/>
     </g>
    </g>
    <g id="patch_23">
     <path d="M 143.2398 474.65712 
L 223.1196 474.65712 
L 223.1196 455.39424 
L 143.2398 455.39424 
z
" style="fill:#ffffff;stroke:#000000;stroke-linejoin:miter;"/>
    </g>
    <g id="text_31">
     <!-- 7.023 -->
     <g transform="translate(186.503495 467.785055)scale(0.1 -0.1)">
      <use xlink:href="#DejaVuSans-55"/>
      <use x="63.623047" xlink:href="#DejaVuSans-46"/>
      <use x="95.410156" xlink:href="#DejaVuSans-48"/>
      <use x="159.033203" xlink:href="#DejaVuSans-50"/>
      <use x="222.65625" xlink:href="#DejaVuSans-51"/>
     </g>
    </g>
    <g id="patch_24">
     <path d="M 223.1196 474.65712 
L 302.9994 474.65712 
L 302.9994 455.39424 
L 223.1196 455.39424 
z
" style="fill:#ffffff;stroke:#000000;stroke-linejoin:miter;"/>
    </g>
    <g id="text_32">
     <!-- 5.074e-30 -->
     <g transform="translate(243.897357 467.785055)scale(0.1 -0.1)">
      <use xlink:href="#DejaVuSans-53"/>
      <use x="63.623047" xlink:href="#DejaVuSans-46"/>
      <use x="95.410156" xlink:href="#DejaVuSans-48"/>
      <use x="159.033203" xlink:href="#DejaVuSans-55"/>
      <use x="222.65625" xlink:href="#DejaVuSans-52"/>
      <use x="286.279297" xlink:href="#DejaVuSans-101"/>
      <use x="347.802734" xlink:href="#DejaVuSans-45"/>
      <use x="383.886719" xlink:href="#DejaVuSans-51"/>
      <use x="447.509766" xlink:href="#DejaVuSans-48"/>
     </g>
    </g>
    <g id="patch_25">
     <path d="M 302.9994 474.65712 
L 382.8792 474.65712 
L 382.8792 455.39424 
L 302.9994 455.39424 
z
" style="fill:#ffffff;stroke:#000000;stroke-linejoin:miter;"/>
    </g>
    <g id="text_33">
     <!-- 63.55 -->
     <g transform="translate(346.263095 467.785055)scale(0.1 -0.1)">
      <defs>
       <path d="M 33.015625 40.375 
Q 26.375 40.375 22.484375 35.828125 
Q 18.609375 31.296875 18.609375 23.390625 
Q 18.609375 15.53125 22.484375 10.953125 
Q 26.375 6.390625 33.015625 6.390625 
Q 39.65625 6.390625 43.53125 10.953125 
Q 47.40625 15.53125 47.40625 23.390625 
Q 47.40625 31.296875 43.53125 35.828125 
Q 39.65625 40.375 33.015625 40.375 
z
M 52.59375 71.296875 
L 52.59375 62.3125 
Q 48.875 64.0625 45.09375 64.984375 
Q 41.3125 65.921875 37.59375 65.921875 
Q 27.828125 65.921875 22.671875 59.328125 
Q 17.53125 52.734375 16.796875 39.40625 
Q 19.671875 43.65625 24.015625 45.921875 
Q 28.375 48.1875 33.59375 48.1875 
Q 44.578125 48.1875 50.953125 41.515625 
Q 57.328125 34.859375 57.328125 23.390625 
Q 57.328125 12.15625 50.6875 5.359375 
Q 44.046875 -1.421875 33.015625 -1.421875 
Q 20.359375 -1.421875 13.671875 8.265625 
Q 6.984375 17.96875 6.984375 36.375 
Q 6.984375 53.65625 15.1875 63.9375 
Q 23.390625 74.21875 37.203125 74.21875 
Q 40.921875 74.21875 44.703125 73.484375 
Q 48.484375 72.75 52.59375 71.296875 
z
" id="DejaVuSans-54"/>
      </defs>
      <use xlink:href="#DejaVuSans-54"/>
      <use x="63.623047" xlink:href="#DejaVuSans-51"/>
      <use x="127.246094" xlink:href="#DejaVuSans-46"/>
      <use x="159.033203" xlink:href="#DejaVuSans-53"/>
      <use x="222.65625" xlink:href="#DejaVuSans-53"/>
     </g>
    </g>
    <g id="patch_26">
     <path d="M 9.065625 493.92 
L 63.36 493.92 
L 63.36 474.65712 
L 9.065625 474.65712 
z
" style="fill:#ffffff;stroke:#000000;stroke-linejoin:miter;"/>
    </g>
    <g id="text_34">
     <!-- Magnolia -->
     <g transform="translate(13.590156 487.047935)scale(0.1 -0.1)">
      <use xlink:href="#DejaVuSans-77"/>
      <use x="86.279297" xlink:href="#DejaVuSans-97"/>
      <use x="147.558594" xlink:href="#DejaVuSans-103"/>
      <use x="211.035156" xlink:href="#DejaVuSans-110"/>
      <use x="274.414062" xlink:href="#DejaVuSans-111"/>
      <use x="335.595703" xlink:href="#DejaVuSans-108"/>
      <use x="363.378906" xlink:href="#DejaVuSans-105"/>
      <use x="391.162109" xlink:href="#DejaVuSans-97"/>
     </g>
    </g>
    <g id="patch_27">
     <path d="M 63.36 493.92 
L 143.2398 493.92 
L 143.2398 474.65712 
L 63.36 474.65712 
z
" style="fill:#ffffff;stroke:#000000;stroke-linejoin:miter;"/>
    </g>
    <g id="text_35">
     <!-- 25.44 -->
     <g transform="translate(106.623695 487.047935)scale(0.1 -0.1)">
      <use xlink:href="#DejaVuSans-50"/>
      <use x="63.623047" xlink:href="#DejaVuSans-53"/>
      <use x="127.246094" xlink:href="#DejaVuSans-46"/>
      <use x="159.033203" xlink:href="#DejaVuSans-52"/>
      <use x="222.65625" xlink:href="#DejaVuSans-52"/>
     </g>
    </g>
    <g id="patch_28">
     <path d="M 143.2398 493.92 
L 223.1196 493.92 
L 223.1196 474.65712 
L 143.2398 474.65712 
z
" style="fill:#ffffff;stroke:#000000;stroke-linejoin:miter;"/>
    </g>
    <g id="text_36">
     <!-- 48.71 -->
     <g transform="translate(186.503495 487.047935)scale(0.1 -0.1)">
      <use xlink:href="#DejaVuSans-52"/>
      <use x="63.623047" xlink:href="#DejaVuSans-56"/>
      <use x="127.246094" xlink:href="#DejaVuSans-46"/>
      <use x="159.033203" xlink:href="#DejaVuSans-55"/>
      <use x="222.65625" xlink:href="#DejaVuSans-49"/>
     </g>
    </g>
    <g id="patch_29">
     <path d="M 223.1196 493.92 
L 302.9994 493.92 
L 302.9994 474.65712 
L 223.1196 474.65712 
z
" style="fill:#ffffff;stroke:#000000;stroke-linejoin:miter;"/>
    </g>
    <g id="text_37">
     <!-- 63.55 -->
     <g transform="translate(266.383295 487.047935)scale(0.1 -0.1)">
      <use xlink:href="#DejaVuSans-54"/>
      <use x="63.623047" xlink:href="#DejaVuSans-51"/>
      <use x="127.246094" xlink:href="#DejaVuSans-46"/>
      <use x="159.033203" xlink:href="#DejaVuSans-53"/>
      <use x="222.65625" xlink:href="#DejaVuSans-53"/>
     </g>
    </g>
    <g id="patch_30">
     <path d="M 302.9994 493.92 
L 382.8792 493.92 
L 382.8792 474.65712 
L 302.9994 474.65712 
z
" style="fill:#ffffff;stroke:#000000;stroke-linejoin:miter;"/>
    </g>
    <g id="text_38">
     <!-- -8.654e-31 -->
     <g transform="translate(320.169345 487.047935)scale(0.1 -0.1)">
      <use xlink:href="#DejaVuSans-45"/>
      <use x="36.083984" xlink:href="#DejaVuSans-56"/>
      <use x="99.707031" xlink:href="#DejaVuSans-46"/>
      <use x="131.494141" xlink:href="#DejaVuSans-54"/>
      <use x="195.117188" xlink:href="#DejaVuSans-53"/>
      <use x="258.740234" xlink:href="#DejaVuSans-52"/>
      <use x="322.363281" xlink:href="#DejaVuSans-101"/>
      <use x="383.886719" xlink:href="#DejaVuSans-45"/>
      <use x="419.970703" xlink:href="#DejaVuSans-51"/>
      <use x="483.59375" xlink:href="#DejaVuSans-49"/>
     </g>
    </g>
   </g>
   <g id="text_39">
    <!-- F-Value -->
    <g transform="translate(188.04675 384.726)scale(0.24 -0.24)">
     <defs>
      <path d="M 9.8125 72.90625 
L 51.703125 72.90625 
L 51.703125 64.59375 
L 19.671875 64.59375 
L 19.671875 43.109375 
L 48.578125 43.109375 
L 48.578125 34.8125 
L 19.671875 34.8125 
L 19.671875 0 
L 9.8125 0 
z
" id="DejaVuSans-70"/>
      <path d="M 28.609375 0 
L 0.78125 72.90625 
L 11.078125 72.90625 
L 34.1875 11.53125 
L 57.328125 72.90625 
L 67.578125 72.90625 
L 39.796875 0 
z
" id="DejaVuSans-86"/>
     </defs>
     <use xlink:href="#DejaVuSans-70"/>
     <use x="57.519531" xlink:href="#DejaVuSans-45"/>
     <use x="87.728516" xlink:href="#DejaVuSans-86"/>
     <use x="148.386719" xlink:href="#DejaVuSans-97"/>
     <use x="209.666016" xlink:href="#DejaVuSans-108"/>
     <use x="237.449219" xlink:href="#DejaVuSans-117"/>
     <use x="300.828125" xlink:href="#DejaVuSans-101"/>
    </g>
   </g>
  </g>
  <g id="axes_3">
   <g id="table_2">
    <g id="patch_31">
     <path d="M 447.744 416.86848 
L 527.6238 416.86848 
L 527.6238 397.6056 
L 447.744 397.6056 
z
" style="fill:#ffffff;stroke:#000000;stroke-linejoin:miter;"/>
    </g>
    <g id="text_40">
     <!-- Iowa -->
     <g transform="translate(475.9964 409.996415)scale(0.1 -0.1)">
      <use xlink:href="#DejaVuSans-73"/>
      <use x="29.492188" xlink:href="#DejaVuSans-111"/>
      <use x="90.673828" xlink:href="#DejaVuSans-119"/>
      <use x="172.460938" xlink:href="#DejaVuSans-97"/>
     </g>
    </g>
    <g id="patch_32">
     <path d="M 527.6238 416.86848 
L 607.5036 416.86848 
L 607.5036 397.6056 
L 527.6238 397.6056 
z
" style="fill:#ffffff;stroke:#000000;stroke-linejoin:miter;"/>
    </g>
    <g id="text_41">
     <!-- Chicago -->
     <g transform="translate(547.467606 409.996415)scale(0.1 -0.1)">
      <use xlink:href="#DejaVuSans-67"/>
      <use x="69.824219" xlink:href="#DejaVuSans-104"/>
      <use x="133.203125" xlink:href="#DejaVuSans-105"/>
      <use x="160.986328" xlink:href="#DejaVuSans-99"/>
      <use x="215.966797" xlink:href="#DejaVuSans-97"/>
      <use x="277.246094" xlink:href="#DejaVuSans-103"/>
      <use x="340.722656" xlink:href="#DejaVuSans-111"/>
     </g>
    </g>
    <g id="patch_33">
     <path d="M 607.5036 416.86848 
L 687.3834 416.86848 
L 687.3834 397.6056 
L 607.5036 397.6056 
z
" style="fill:#ffffff;stroke:#000000;stroke-linejoin:miter;"/>
    </g>
    <g id="text_42">
     <!-- Cranford -->
     <g transform="translate(625.702094 409.996415)scale(0.1 -0.1)">
      <use xlink:href="#DejaVuSans-67"/>
      <use x="69.824219" xlink:href="#DejaVuSans-114"/>
      <use x="110.9375" xlink:href="#DejaVuSans-97"/>
      <use x="172.216797" xlink:href="#DejaVuSans-110"/>
      <use x="235.595703" xlink:href="#DejaVuSans-102"/>
      <use x="270.800781" xlink:href="#DejaVuSans-111"/>
      <use x="331.982422" xlink:href="#DejaVuSans-114"/>
      <use x="371.345703" xlink:href="#DejaVuSans-100"/>
     </g>
    </g>
    <g id="patch_34">
     <path d="M 687.3834 416.86848 
L 767.2632 416.86848 
L 767.2632 397.6056 
L 687.3834 397.6056 
z
" style="fill:#ffffff;stroke:#000000;stroke-linejoin:miter;"/>
    </g>
    <g id="text_43">
     <!-- Magnolia -->
     <g transform="translate(704.700644 409.996415)scale(0.1 -0.1)">
      <use xlink:href="#DejaVuSans-77"/>
      <use x="86.279297" xlink:href="#DejaVuSans-97"/>
      <use x="147.558594" xlink:href="#DejaVuSans-103"/>
      <use x="211.035156" xlink:href="#DejaVuSans-110"/>
      <use x="274.414062" xlink:href="#DejaVuSans-111"/>
      <use x="335.595703" xlink:href="#DejaVuSans-108"/>
      <use x="363.378906" xlink:href="#DejaVuSans-105"/>
      <use x="391.162109" xlink:href="#DejaVuSans-97"/>
     </g>
    </g>
    <g id="patch_35">
     <path d="M 393.449625 436.13136 
L 447.744 436.13136 
L 447.744 416.86848 
L 393.449625 416.86848 
z
" style="fill:#ffffff;stroke:#000000;stroke-linejoin:miter;"/>
    </g>
    <g id="text_44">
     <!-- Iowa -->
     <g transform="translate(408.909312 429.259295)scale(0.1 -0.1)">
      <use xlink:href="#DejaVuSans-73"/>
      <use x="29.492188" xlink:href="#DejaVuSans-111"/>
      <use x="90.673828" xlink:href="#DejaVuSans-119"/>
      <use x="172.460938" xlink:href="#DejaVuSans-97"/>
     </g>
    </g>
    <g id="patch_36">
     <path d="M 447.744 436.13136 
L 527.6238 436.13136 
L 527.6238 416.86848 
L 447.744 416.86848 
z
" style="fill:#ffffff;stroke:#000000;stroke-linejoin:miter;"/>
    </g>
    <g id="text_45">
     <!-- 1.0 -->
     <g transform="translate(503.732695 429.259295)scale(0.1 -0.1)">
      <use xlink:href="#DejaVuSans-49"/>
      <use x="63.623047" xlink:href="#DejaVuSans-46"/>
      <use x="95.410156" xlink:href="#DejaVuSans-48"/>
     </g>
    </g>
    <g id="patch_37">
     <path d="M 527.6238 436.13136 
L 607.5036 436.13136 
L 607.5036 416.86848 
L 527.6238 416.86848 
z
" style="fill:#ffffff;stroke:#000000;stroke-linejoin:miter;"/>
    </g>
    <g id="text_46">
     <!-- 0.06335 -->
     <g transform="translate(558.162495 429.259295)scale(0.1 -0.1)">
      <use xlink:href="#DejaVuSans-48"/>
      <use x="63.623047" xlink:href="#DejaVuSans-46"/>
      <use x="95.410156" xlink:href="#DejaVuSans-48"/>
      <use x="159.033203" xlink:href="#DejaVuSans-54"/>
      <use x="222.65625" xlink:href="#DejaVuSans-51"/>
      <use x="286.279297" xlink:href="#DejaVuSans-51"/>
      <use x="349.902344" xlink:href="#DejaVuSans-53"/>
     </g>
    </g>
    <g id="patch_38">
     <path d="M 607.5036 436.13136 
L 687.3834 436.13136 
L 687.3834 416.86848 
L 607.5036 416.86848 
z
" style="fill:#ffffff;stroke:#000000;stroke-linejoin:miter;"/>
    </g>
    <g id="text_47">
     <!-- 6.706e-05 -->
     <g transform="translate(628.281357 429.259295)scale(0.1 -0.1)">
      <use xlink:href="#DejaVuSans-54"/>
      <use x="63.623047" xlink:href="#DejaVuSans-46"/>
      <use x="95.410156" xlink:href="#DejaVuSans-55"/>
      <use x="159.033203" xlink:href="#DejaVuSans-48"/>
      <use x="222.65625" xlink:href="#DejaVuSans-54"/>
      <use x="286.279297" xlink:href="#DejaVuSans-101"/>
      <use x="347.802734" xlink:href="#DejaVuSans-45"/>
      <use x="383.886719" xlink:href="#DejaVuSans-48"/>
      <use x="447.509766" xlink:href="#DejaVuSans-53"/>
     </g>
    </g>
    <g id="patch_39">
     <path d="M 687.3834 436.13136 
L 767.2632 436.13136 
L 767.2632 416.86848 
L 687.3834 416.86848 
z
" style="fill:#ffffff;stroke:#000000;stroke-linejoin:miter;"/>
    </g>
    <g id="text_48">
     <!-- 4.903e-07 -->
     <g transform="translate(708.161157 429.259295)scale(0.1 -0.1)">
      <use xlink:href="#DejaVuSans-52"/>
      <use x="63.623047" xlink:href="#DejaVuSans-46"/>
      <use x="95.410156" xlink:href="#DejaVuSans-57"/>
      <use x="159.033203" xlink:href="#DejaVuSans-48"/>
      <use x="222.65625" xlink:href="#DejaVuSans-51"/>
      <use x="286.279297" xlink:href="#DejaVuSans-101"/>
      <use x="347.802734" xlink:href="#DejaVuSans-45"/>
      <use x="383.886719" xlink:href="#DejaVuSans-48"/>
      <use x="447.509766" xlink:href="#DejaVuSans-55"/>
     </g>
    </g>
    <g id="patch_40">
     <path d="M 393.449625 455.39424 
L 447.744 455.39424 
L 447.744 436.13136 
L 393.449625 436.13136 
z
" style="fill:#ffffff;stroke:#000000;stroke-linejoin:miter;"/>
    </g>
    <g id="text_49">
     <!-- Chicago -->
     <g transform="translate(400.500719 448.522175)scale(0.1 -0.1)">
      <use xlink:href="#DejaVuSans-67"/>
      <use x="69.824219" xlink:href="#DejaVuSans-104"/>
      <use x="133.203125" xlink:href="#DejaVuSans-105"/>
      <use x="160.986328" xlink:href="#DejaVuSans-99"/>
      <use x="215.966797" xlink:href="#DejaVuSans-97"/>
      <use x="277.246094" xlink:href="#DejaVuSans-103"/>
      <use x="340.722656" xlink:href="#DejaVuSans-111"/>
     </g>
    </g>
    <g id="patch_41">
     <path d="M 447.744 455.39424 
L 527.6238 455.39424 
L 527.6238 436.13136 
L 447.744 436.13136 
z
" style="fill:#ffffff;stroke:#000000;stroke-linejoin:miter;"/>
    </g>
    <g id="text_50">
     <!-- 0.06335 -->
     <g transform="translate(478.282695 448.522175)scale(0.1 -0.1)">
      <use xlink:href="#DejaVuSans-48"/>
      <use x="63.623047" xlink:href="#DejaVuSans-46"/>
      <use x="95.410156" xlink:href="#DejaVuSans-48"/>
      <use x="159.033203" xlink:href="#DejaVuSans-54"/>
      <use x="222.65625" xlink:href="#DejaVuSans-51"/>
      <use x="286.279297" xlink:href="#DejaVuSans-51"/>
      <use x="349.902344" xlink:href="#DejaVuSans-53"/>
     </g>
    </g>
    <g id="patch_42">
     <path d="M 527.6238 455.39424 
L 607.5036 455.39424 
L 607.5036 436.13136 
L 527.6238 436.13136 
z
" style="fill:#ffffff;stroke:#000000;stroke-linejoin:miter;"/>
    </g>
    <g id="text_51">
     <!-- 1.0 -->
     <g transform="translate(583.612495 448.522175)scale(0.1 -0.1)">
      <use xlink:href="#DejaVuSans-49"/>
      <use x="63.623047" xlink:href="#DejaVuSans-46"/>
      <use x="95.410156" xlink:href="#DejaVuSans-48"/>
     </g>
    </g>
    <g id="patch_43">
     <path d="M 607.5036 455.39424 
L 687.3834 455.39424 
L 687.3834 436.13136 
L 607.5036 436.13136 
z
" style="fill:#ffffff;stroke:#000000;stroke-linejoin:miter;"/>
    </g>
    <g id="text_52">
     <!-- 0.0081 -->
     <g transform="translate(644.404795 448.522175)scale(0.1 -0.1)">
      <use xlink:href="#DejaVuSans-48"/>
      <use x="63.623047" xlink:href="#DejaVuSans-46"/>
      <use x="95.410156" xlink:href="#DejaVuSans-48"/>
      <use x="159.033203" xlink:href="#DejaVuSans-48"/>
      <use x="222.65625" xlink:href="#DejaVuSans-56"/>
      <use x="286.279297" xlink:href="#DejaVuSans-49"/>
     </g>
    </g>
    <g id="patch_44">
     <path d="M 687.3834 455.39424 
L 767.2632 455.39424 
L 767.2632 436.13136 
L 687.3834 436.13136 
z
" style="fill:#ffffff;stroke:#000000;stroke-linejoin:miter;"/>
    </g>
    <g id="text_53">
     <!-- 3.827e-12 -->
     <g transform="translate(708.161157 448.522175)scale(0.1 -0.1)">
      <use xlink:href="#DejaVuSans-51"/>
      <use x="63.623047" xlink:href="#DejaVuSans-46"/>
      <use x="95.410156" xlink:href="#DejaVuSans-56"/>
      <use x="159.033203" xlink:href="#DejaVuSans-50"/>
      <use x="222.65625" xlink:href="#DejaVuSans-55"/>
      <use x="286.279297" xlink:href="#DejaVuSans-101"/>
      <use x="347.802734" xlink:href="#DejaVuSans-45"/>
      <use x="383.886719" xlink:href="#DejaVuSans-49"/>
      <use x="447.509766" xlink:href="#DejaVuSans-50"/>
     </g>
    </g>
    <g id="patch_45">
     <path d="M 393.449625 474.65712 
L 447.744 474.65712 
L 447.744 455.39424 
L 393.449625 455.39424 
z
" style="fill:#ffffff;stroke:#000000;stroke-linejoin:miter;"/>
    </g>
    <g id="text_54">
     <!-- Cranford -->
     <g transform="translate(398.855406 467.785055)scale(0.1 -0.1)">
      <use xlink:href="#DejaVuSans-67"/>
      <use x="69.824219" xlink:href="#DejaVuSans-114"/>
      <use x="110.9375" xlink:href="#DejaVuSans-97"/>
      <use x="172.216797" xlink:href="#DejaVuSans-110"/>
      <use x="235.595703" xlink:href="#DejaVuSans-102"/>
      <use x="270.800781" xlink:href="#DejaVuSans-111"/>
      <use x="331.982422" xlink:href="#DejaVuSans-114"/>
      <use x="371.345703" xlink:href="#DejaVuSans-100"/>
     </g>
    </g>
    <g id="patch_46">
     <path d="M 447.744 474.65712 
L 527.6238 474.65712 
L 527.6238 455.39424 
L 447.744 455.39424 
z
" style="fill:#ffffff;stroke:#000000;stroke-linejoin:miter;"/>
    </g>
    <g id="text_55">
     <!-- 6.706e-05 -->
     <g transform="translate(468.521757 467.785055)scale(0.1 -0.1)">
      <use xlink:href="#DejaVuSans-54"/>
      <use x="63.623047" xlink:href="#DejaVuSans-46"/>
      <use x="95.410156" xlink:href="#DejaVuSans-55"/>
      <use x="159.033203" xlink:href="#DejaVuSans-48"/>
      <use x="222.65625" xlink:href="#DejaVuSans-54"/>
      <use x="286.279297" xlink:href="#DejaVuSans-101"/>
      <use x="347.802734" xlink:href="#DejaVuSans-45"/>
      <use x="383.886719" xlink:href="#DejaVuSans-48"/>
      <use x="447.509766" xlink:href="#DejaVuSans-53"/>
     </g>
    </g>
    <g id="patch_47">
     <path d="M 527.6238 474.65712 
L 607.5036 474.65712 
L 607.5036 455.39424 
L 527.6238 455.39424 
z
" style="fill:#ffffff;stroke:#000000;stroke-linejoin:miter;"/>
    </g>
    <g id="text_56">
     <!-- 0.0081 -->
     <g transform="translate(564.524995 467.785055)scale(0.1 -0.1)">
      <use xlink:href="#DejaVuSans-48"/>
      <use x="63.623047" xlink:href="#DejaVuSans-46"/>
      <use x="95.410156" xlink:href="#DejaVuSans-48"/>
      <use x="159.033203" xlink:href="#DejaVuSans-48"/>
      <use x="222.65625" xlink:href="#DejaVuSans-56"/>
      <use x="286.279297" xlink:href="#DejaVuSans-49"/>
     </g>
    </g>
    <g id="patch_48">
     <path d="M 607.5036 474.65712 
L 687.3834 474.65712 
L 687.3834 455.39424 
L 607.5036 455.39424 
z
" style="fill:#ffffff;stroke:#000000;stroke-linejoin:miter;"/>
    </g>
    <g id="text_57">
     <!-- 1.0 -->
     <g transform="translate(663.492295 467.785055)scale(0.1 -0.1)">
      <use xlink:href="#DejaVuSans-49"/>
      <use x="63.623047" xlink:href="#DejaVuSans-46"/>
      <use x="95.410156" xlink:href="#DejaVuSans-48"/>
     </g>
    </g>
    <g id="patch_49">
     <path d="M 687.3834 474.65712 
L 767.2632 474.65712 
L 767.2632 455.39424 
L 687.3834 455.39424 
z
" style="fill:#ffffff;stroke:#000000;stroke-linejoin:miter;"/>
    </g>
    <g id="text_58">
     <!-- 2.931e-15 -->
     <g transform="translate(708.161157 467.785055)scale(0.1 -0.1)">
      <use xlink:href="#DejaVuSans-50"/>
      <use x="63.623047" xlink:href="#DejaVuSans-46"/>
      <use x="95.410156" xlink:href="#DejaVuSans-57"/>
      <use x="159.033203" xlink:href="#DejaVuSans-51"/>
      <use x="222.65625" xlink:href="#DejaVuSans-49"/>
      <use x="286.279297" xlink:href="#DejaVuSans-101"/>
      <use x="347.802734" xlink:href="#DejaVuSans-45"/>
      <use x="383.886719" xlink:href="#DejaVuSans-49"/>
      <use x="447.509766" xlink:href="#DejaVuSans-53"/>
     </g>
    </g>
    <g id="patch_50">
     <path d="M 393.449625 493.92 
L 447.744 493.92 
L 447.744 474.65712 
L 393.449625 474.65712 
z
" style="fill:#ffffff;stroke:#000000;stroke-linejoin:miter;"/>
    </g>
    <g id="text_59">
     <!-- Magnolia -->
     <g transform="translate(397.974156 487.047935)scale(0.1 -0.1)">
      <use xlink:href="#DejaVuSans-77"/>
      <use x="86.279297" xlink:href="#DejaVuSans-97"/>
      <use x="147.558594" xlink:href="#DejaVuSans-103"/>
      <use x="211.035156" xlink:href="#DejaVuSans-110"/>
      <use x="274.414062" xlink:href="#DejaVuSans-111"/>
      <use x="335.595703" xlink:href="#DejaVuSans-108"/>
      <use x="363.378906" xlink:href="#DejaVuSans-105"/>
      <use x="391.162109" xlink:href="#DejaVuSans-97"/>
     </g>
    </g>
    <g id="patch_51">
     <path d="M 447.744 493.92 
L 527.6238 493.92 
L 527.6238 474.65712 
L 447.744 474.65712 
z
" style="fill:#ffffff;stroke:#000000;stroke-linejoin:miter;"/>
    </g>
    <g id="text_60">
     <!-- 4.903e-07 -->
     <g transform="translate(468.521757 487.047935)scale(0.1 -0.1)">
      <use xlink:href="#DejaVuSans-52"/>
      <use x="63.623047" xlink:href="#DejaVuSans-46"/>
      <use x="95.410156" xlink:href="#DejaVuSans-57"/>
      <use x="159.033203" xlink:href="#DejaVuSans-48"/>
      <use x="222.65625" xlink:href="#DejaVuSans-51"/>
      <use x="286.279297" xlink:href="#DejaVuSans-101"/>
      <use x="347.802734" xlink:href="#DejaVuSans-45"/>
      <use x="383.886719" xlink:href="#DejaVuSans-48"/>
      <use x="447.509766" xlink:href="#DejaVuSans-55"/>
     </g>
    </g>
    <g id="patch_52">
     <path d="M 527.6238 493.92 
L 607.5036 493.92 
L 607.5036 474.65712 
L 527.6238 474.65712 
z
" style="fill:#ffffff;stroke:#000000;stroke-linejoin:miter;"/>
    </g>
    <g id="text_61">
     <!-- 3.827e-12 -->
     <g transform="translate(548.401557 487.047935)scale(0.1 -0.1)">
      <use xlink:href="#DejaVuSans-51"/>
      <use x="63.623047" xlink:href="#DejaVuSans-46"/>
      <use x="95.410156" xlink:href="#DejaVuSans-56"/>
      <use x="159.033203" xlink:href="#DejaVuSans-50"/>
      <use x="222.65625" xlink:href="#DejaVuSans-55"/>
      <use x="286.279297" xlink:href="#DejaVuSans-101"/>
      <use x="347.802734" xlink:href="#DejaVuSans-45"/>
      <use x="383.886719" xlink:href="#DejaVuSans-49"/>
      <use x="447.509766" xlink:href="#DejaVuSans-50"/>
     </g>
    </g>
    <g id="patch_53">
     <path d="M 607.5036 493.92 
L 687.3834 493.92 
L 687.3834 474.65712 
L 607.5036 474.65712 
z
" style="fill:#ffffff;stroke:#000000;stroke-linejoin:miter;"/>
    </g>
    <g id="text_62">
     <!-- 2.931e-15 -->
     <g transform="translate(628.281357 487.047935)scale(0.1 -0.1)">
      <use xlink:href="#DejaVuSans-50"/>
      <use x="63.623047" xlink:href="#DejaVuSans-46"/>
      <use x="95.410156" xlink:href="#DejaVuSans-57"/>
      <use x="159.033203" xlink:href="#DejaVuSans-51"/>
      <use x="222.65625" xlink:href="#DejaVuSans-49"/>
      <use x="286.279297" xlink:href="#DejaVuSans-101"/>
      <use x="347.802734" xlink:href="#DejaVuSans-45"/>
      <use x="383.886719" xlink:href="#DejaVuSans-49"/>
      <use x="447.509766" xlink:href="#DejaVuSans-53"/>
     </g>
    </g>
    <g id="patch_54">
     <path d="M 687.3834 493.92 
L 767.2632 493.92 
L 767.2632 474.65712 
L 687.3834 474.65712 
z
" style="fill:#ffffff;stroke:#000000;stroke-linejoin:miter;"/>
    </g>
    <g id="text_63">
     <!-- nan -->
     <g transform="translate(740.472095 487.047935)scale(0.1 -0.1)">
      <use xlink:href="#DejaVuSans-110"/>
      <use x="63.378906" xlink:href="#DejaVuSans-97"/>
      <use x="124.658203" xlink:href="#DejaVuSans-110"/>
     </g>
    </g>
   </g>
   <g id="text_64">
    <!-- p-Value -->
    <g transform="translate(571.7145 384.726)scale(0.24 -0.24)">
     <defs>
      <path d="M 18.109375 8.203125 
L 18.109375 -20.796875 
L 9.078125 -20.796875 
L 9.078125 54.6875 
L 18.109375 54.6875 
L 18.109375 46.390625 
Q 20.953125 51.265625 25.265625 53.625 
Q 29.59375 56 35.59375 56 
Q 45.5625 56 51.78125 48.09375 
Q 58.015625 40.1875 58.015625 27.296875 
Q 58.015625 14.40625 51.78125 6.484375 
Q 45.5625 -1.421875 35.59375 -1.421875 
Q 29.59375 -1.421875 25.265625 0.953125 
Q 20.953125 3.328125 18.109375 8.203125 
z
M 48.6875 27.296875 
Q 48.6875 37.203125 44.609375 42.84375 
Q 40.53125 48.484375 33.40625 48.484375 
Q 26.265625 48.484375 22.1875 42.84375 
Q 18.109375 37.203125 18.109375 27.296875 
Q 18.109375 17.390625 22.1875 11.75 
Q 26.265625 6.109375 33.40625 6.109375 
Q 40.53125 6.109375 44.609375 11.75 
Q 48.6875 17.390625 48.6875 27.296875 
z
" id="DejaVuSans-112"/>
     </defs>
     <use xlink:href="#DejaVuSans-112"/>
     <use x="63.476562" xlink:href="#DejaVuSans-45"/>
     <use x="93.685547" xlink:href="#DejaVuSans-86"/>
     <use x="154.34375" xlink:href="#DejaVuSans-97"/>
     <use x="215.623047" xlink:href="#DejaVuSans-108"/>
     <use x="243.40625" xlink:href="#DejaVuSans-117"/>
     <use x="306.785156" xlink:href="#DejaVuSans-101"/>
    </g>
   </g>
  </g>
  <g id="text_65">
   <!-- One Way Anova -->
   <g transform="translate(300.76875 28.31625)scale(0.24 -0.24)">
    <defs>
     <path d="M 39.40625 66.21875 
Q 28.65625 66.21875 22.328125 58.203125 
Q 16.015625 50.203125 16.015625 36.375 
Q 16.015625 22.609375 22.328125 14.59375 
Q 28.65625 6.59375 39.40625 6.59375 
Q 50.140625 6.59375 56.421875 14.59375 
Q 62.703125 22.609375 62.703125 36.375 
Q 62.703125 50.203125 56.421875 58.203125 
Q 50.140625 66.21875 39.40625 66.21875 
z
M 39.40625 74.21875 
Q 54.734375 74.21875 63.90625 63.9375 
Q 73.09375 53.65625 73.09375 36.375 
Q 73.09375 19.140625 63.90625 8.859375 
Q 54.734375 -1.421875 39.40625 -1.421875 
Q 24.03125 -1.421875 14.8125 8.828125 
Q 5.609375 19.09375 5.609375 36.375 
Q 5.609375 53.65625 14.8125 63.9375 
Q 24.03125 74.21875 39.40625 74.21875 
z
" id="DejaVuSans-79"/>
     <path d="M 3.328125 72.90625 
L 13.28125 72.90625 
L 28.609375 11.28125 
L 43.890625 72.90625 
L 54.984375 72.90625 
L 70.3125 11.28125 
L 85.59375 72.90625 
L 95.609375 72.90625 
L 77.296875 0 
L 64.890625 0 
L 49.515625 63.28125 
L 33.984375 0 
L 21.578125 0 
z
" id="DejaVuSans-87"/>
     <path d="M 32.171875 -5.078125 
Q 28.375 -14.84375 24.75 -17.8125 
Q 21.140625 -20.796875 15.09375 -20.796875 
L 7.90625 -20.796875 
L 7.90625 -13.28125 
L 13.1875 -13.28125 
Q 16.890625 -13.28125 18.9375 -11.515625 
Q 21 -9.765625 23.484375 -3.21875 
L 25.09375 0.875 
L 2.984375 54.6875 
L 12.5 54.6875 
L 29.59375 11.921875 
L 46.6875 54.6875 
L 56.203125 54.6875 
z
" id="DejaVuSans-121"/>
     <path d="M 34.1875 63.1875 
L 20.796875 26.90625 
L 47.609375 26.90625 
z
M 28.609375 72.90625 
L 39.796875 72.90625 
L 67.578125 0 
L 57.328125 0 
L 50.6875 18.703125 
L 17.828125 18.703125 
L 11.1875 0 
L 0.78125 0 
z
" id="DejaVuSans-65"/>
     <path d="M 2.984375 54.6875 
L 12.5 54.6875 
L 29.59375 8.796875 
L 46.6875 54.6875 
L 56.203125 54.6875 
L 35.6875 0 
L 23.484375 0 
z
" id="DejaVuSans-118"/>
    </defs>
    <use xlink:href="#DejaVuSans-79"/>
    <use x="78.710938" xlink:href="#DejaVuSans-110"/>
    <use x="142.089844" xlink:href="#DejaVuSans-101"/>
    <use x="203.613281" xlink:href="#DejaVuSans-32"/>
    <use x="235.400391" xlink:href="#DejaVuSans-87"/>
    <use x="327.902344" xlink:href="#DejaVuSans-97"/>
    <use x="389.181641" xlink:href="#DejaVuSans-121"/>
    <use x="448.361328" xlink:href="#DejaVuSans-32"/>
    <use x="480.148438" xlink:href="#DejaVuSans-65"/>
    <use x="548.556641" xlink:href="#DejaVuSans-110"/>
    <use x="611.935547" xlink:href="#DejaVuSans-111"/>
    <use x="673.117188" xlink:href="#DejaVuSans-118"/>
    <use x="732.296875" xlink:href="#DejaVuSans-97"/>
   </g>
  </g>
 </g>
 <defs>
  <clipPath id="p77f063fa66">
   <rect height="298.116" width="720.72" x="63.36" y="35.28"/>
  </clipPath>
 </defs>
</svg>
