<?xml version="1.0" encoding="utf-8" standalone="no"?>
<!DOCTYPE svg PUBLIC "-//W3C//DTD SVG 1.1//EN"
  "http://www.w3.org/Graphics/SVG/1.1/DTD/svg11.dtd">
<svg height="720pt" version="1.1" viewBox="0 0 1080 720" width="1080pt" xmlns="http://www.w3.org/2000/svg" xmlns:xlink="http://www.w3.org/1999/xlink">
 <metadata>
  <rdf:RDF xmlns:cc="http://creativecommons.org/ns#" xmlns:dc="http://purl.org/dc/elements/1.1/" xmlns:rdf="http://www.w3.org/1999/02/22-rdf-syntax-ns#">
   <cc:Work>
    <dc:type rdf:resource="http://purl.org/dc/dcmitype/StillImage"/>
    <dc:date>2021-10-13T14:30:12.148700</dc:date>
    <dc:format>image/svg+xml</dc:format>
    <dc:creator>
     <cc:Agent>
      <dc:title>Matplotlib v3.4.2, https://matplotlib.org/</dc:title>
     </cc:Agent>
    </dc:creator>
   </cc:Work>
  </rdf:RDF>
 </metadata>
 <defs>
  <style type="text/css">*{stroke-linecap:butt;stroke-linejoin:round;}</style>
 </defs>
 <g id="figure_1">
  <g id="patch_1">
   <path d="M 0 720 
L 1080 720 
L 1080 0 
L 0 0 
z
" style="fill:#f0ffff;"/>
  </g>
  <g id="axes_1">
   <g id="patch_2">
    <path d="M 135 630 
L 972 630 
L 972 86.4 
L 135 86.4 
z
" style="fill:#ffffff;"/>
   </g>
   <g id="PolyCollection_1">
    <defs>
     <path d="M 239.654344 -162.05599 
L 239.595656 -162.05599 
L 239.563496 -166.569474 
L 239.503547 -171.082958 
L 239.397568 -175.596442 
L 239.21873 -180.109926 
L 238.929517 -184.62341 
L 238.48111 -189.136894 
L 237.816544 -193.650378 
L 236.879875 -198.163862 
L 235.631369 -202.677346 
L 234.06443 -207.19083 
L 232.216055 -211.704314 
L 230.162656 -216.217798 
L 227.998978 -220.731282 
L 225.806964 -225.244766 
L 223.628 -229.75825 
L 221.451238 -234.271734 
L 219.223051 -238.785218 
L 216.872647 -243.298702 
L 214.341747 -247.812186 
L 211.605018 -252.32567 
L 208.672923 -256.839154 
L 205.57782 -261.352638 
L 202.352654 -265.866122 
L 199.014648 -270.379606 
L 195.562586 -274.893091 
L 191.989564 -279.406575 
L 188.308169 -283.920059 
L 184.582293 -288.433543 
L 180.955639 -292.947027 
L 177.660904 -297.460511 
L 174.992451 -301.973995 
L 173.237261 -306.487479 
L 172.58294 -311.000963 
L 173.042891 -315.514447 
L 174.43888 -320.027931 
L 176.454941 -324.541415 
L 178.739025 -329.054899 
L 181.005042 -333.568383 
L 183.092545 -338.081867 
L 184.968008 -342.595351 
L 186.680993 -347.108835 
L 188.304908 -351.622319 
L 189.89129 -356.135803 
L 191.453405 -360.649287 
L 192.977052 -365.162771 
L 194.442775 -369.676255 
L 195.841573 -374.189739 
L 197.175966 -378.703223 
L 198.451123 -383.216707 
L 199.66632 -387.730191 
L 200.812973 -392.243675 
L 201.878709 -396.757159 
L 202.853971 -401.270643 
L 203.738484 -405.784128 
L 204.545718 -410.297612 
L 205.303127 -414.811096 
L 206.047016 -419.32458 
L 206.814165 -423.838064 
L 207.634896 -428.351548 
L 208.531318 -432.865032 
L 209.520676 -437.378516 
L 210.620444 -441.892 
L 211.850878 -446.405484 
L 213.231987 -450.918968 
L 214.774678 -455.432452 
L 216.469713 -459.945936 
L 218.281169 -464.45942 
L 220.150246 -468.972904 
L 222.009471 -473.486388 
L 223.800183 -477.999872 
L 225.483641 -482.513356 
L 227.040847 -487.02684 
L 228.464579 -491.540324 
L 229.751935 -496.053808 
L 230.903125 -500.567292 
L 231.925179 -505.080776 
L 232.834499 -509.59426 
L 233.653702 -514.107744 
L 234.40377 -518.621228 
L 235.096587 -523.134712 
L 235.73239 -527.648196 
L 236.302902 -532.161681 
L 236.797567 -536.675165 
L 237.209563 -541.188649 
L 237.539571 -545.702133 
L 237.796904 -550.215617 
L 237.998317 -554.729101 
L 238.164919 -559.242585 
L 238.317715 -563.756069 
L 238.472886 -568.269553 
L 238.638364 -572.783037 
L 238.812968 -577.296521 
L 238.988371 -581.810005 
L 239.152945 -586.323489 
L 239.295914 -590.836973 
L 239.410418 -595.350457 
L 239.494734 -599.863941 
L 239.551683 -604.377425 
L 239.586884 -608.890909 
L 239.663116 -608.890909 
L 239.663116 -608.890909 
L 239.698317 -604.377425 
L 239.755266 -599.863941 
L 239.839582 -595.350457 
L 239.954086 -590.836973 
L 240.097055 -586.323489 
L 240.261629 -581.810005 
L 240.437032 -577.296521 
L 240.611636 -572.783037 
L 240.777114 -568.269553 
L 240.932285 -563.756069 
L 241.085081 -559.242585 
L 241.251683 -554.729101 
L 241.453096 -550.215617 
L 241.710429 -545.702133 
L 242.040437 -541.188649 
L 242.452433 -536.675165 
L 242.947098 -532.161681 
L 243.51761 -527.648196 
L 244.153413 -523.134712 
L 244.84623 -518.621228 
L 245.596298 -514.107744 
L 246.415501 -509.59426 
L 247.324821 -505.080776 
L 248.346875 -500.567292 
L 249.498065 -496.053808 
L 250.785421 -491.540324 
L 252.209153 -487.02684 
L 253.766359 -482.513356 
L 255.449817 -477.999872 
L 257.240529 -473.486388 
L 259.099754 -468.972904 
L 260.968831 -464.45942 
L 262.780287 -459.945936 
L 264.475322 -455.432452 
L 266.018013 -450.918968 
L 267.399122 -446.405484 
L 268.629556 -441.892 
L 269.729324 -437.378516 
L 270.718682 -432.865032 
L 271.615104 -428.351548 
L 272.435835 -423.838064 
L 273.202984 -419.32458 
L 273.946873 -414.811096 
L 274.704282 -410.297612 
L 275.511516 -405.784128 
L 276.396029 -401.270643 
L 277.371291 -396.757159 
L 278.437027 -392.243675 
L 279.58368 -387.730191 
L 280.798877 -383.216707 
L 282.074034 -378.703223 
L 283.408427 -374.189739 
L 284.807225 -369.676255 
L 286.272948 -365.162771 
L 287.796595 -360.649287 
L 289.35871 -356.135803 
L 290.945092 -351.622319 
L 292.569007 -347.108835 
L 294.281992 -342.595351 
L 296.157455 -338.081867 
L 298.244958 -333.568383 
L 300.510975 -329.054899 
L 302.795059 -324.541415 
L 304.81112 -320.027931 
L 306.207109 -315.514447 
L 306.66706 -311.000963 
L 306.012739 -306.487479 
L 304.257549 -301.973995 
L 301.589096 -297.460511 
L 298.294361 -292.947027 
L 294.667707 -288.433543 
L 290.941831 -283.920059 
L 287.260436 -279.406575 
L 283.687414 -274.893091 
L 280.235352 -270.379606 
L 276.897346 -265.866122 
L 273.67218 -261.352638 
L 270.577077 -256.839154 
L 267.644982 -252.32567 
L 264.908253 -247.812186 
L 262.377353 -243.298702 
L 260.026949 -238.785218 
L 257.798762 -234.271734 
L 255.622 -229.75825 
L 253.443036 -225.244766 
L 251.251022 -220.731282 
L 249.087344 -216.217798 
L 247.033945 -211.704314 
L 245.18557 -207.19083 
L 243.618631 -202.677346 
L 242.370125 -198.163862 
L 241.433456 -193.650378 
L 240.76889 -189.136894 
L 240.320483 -184.62341 
L 240.03127 -180.109926 
L 239.852432 -175.596442 
L 239.746453 -171.082958 
L 239.686504 -166.569474 
L 239.654344 -162.05599 
z
" id="m7355f82bb3" style="stroke:#3d3d3d;stroke-width:2.25;"/>
    </defs>
    <g clip-path="url(#p5a75219e69)">
     <use style="fill:#3274a1;stroke:#3d3d3d;stroke-width:2.25;" x="0" xlink:href="#m7355f82bb3" y="720"/>
    </g>
   </g>
   <g id="PolyCollection_2">
    <defs>
     <path d="M 449.22699 -114.709091 
L 448.52301 -114.709091 
L 448.174821 -118.704302 
L 447.61516 -122.699513 
L 446.814144 -126.694725 
L 445.787861 -130.689936 
L 444.596799 -134.685147 
L 443.31522 -138.680358 
L 441.986982 -142.675569 
L 440.60027 -146.670781 
L 439.105735 -150.665992 
L 437.471401 -154.661203 
L 435.737307 -158.656414 
L 434.02845 -162.651626 
L 432.510313 -166.646837 
L 431.308891 -170.642048 
L 430.44162 -174.637259 
L 429.801307 -178.632471 
L 429.204196 -182.627682 
L 428.474656 -186.622893 
L 427.517815 -190.618104 
L 426.340873 -194.613315 
L 425.015886 -198.608527 
L 423.609363 -202.603738 
L 422.119216 -206.598949 
L 420.453141 -210.59416 
L 418.460436 -214.589372 
L 416.001372 -218.584583 
L 413.017548 -222.579794 
L 409.566238 -226.575005 
L 405.804283 -230.570216 
L 401.936819 -234.565428 
L 398.160239 -238.560639 
L 394.620461 -242.55585 
L 391.392605 -246.551061 
L 388.483403 -250.546273 
L 385.859143 -254.541484 
L 383.49302 -258.536695 
L 381.406616 -262.531906 
L 379.674533 -266.527117 
L 378.38544 -270.522329 
L 377.587845 -274.51754 
L 377.257812 -278.512751 
L 377.299782 -282.507962 
L 377.563416 -286.503174 
L 377.862421 -290.498385 
L 378.006826 -294.493596 
L 377.867298 -298.488807 
L 377.459219 -302.484019 
L 376.995161 -306.47923 
L 376.85356 -310.474441 
L 377.4582 -314.469652 
L 379.1197 -318.464863 
L 381.912887 -322.460075 
L 385.642961 -326.455286 
L 389.909948 -330.450497 
L 394.240662 -334.445708 
L 398.234498 -338.44092 
L 401.668929 -342.436131 
L 404.531472 -346.431342 
L 406.977811 -350.426553 
L 409.244506 -354.421764 
L 411.555968 -358.416976 
L 414.057709 -362.412187 
L 416.790403 -366.407398 
L 419.702567 -370.402609 
L 422.6887 -374.397821 
L 425.634677 -378.393032 
L 428.453188 -382.388243 
L 431.098855 -386.383454 
L 433.562923 -390.378665 
L 435.855531 -394.373877 
L 437.985949 -398.369088 
L 439.949185 -402.364299 
L 441.723945 -406.35951 
L 443.282422 -410.354722 
L 444.605976 -414.349933 
L 445.696197 -418.345144 
L 446.573839 -422.340355 
L 447.267885 -426.335566 
L 447.804513 -430.330778 
L 448.203834 -434.325989 
L 448.48385 -438.3212 
L 448.665268 -442.316411 
L 448.772143 -446.311623 
L 448.828437 -450.306834 
L 448.853767 -454.302045 
L 448.861135 -458.297256 
L 448.857245 -462.292468 
L 448.844597 -466.287679 
L 448.824257 -470.28289 
L 448.7984 -474.278101 
L 448.7717 -478.273312 
L 448.750787 -482.268524 
L 448.741864 -486.263735 
L 448.747805 -490.258946 
L 448.766685 -494.254157 
L 448.792786 -498.249369 
L 448.819378 -502.24458 
L 448.841458 -506.239791 
L 448.856971 -510.235002 
L 448.893029 -510.235002 
L 448.893029 -510.235002 
L 448.908542 -506.239791 
L 448.930622 -502.24458 
L 448.957214 -498.249369 
L 448.983315 -494.254157 
L 449.002195 -490.258946 
L 449.008136 -486.263735 
L 448.999213 -482.268524 
L 448.9783 -478.273312 
L 448.9516 -474.278101 
L 448.925743 -470.28289 
L 448.905403 -466.287679 
L 448.892755 -462.292468 
L 448.888865 -458.297256 
L 448.896233 -454.302045 
L 448.921563 -450.306834 
L 448.977857 -446.311623 
L 449.084732 -442.316411 
L 449.26615 -438.3212 
L 449.546166 -434.325989 
L 449.945487 -430.330778 
L 450.482115 -426.335566 
L 451.176161 -422.340355 
L 452.053803 -418.345144 
L 453.144024 -414.349933 
L 454.467578 -410.354722 
L 456.026055 -406.35951 
L 457.800815 -402.364299 
L 459.764051 -398.369088 
L 461.894469 -394.373877 
L 464.187077 -390.378665 
L 466.651145 -386.383454 
L 469.296812 -382.388243 
L 472.115323 -378.393032 
L 475.0613 -374.397821 
L 478.047433 -370.402609 
L 480.959597 -366.407398 
L 483.692291 -362.412187 
L 486.194032 -358.416976 
L 488.505494 -354.421764 
L 490.772189 -350.426553 
L 493.218528 -346.431342 
L 496.081071 -342.436131 
L 499.515502 -338.44092 
L 503.509338 -334.445708 
L 507.840052 -330.450497 
L 512.107039 -326.455286 
L 515.837113 -322.460075 
L 518.6303 -318.464863 
L 520.2918 -314.469652 
L 520.89644 -310.474441 
L 520.754839 -306.47923 
L 520.290781 -302.484019 
L 519.882702 -298.488807 
L 519.743174 -294.493596 
L 519.887579 -290.498385 
L 520.186584 -286.503174 
L 520.450218 -282.507962 
L 520.492188 -278.512751 
L 520.162155 -274.51754 
L 519.36456 -270.522329 
L 518.075467 -266.527117 
L 516.343384 -262.531906 
L 514.25698 -258.536695 
L 511.890857 -254.541484 
L 509.266597 -250.546273 
L 506.357395 -246.551061 
L 503.129539 -242.55585 
L 499.589761 -238.560639 
L 495.813181 -234.565428 
L 491.945717 -230.570216 
L 488.183762 -226.575005 
L 484.732452 -222.579794 
L 481.748628 -218.584583 
L 479.289564 -214.589372 
L 477.296859 -210.59416 
L 475.630784 -206.598949 
L 474.140637 -202.603738 
L 472.734114 -198.608527 
L 471.409127 -194.613315 
L 470.232185 -190.618104 
L 469.275344 -186.622893 
L 468.545804 -182.627682 
L 467.948693 -178.632471 
L 467.30838 -174.637259 
L 466.441109 -170.642048 
L 465.239687 -166.646837 
L 463.72155 -162.651626 
L 462.012693 -158.656414 
L 460.278599 -154.661203 
L 458.644265 -150.665992 
L 457.14973 -146.670781 
L 455.763018 -142.675569 
L 454.43478 -138.680358 
L 453.153201 -134.685147 
L 451.962139 -130.689936 
L 450.935856 -126.694725 
L 450.13484 -122.699513 
L 449.575179 -118.704302 
L 449.22699 -114.709091 
z
" id="m54b283391a" style="stroke:#3d3d3d;stroke-width:2.25;"/>
    </defs>
    <g clip-path="url(#p5a75219e69)">
     <use style="fill:#e1812c;stroke:#3d3d3d;stroke-width:2.25;" x="0" xlink:href="#m54b283391a" y="720"/>
    </g>
   </g>
   <g id="PolyCollection_3">
    <defs>
     <path d="M 658.201093 -115.792071 
L 658.048907 -115.792071 
L 657.979937 -119.285682 
L 657.869578 -122.779292 
L 657.706961 -126.272902 
L 657.483404 -129.766512 
L 657.190823 -133.260122 
L 656.81651 -136.753732 
L 656.336297 -140.247342 
L 655.710824 -143.740952 
L 654.889743 -147.234562 
L 653.825099 -150.728172 
L 652.48948 -154.221782 
L 650.890916 -157.715392 
L 649.077807 -161.209002 
L 647.132777 -164.702612 
L 645.159979 -168.196222 
L 643.2717 -171.689832 
L 641.576569 -175.183442 
L 640.167091 -178.677052 
L 639.103217 -182.170662 
L 638.39295 -185.664273 
L 637.977721 -189.157883 
L 637.733696 -192.651493 
L 637.495786 -196.145103 
L 637.099666 -199.638713 
L 636.425518 -203.132323 
L 635.424124 -206.625933 
L 634.114148 -210.119543 
L 632.553926 -213.613153 
L 630.803565 -217.106763 
L 628.897885 -220.600373 
L 626.845442 -224.093983 
L 624.654433 -227.587593 
L 622.36786 -231.081203 
L 620.079512 -234.574813 
L 617.910328 -238.068423 
L 615.950633 -241.562033 
L 614.200662 -245.055643 
L 612.548426 -248.549253 
L 610.803086 -252.042864 
L 608.767562 -255.536474 
L 606.310465 -259.030084 
L 603.40106 -262.523694 
L 600.098087 -266.017304 
L 596.513288 -269.510914 
L 592.781006 -273.004524 
L 589.050016 -276.498134 
L 585.48807 -279.991744 
L 582.27684 -283.485354 
L 579.585342 -286.978964 
L 577.531731 -290.472574 
L 576.156278 -293.966184 
L 575.422515 -297.459794 
L 575.24622 -300.953404 
L 575.536747 -304.447014 
L 576.230392 -307.940624 
L 577.301287 -311.434234 
L 578.747528 -314.927844 
L 580.563082 -318.421455 
L 582.712963 -321.915065 
L 585.126278 -325.408675 
L 587.710963 -328.902285 
L 590.382025 -332.395895 
L 593.088567 -335.889505 
L 595.826316 -339.383115 
L 598.630323 -342.876725 
L 601.552566 -346.370335 
L 604.636303 -349.863945 
L 607.898817 -353.357555 
L 611.327014 -356.851165 
L 614.88183 -360.344775 
L 618.504651 -363.838385 
L 622.123307 -367.331995 
L 625.660696 -370.825605 
L 629.048426 -374.319215 
L 632.241088 -377.812825 
L 635.221797 -381.306435 
L 637.99376 -384.800046 
L 640.563366 -388.293656 
L 642.927667 -391.787266 
L 645.075369 -395.280876 
L 646.998756 -398.774486 
L 648.704857 -402.268096 
L 650.215622 -405.761706 
L 651.556973 -409.255316 
L 652.745836 -412.748926 
L 653.785222 -416.242536 
L 654.670165 -419.736146 
L 655.399046 -423.229756 
L 655.98198 -426.723366 
L 656.441516 -430.216976 
L 656.806587 -433.710586 
L 657.104201 -437.204196 
L 657.353352 -440.697806 
L 657.563402 -444.191416 
L 657.736574 -447.685026 
L 657.872456 -451.178637 
L 657.97196 -454.672247 
L 658.039114 -458.165857 
L 658.080575 -461.659467 
L 658.169425 -461.659467 
L 658.169425 -461.659467 
L 658.210886 -458.165857 
L 658.27804 -454.672247 
L 658.377544 -451.178637 
L 658.513426 -447.685026 
L 658.686598 -444.191416 
L 658.896648 -440.697806 
L 659.145799 -437.204196 
L 659.443413 -433.710586 
L 659.808484 -430.216976 
L 660.26802 -426.723366 
L 660.850954 -423.229756 
L 661.579835 -419.736146 
L 662.464778 -416.242536 
L 663.504164 -412.748926 
L 664.693027 -409.255316 
L 666.034378 -405.761706 
L 667.545143 -402.268096 
L 669.251244 -398.774486 
L 671.174631 -395.280876 
L 673.322333 -391.787266 
L 675.686634 -388.293656 
L 678.25624 -384.800046 
L 681.028203 -381.306435 
L 684.008912 -377.812825 
L 687.201574 -374.319215 
L 690.589304 -370.825605 
L 694.126693 -367.331995 
L 697.745349 -363.838385 
L 701.36817 -360.344775 
L 704.922986 -356.851165 
L 708.351183 -353.357555 
L 711.613697 -349.863945 
L 714.697434 -346.370335 
L 717.619677 -342.876725 
L 720.423684 -339.383115 
L 723.161433 -335.889505 
L 725.867975 -332.395895 
L 728.539037 -328.902285 
L 731.123722 -325.408675 
L 733.537037 -321.915065 
L 735.686918 -318.421455 
L 737.502472 -314.927844 
L 738.948713 -311.434234 
L 740.019608 -307.940624 
L 740.713253 -304.447014 
L 741.00378 -300.953404 
L 740.827485 -297.459794 
L 740.093722 -293.966184 
L 738.718269 -290.472574 
L 736.664658 -286.978964 
L 733.97316 -283.485354 
L 730.76193 -279.991744 
L 727.199984 -276.498134 
L 723.468994 -273.004524 
L 719.736712 -269.510914 
L 716.151913 -266.017304 
L 712.84894 -262.523694 
L 709.939535 -259.030084 
L 707.482438 -255.536474 
L 705.446914 -252.042864 
L 703.701574 -248.549253 
L 702.049338 -245.055643 
L 700.299367 -241.562033 
L 698.339672 -238.068423 
L 696.170488 -234.574813 
L 693.88214 -231.081203 
L 691.595567 -227.587593 
L 689.404558 -224.093983 
L 687.352115 -220.600373 
L 685.446435 -217.106763 
L 683.696074 -213.613153 
L 682.135852 -210.119543 
L 680.825876 -206.625933 
L 679.824482 -203.132323 
L 679.150334 -199.638713 
L 678.754214 -196.145103 
L 678.516304 -192.651493 
L 678.272279 -189.157883 
L 677.85705 -185.664273 
L 677.146783 -182.170662 
L 676.082909 -178.677052 
L 674.673431 -175.183442 
L 672.9783 -171.689832 
L 671.090021 -168.196222 
L 669.117223 -164.702612 
L 667.172193 -161.209002 
L 665.359084 -157.715392 
L 663.76052 -154.221782 
L 662.424901 -150.728172 
L 661.360257 -147.234562 
L 660.539176 -143.740952 
L 659.913703 -140.247342 
L 659.43349 -136.753732 
L 659.059177 -133.260122 
L 658.766596 -129.766512 
L 658.543039 -126.272902 
L 658.380422 -122.779292 
L 658.270063 -119.285682 
L 658.201093 -115.792071 
z
" id="m6a20cc4a83" style="stroke:#3d3d3d;stroke-width:2.25;"/>
    </defs>
    <g clip-path="url(#p5a75219e69)">
     <use style="fill:#3a923a;stroke:#3d3d3d;stroke-width:2.25;" x="0" xlink:href="#m6a20cc4a83" y="720"/>
    </g>
   </g>
   <g id="PolyCollection_4">
    <defs>
     <path d="M 867.41095 -116.665268 
L 867.33905 -116.665268 
L 867.293223 -120.765739 
L 867.204393 -124.866209 
L 867.04582 -128.966679 
L 866.781982 -133.067149 
L 866.366997 -137.167619 
L 865.741048 -141.268089 
L 864.826763 -145.36856 
L 863.533894 -149.46903 
L 861.784069 -153.5695 
L 859.557992 -157.66997 
L 856.9444 -161.77044 
L 854.151647 -165.87091 
L 851.454093 -169.971381 
L 849.088406 -174.071851 
L 847.158114 -178.172321 
L 845.609202 -182.272791 
L 844.295651 -186.373261 
L 843.091475 -190.473731 
L 841.971681 -194.574201 
L 841.007031 -198.674672 
L 840.28158 -202.775142 
L 839.797038 -206.875612 
L 839.428798 -210.976082 
L 838.947997 -215.076552 
L 838.073652 -219.177022 
L 836.517028 -223.277493 
L 834.02091 -227.377963 
L 830.424445 -231.478433 
L 825.758354 -235.578903 
L 820.316861 -239.679373 
L 814.627059 -243.779843 
L 809.285396 -247.880314 
L 804.727074 -251.980784 
L 801.059853 -256.081254 
L 798.068015 -260.181724 
L 795.386166 -264.282194 
L 792.73271 -268.382664 
L 790.060594 -272.483135 
L 787.55084 -276.583605 
L 785.489035 -280.684075 
L 784.13596 -284.784545 
L 783.675 -288.885015 
L 784.223111 -292.985485 
L 785.828614 -297.085956 
L 788.416325 -301.186426 
L 791.733305 -305.286896 
L 795.382756 -309.387366 
L 798.962825 -313.487836 
L 802.228938 -317.588306 
L 805.174624 -321.688776 
L 807.986364 -325.789247 
L 810.906283 -329.889717 
L 814.080861 -333.990187 
L 817.476619 -338.090657 
L 820.907779 -342.191127 
L 824.155511 -346.291597 
L 827.101626 -350.392068 
L 829.795741 -354.492538 
L 832.42292 -358.593008 
L 835.195679 -362.693478 
L 838.22858 -366.793948 
L 841.462516 -370.894418 
L 844.685703 -374.994889 
L 847.644222 -379.095359 
L 850.173052 -383.195829 
L 852.262022 -387.296299 
L 854.022003 -391.396769 
L 855.592062 -395.497239 
L 857.061951 -399.59771 
L 858.4539 -403.69818 
L 859.75136 -407.79865 
L 860.933057 -411.89912 
L 861.985192 -415.99959 
L 862.896182 -420.10006 
L 863.653281 -424.200531 
L 864.250743 -428.301001 
L 864.702293 -432.401471 
L 865.044897 -436.501941 
L 865.328389 -440.602411 
L 865.596643 -444.702881 
L 865.871413 -448.803351 
L 866.147928 -452.903822 
L 866.404046 -457.004292 
L 866.616659 -461.104762 
L 866.774958 -465.205232 
L 866.883453 -469.305702 
L 866.955751 -473.406172 
L 867.005925 -477.506643 
L 867.043615 -481.607113 
L 867.074095 -485.707583 
L 867.100785 -489.808053 
L 867.127236 -493.908523 
L 867.157144 -498.008993 
L 867.192709 -502.109464 
L 867.232957 -506.209934 
L 867.273759 -510.310404 
L 867.309868 -514.410874 
L 867.337525 -518.511344 
L 867.355834 -522.611814 
L 867.394166 -522.611814 
L 867.394166 -522.611814 
L 867.412475 -518.511344 
L 867.440132 -514.410874 
L 867.476241 -510.310404 
L 867.517043 -506.209934 
L 867.557291 -502.109464 
L 867.592856 -498.008993 
L 867.622764 -493.908523 
L 867.649215 -489.808053 
L 867.675905 -485.707583 
L 867.706385 -481.607113 
L 867.744075 -477.506643 
L 867.794249 -473.406172 
L 867.866547 -469.305702 
L 867.975042 -465.205232 
L 868.133341 -461.104762 
L 868.345954 -457.004292 
L 868.602072 -452.903822 
L 868.878587 -448.803351 
L 869.153357 -444.702881 
L 869.421611 -440.602411 
L 869.705103 -436.501941 
L 870.047707 -432.401471 
L 870.499257 -428.301001 
L 871.096719 -424.200531 
L 871.853818 -420.10006 
L 872.764808 -415.99959 
L 873.816943 -411.89912 
L 874.99864 -407.79865 
L 876.2961 -403.69818 
L 877.688049 -399.59771 
L 879.157938 -395.497239 
L 880.727997 -391.396769 
L 882.487978 -387.296299 
L 884.576948 -383.195829 
L 887.105778 -379.095359 
L 890.064297 -374.994889 
L 893.287484 -370.894418 
L 896.52142 -366.793948 
L 899.554321 -362.693478 
L 902.32708 -358.593008 
L 904.954259 -354.492538 
L 907.648374 -350.392068 
L 910.594489 -346.291597 
L 913.842221 -342.191127 
L 917.273381 -338.090657 
L 920.669139 -333.990187 
L 923.843717 -329.889717 
L 926.763636 -325.789247 
L 929.575376 -321.688776 
L 932.521062 -317.588306 
L 935.787175 -313.487836 
L 939.367244 -309.387366 
L 943.016695 -305.286896 
L 946.333675 -301.186426 
L 948.921386 -297.085956 
L 950.526889 -292.985485 
L 951.075 -288.885015 
L 950.61404 -284.784545 
L 949.260965 -280.684075 
L 947.19916 -276.583605 
L 944.689406 -272.483135 
L 942.01729 -268.382664 
L 939.363834 -264.282194 
L 936.681985 -260.181724 
L 933.690147 -256.081254 
L 930.022926 -251.980784 
L 925.464604 -247.880314 
L 920.122941 -243.779843 
L 914.433139 -239.679373 
L 908.991646 -235.578903 
L 904.325555 -231.478433 
L 900.72909 -227.377963 
L 898.232972 -223.277493 
L 896.676348 -219.177022 
L 895.802003 -215.076552 
L 895.321202 -210.976082 
L 894.952962 -206.875612 
L 894.46842 -202.775142 
L 893.742969 -198.674672 
L 892.778319 -194.574201 
L 891.658525 -190.473731 
L 890.454349 -186.373261 
L 889.140798 -182.272791 
L 887.591886 -178.172321 
L 885.661594 -174.071851 
L 883.295907 -169.971381 
L 880.598353 -165.87091 
L 877.8056 -161.77044 
L 875.192008 -157.66997 
L 872.965931 -153.5695 
L 871.216106 -149.46903 
L 869.923237 -145.36856 
L 869.008952 -141.268089 
L 868.383003 -137.167619 
L 867.968018 -133.067149 
L 867.70418 -128.966679 
L 867.545607 -124.866209 
L 867.456777 -120.765739 
L 867.41095 -116.665268 
z
" id="me116147060" style="stroke:#3d3d3d;stroke-width:2.25;"/>
    </defs>
    <g clip-path="url(#p5a75219e69)">
     <use style="fill:#c03d3e;stroke:#3d3d3d;stroke-width:2.25;" x="0" xlink:href="#me116147060" y="720"/>
    </g>
   </g>
   <g id="matplotlib.axis_1">
    <g id="xtick_1">
     <g id="line2d_1">
      <defs>
       <path d="M 0 0 
L 0 9 
" id="m1eea9a9ffd" style="stroke:#000000;stroke-width:1.875;"/>
      </defs>
      <g>
       <use style="stroke:#000000;stroke-width:1.875;" x="239.625" xlink:href="#m1eea9a9ffd" y="630"/>
      </g>
     </g>
     <g id="text_1">
      <!-- Cranford &amp; University -->
      <g transform="translate(150.457969 655.037422)scale(0.165 -0.165)">
       <defs>
        <path d="M 4122 4306 
L 4122 3641 
Q 3803 3938 3442 4084 
Q 3081 4231 2675 4231 
Q 1875 4231 1450 3742 
Q 1025 3253 1025 2328 
Q 1025 1406 1450 917 
Q 1875 428 2675 428 
Q 3081 428 3442 575 
Q 3803 722 4122 1019 
L 4122 359 
Q 3791 134 3420 21 
Q 3050 -91 2638 -91 
Q 1578 -91 968 557 
Q 359 1206 359 2328 
Q 359 3453 968 4101 
Q 1578 4750 2638 4750 
Q 3056 4750 3426 4639 
Q 3797 4528 4122 4306 
z
" id="DejaVuSans-43" transform="scale(0.015625)"/>
        <path d="M 2631 2963 
Q 2534 3019 2420 3045 
Q 2306 3072 2169 3072 
Q 1681 3072 1420 2755 
Q 1159 2438 1159 1844 
L 1159 0 
L 581 0 
L 581 3500 
L 1159 3500 
L 1159 2956 
Q 1341 3275 1631 3429 
Q 1922 3584 2338 3584 
Q 2397 3584 2469 3576 
Q 2541 3569 2628 3553 
L 2631 2963 
z
" id="DejaVuSans-72" transform="scale(0.015625)"/>
        <path d="M 2194 1759 
Q 1497 1759 1228 1600 
Q 959 1441 959 1056 
Q 959 750 1161 570 
Q 1363 391 1709 391 
Q 2188 391 2477 730 
Q 2766 1069 2766 1631 
L 2766 1759 
L 2194 1759 
z
M 3341 1997 
L 3341 0 
L 2766 0 
L 2766 531 
Q 2569 213 2275 61 
Q 1981 -91 1556 -91 
Q 1019 -91 701 211 
Q 384 513 384 1019 
Q 384 1609 779 1909 
Q 1175 2209 1959 2209 
L 2766 2209 
L 2766 2266 
Q 2766 2663 2505 2880 
Q 2244 3097 1772 3097 
Q 1472 3097 1187 3025 
Q 903 2953 641 2809 
L 641 3341 
Q 956 3463 1253 3523 
Q 1550 3584 1831 3584 
Q 2591 3584 2966 3190 
Q 3341 2797 3341 1997 
z
" id="DejaVuSans-61" transform="scale(0.015625)"/>
        <path d="M 3513 2113 
L 3513 0 
L 2938 0 
L 2938 2094 
Q 2938 2591 2744 2837 
Q 2550 3084 2163 3084 
Q 1697 3084 1428 2787 
Q 1159 2491 1159 1978 
L 1159 0 
L 581 0 
L 581 3500 
L 1159 3500 
L 1159 2956 
Q 1366 3272 1645 3428 
Q 1925 3584 2291 3584 
Q 2894 3584 3203 3211 
Q 3513 2838 3513 2113 
z
" id="DejaVuSans-6e" transform="scale(0.015625)"/>
        <path d="M 2375 4863 
L 2375 4384 
L 1825 4384 
Q 1516 4384 1395 4259 
Q 1275 4134 1275 3809 
L 1275 3500 
L 2222 3500 
L 2222 3053 
L 1275 3053 
L 1275 0 
L 697 0 
L 697 3053 
L 147 3053 
L 147 3500 
L 697 3500 
L 697 3744 
Q 697 4328 969 4595 
Q 1241 4863 1831 4863 
L 2375 4863 
z
" id="DejaVuSans-66" transform="scale(0.015625)"/>
        <path d="M 1959 3097 
Q 1497 3097 1228 2736 
Q 959 2375 959 1747 
Q 959 1119 1226 758 
Q 1494 397 1959 397 
Q 2419 397 2687 759 
Q 2956 1122 2956 1747 
Q 2956 2369 2687 2733 
Q 2419 3097 1959 3097 
z
M 1959 3584 
Q 2709 3584 3137 3096 
Q 3566 2609 3566 1747 
Q 3566 888 3137 398 
Q 2709 -91 1959 -91 
Q 1206 -91 779 398 
Q 353 888 353 1747 
Q 353 2609 779 3096 
Q 1206 3584 1959 3584 
z
" id="DejaVuSans-6f" transform="scale(0.015625)"/>
        <path d="M 2906 2969 
L 2906 4863 
L 3481 4863 
L 3481 0 
L 2906 0 
L 2906 525 
Q 2725 213 2448 61 
Q 2172 -91 1784 -91 
Q 1150 -91 751 415 
Q 353 922 353 1747 
Q 353 2572 751 3078 
Q 1150 3584 1784 3584 
Q 2172 3584 2448 3432 
Q 2725 3281 2906 2969 
z
M 947 1747 
Q 947 1113 1208 752 
Q 1469 391 1925 391 
Q 2381 391 2643 752 
Q 2906 1113 2906 1747 
Q 2906 2381 2643 2742 
Q 2381 3103 1925 3103 
Q 1469 3103 1208 2742 
Q 947 2381 947 1747 
z
" id="DejaVuSans-64" transform="scale(0.015625)"/>
        <path id="DejaVuSans-20" transform="scale(0.015625)"/>
        <path d="M 1556 2509 
Q 1272 2256 1139 2004 
Q 1006 1753 1006 1478 
Q 1006 1022 1337 719 
Q 1669 416 2169 416 
Q 2466 416 2725 514 
Q 2984 613 3213 813 
L 1556 2509 
z
M 1997 2859 
L 3584 1234 
Q 3769 1513 3872 1830 
Q 3975 2147 3994 2503 
L 4575 2503 
Q 4538 2091 4375 1687 
Q 4213 1284 3922 891 
L 4794 0 
L 4006 0 
L 3559 459 
Q 3234 181 2878 45 
Q 2522 -91 2113 -91 
Q 1359 -91 881 339 
Q 403 769 403 1441 
Q 403 1841 612 2192 
Q 822 2544 1241 2853 
Q 1091 3050 1012 3245 
Q 934 3441 934 3628 
Q 934 4134 1281 4442 
Q 1628 4750 2203 4750 
Q 2463 4750 2720 4694 
Q 2978 4638 3244 4525 
L 3244 3956 
Q 2972 4103 2725 4179 
Q 2478 4256 2266 4256 
Q 1938 4256 1733 4082 
Q 1528 3909 1528 3634 
Q 1528 3475 1620 3314 
Q 1713 3153 1997 2859 
z
" id="DejaVuSans-26" transform="scale(0.015625)"/>
        <path d="M 556 4666 
L 1191 4666 
L 1191 1831 
Q 1191 1081 1462 751 
Q 1734 422 2344 422 
Q 2950 422 3222 751 
Q 3494 1081 3494 1831 
L 3494 4666 
L 4128 4666 
L 4128 1753 
Q 4128 841 3676 375 
Q 3225 -91 2344 -91 
Q 1459 -91 1007 375 
Q 556 841 556 1753 
L 556 4666 
z
" id="DejaVuSans-55" transform="scale(0.015625)"/>
        <path d="M 603 3500 
L 1178 3500 
L 1178 0 
L 603 0 
L 603 3500 
z
M 603 4863 
L 1178 4863 
L 1178 4134 
L 603 4134 
L 603 4863 
z
" id="DejaVuSans-69" transform="scale(0.015625)"/>
        <path d="M 191 3500 
L 800 3500 
L 1894 563 
L 2988 3500 
L 3597 3500 
L 2284 0 
L 1503 0 
L 191 3500 
z
" id="DejaVuSans-76" transform="scale(0.015625)"/>
        <path d="M 3597 1894 
L 3597 1613 
L 953 1613 
Q 991 1019 1311 708 
Q 1631 397 2203 397 
Q 2534 397 2845 478 
Q 3156 559 3463 722 
L 3463 178 
Q 3153 47 2828 -22 
Q 2503 -91 2169 -91 
Q 1331 -91 842 396 
Q 353 884 353 1716 
Q 353 2575 817 3079 
Q 1281 3584 2069 3584 
Q 2775 3584 3186 3129 
Q 3597 2675 3597 1894 
z
M 3022 2063 
Q 3016 2534 2758 2815 
Q 2500 3097 2075 3097 
Q 1594 3097 1305 2825 
Q 1016 2553 972 2059 
L 3022 2063 
z
" id="DejaVuSans-65" transform="scale(0.015625)"/>
        <path d="M 2834 3397 
L 2834 2853 
Q 2591 2978 2328 3040 
Q 2066 3103 1784 3103 
Q 1356 3103 1142 2972 
Q 928 2841 928 2578 
Q 928 2378 1081 2264 
Q 1234 2150 1697 2047 
L 1894 2003 
Q 2506 1872 2764 1633 
Q 3022 1394 3022 966 
Q 3022 478 2636 193 
Q 2250 -91 1575 -91 
Q 1294 -91 989 -36 
Q 684 19 347 128 
L 347 722 
Q 666 556 975 473 
Q 1284 391 1588 391 
Q 1994 391 2212 530 
Q 2431 669 2431 922 
Q 2431 1156 2273 1281 
Q 2116 1406 1581 1522 
L 1381 1569 
Q 847 1681 609 1914 
Q 372 2147 372 2553 
Q 372 3047 722 3315 
Q 1072 3584 1716 3584 
Q 2034 3584 2315 3537 
Q 2597 3491 2834 3397 
z
" id="DejaVuSans-73" transform="scale(0.015625)"/>
        <path d="M 1172 4494 
L 1172 3500 
L 2356 3500 
L 2356 3053 
L 1172 3053 
L 1172 1153 
Q 1172 725 1289 603 
Q 1406 481 1766 481 
L 2356 481 
L 2356 0 
L 1766 0 
Q 1100 0 847 248 
Q 594 497 594 1153 
L 594 3053 
L 172 3053 
L 172 3500 
L 594 3500 
L 594 4494 
L 1172 4494 
z
" id="DejaVuSans-74" transform="scale(0.015625)"/>
        <path d="M 2059 -325 
Q 1816 -950 1584 -1140 
Q 1353 -1331 966 -1331 
L 506 -1331 
L 506 -850 
L 844 -850 
Q 1081 -850 1212 -737 
Q 1344 -625 1503 -206 
L 1606 56 
L 191 3500 
L 800 3500 
L 1894 763 
L 2988 3500 
L 3597 3500 
L 2059 -325 
z
" id="DejaVuSans-79" transform="scale(0.015625)"/>
       </defs>
       <use xlink:href="#DejaVuSans-43"/>
       <use x="69.824219" xlink:href="#DejaVuSans-72"/>
       <use x="110.9375" xlink:href="#DejaVuSans-61"/>
       <use x="172.216797" xlink:href="#DejaVuSans-6e"/>
       <use x="235.595703" xlink:href="#DejaVuSans-66"/>
       <use x="270.800781" xlink:href="#DejaVuSans-6f"/>
       <use x="331.982422" xlink:href="#DejaVuSans-72"/>
       <use x="371.345703" xlink:href="#DejaVuSans-64"/>
       <use x="434.822266" xlink:href="#DejaVuSans-20"/>
       <use x="466.609375" xlink:href="#DejaVuSans-26"/>
       <use x="544.587891" xlink:href="#DejaVuSans-20"/>
       <use x="576.375" xlink:href="#DejaVuSans-55"/>
       <use x="649.568359" xlink:href="#DejaVuSans-6e"/>
       <use x="712.947266" xlink:href="#DejaVuSans-69"/>
       <use x="740.730469" xlink:href="#DejaVuSans-76"/>
       <use x="799.910156" xlink:href="#DejaVuSans-65"/>
       <use x="861.433594" xlink:href="#DejaVuSans-72"/>
       <use x="902.546875" xlink:href="#DejaVuSans-73"/>
       <use x="954.646484" xlink:href="#DejaVuSans-69"/>
       <use x="982.429688" xlink:href="#DejaVuSans-74"/>
       <use x="1021.638672" xlink:href="#DejaVuSans-79"/>
      </g>
     </g>
    </g>
    <g id="xtick_2">
     <g id="line2d_2">
      <g>
       <use style="stroke:#000000;stroke-width:1.875;" x="448.875" xlink:href="#m1eea9a9ffd" y="630"/>
      </g>
     </g>
     <g id="text_2">
      <!-- Chicago &amp; University -->
      <g transform="translate(362.422734 655.037422)scale(0.165 -0.165)">
       <defs>
        <path d="M 3513 2113 
L 3513 0 
L 2938 0 
L 2938 2094 
Q 2938 2591 2744 2837 
Q 2550 3084 2163 3084 
Q 1697 3084 1428 2787 
Q 1159 2491 1159 1978 
L 1159 0 
L 581 0 
L 581 4863 
L 1159 4863 
L 1159 2956 
Q 1366 3272 1645 3428 
Q 1925 3584 2291 3584 
Q 2894 3584 3203 3211 
Q 3513 2838 3513 2113 
z
" id="DejaVuSans-68" transform="scale(0.015625)"/>
        <path d="M 3122 3366 
L 3122 2828 
Q 2878 2963 2633 3030 
Q 2388 3097 2138 3097 
Q 1578 3097 1268 2742 
Q 959 2388 959 1747 
Q 959 1106 1268 751 
Q 1578 397 2138 397 
Q 2388 397 2633 464 
Q 2878 531 3122 666 
L 3122 134 
Q 2881 22 2623 -34 
Q 2366 -91 2075 -91 
Q 1284 -91 818 406 
Q 353 903 353 1747 
Q 353 2603 823 3093 
Q 1294 3584 2113 3584 
Q 2378 3584 2631 3529 
Q 2884 3475 3122 3366 
z
" id="DejaVuSans-63" transform="scale(0.015625)"/>
        <path d="M 2906 1791 
Q 2906 2416 2648 2759 
Q 2391 3103 1925 3103 
Q 1463 3103 1205 2759 
Q 947 2416 947 1791 
Q 947 1169 1205 825 
Q 1463 481 1925 481 
Q 2391 481 2648 825 
Q 2906 1169 2906 1791 
z
M 3481 434 
Q 3481 -459 3084 -895 
Q 2688 -1331 1869 -1331 
Q 1566 -1331 1297 -1286 
Q 1028 -1241 775 -1147 
L 775 -588 
Q 1028 -725 1275 -790 
Q 1522 -856 1778 -856 
Q 2344 -856 2625 -561 
Q 2906 -266 2906 331 
L 2906 616 
Q 2728 306 2450 153 
Q 2172 0 1784 0 
Q 1141 0 747 490 
Q 353 981 353 1791 
Q 353 2603 747 3093 
Q 1141 3584 1784 3584 
Q 2172 3584 2450 3431 
Q 2728 3278 2906 2969 
L 2906 3500 
L 3481 3500 
L 3481 434 
z
" id="DejaVuSans-67" transform="scale(0.015625)"/>
       </defs>
       <use xlink:href="#DejaVuSans-43"/>
       <use x="69.824219" xlink:href="#DejaVuSans-68"/>
       <use x="133.203125" xlink:href="#DejaVuSans-69"/>
       <use x="160.986328" xlink:href="#DejaVuSans-63"/>
       <use x="215.966797" xlink:href="#DejaVuSans-61"/>
       <use x="277.246094" xlink:href="#DejaVuSans-67"/>
       <use x="340.722656" xlink:href="#DejaVuSans-6f"/>
       <use x="401.904297" xlink:href="#DejaVuSans-20"/>
       <use x="433.691406" xlink:href="#DejaVuSans-26"/>
       <use x="511.669922" xlink:href="#DejaVuSans-20"/>
       <use x="543.457031" xlink:href="#DejaVuSans-55"/>
       <use x="616.650391" xlink:href="#DejaVuSans-6e"/>
       <use x="680.029297" xlink:href="#DejaVuSans-69"/>
       <use x="707.8125" xlink:href="#DejaVuSans-76"/>
       <use x="766.992188" xlink:href="#DejaVuSans-65"/>
       <use x="828.515625" xlink:href="#DejaVuSans-72"/>
       <use x="869.628906" xlink:href="#DejaVuSans-73"/>
       <use x="921.728516" xlink:href="#DejaVuSans-69"/>
       <use x="949.511719" xlink:href="#DejaVuSans-74"/>
       <use x="988.720703" xlink:href="#DejaVuSans-79"/>
      </g>
     </g>
    </g>
    <g id="xtick_3">
     <g id="line2d_3">
      <g>
       <use style="stroke:#000000;stroke-width:1.875;" x="658.125" xlink:href="#m1eea9a9ffd" y="630"/>
      </g>
     </g>
     <g id="text_3">
      <!-- Magnolia &amp; Tyler -->
      <g transform="translate(589.727344 655.037422)scale(0.165 -0.165)">
       <defs>
        <path d="M 628 4666 
L 1569 4666 
L 2759 1491 
L 3956 4666 
L 4897 4666 
L 4897 0 
L 4281 0 
L 4281 4097 
L 3078 897 
L 2444 897 
L 1241 4097 
L 1241 0 
L 628 0 
L 628 4666 
z
" id="DejaVuSans-4d" transform="scale(0.015625)"/>
        <path d="M 603 4863 
L 1178 4863 
L 1178 0 
L 603 0 
L 603 4863 
z
" id="DejaVuSans-6c" transform="scale(0.015625)"/>
        <path d="M -19 4666 
L 3928 4666 
L 3928 4134 
L 2272 4134 
L 2272 0 
L 1638 0 
L 1638 4134 
L -19 4134 
L -19 4666 
z
" id="DejaVuSans-54" transform="scale(0.015625)"/>
       </defs>
       <use xlink:href="#DejaVuSans-4d"/>
       <use x="86.279297" xlink:href="#DejaVuSans-61"/>
       <use x="147.558594" xlink:href="#DejaVuSans-67"/>
       <use x="211.035156" xlink:href="#DejaVuSans-6e"/>
       <use x="274.414062" xlink:href="#DejaVuSans-6f"/>
       <use x="335.595703" xlink:href="#DejaVuSans-6c"/>
       <use x="363.378906" xlink:href="#DejaVuSans-69"/>
       <use x="391.162109" xlink:href="#DejaVuSans-61"/>
       <use x="452.441406" xlink:href="#DejaVuSans-20"/>
       <use x="484.228516" xlink:href="#DejaVuSans-26"/>
       <use x="562.207031" xlink:href="#DejaVuSans-20"/>
       <use x="593.994141" xlink:href="#DejaVuSans-54"/>
       <use x="639.453125" xlink:href="#DejaVuSans-79"/>
       <use x="698.632812" xlink:href="#DejaVuSans-6c"/>
       <use x="726.416016" xlink:href="#DejaVuSans-65"/>
       <use x="787.939453" xlink:href="#DejaVuSans-72"/>
      </g>
     </g>
    </g>
    <g id="xtick_4">
     <g id="line2d_4">
      <g>
       <use style="stroke:#000000;stroke-width:1.875;" x="867.375" xlink:href="#m1eea9a9ffd" y="630"/>
      </g>
     </g>
     <g id="text_4">
      <!-- Iowa &amp; University -->
      <g transform="translate(794.796914 655.037422)scale(0.165 -0.165)">
       <defs>
        <path d="M 628 4666 
L 1259 4666 
L 1259 0 
L 628 0 
L 628 4666 
z
" id="DejaVuSans-49" transform="scale(0.015625)"/>
        <path d="M 269 3500 
L 844 3500 
L 1563 769 
L 2278 3500 
L 2956 3500 
L 3675 769 
L 4391 3500 
L 4966 3500 
L 4050 0 
L 3372 0 
L 2619 2869 
L 1863 0 
L 1184 0 
L 269 3500 
z
" id="DejaVuSans-77" transform="scale(0.015625)"/>
       </defs>
       <use xlink:href="#DejaVuSans-49"/>
       <use x="29.492188" xlink:href="#DejaVuSans-6f"/>
       <use x="90.673828" xlink:href="#DejaVuSans-77"/>
       <use x="172.460938" xlink:href="#DejaVuSans-61"/>
       <use x="233.740234" xlink:href="#DejaVuSans-20"/>
       <use x="265.527344" xlink:href="#DejaVuSans-26"/>
       <use x="343.505859" xlink:href="#DejaVuSans-20"/>
       <use x="375.292969" xlink:href="#DejaVuSans-55"/>
       <use x="448.486328" xlink:href="#DejaVuSans-6e"/>
       <use x="511.865234" xlink:href="#DejaVuSans-69"/>
       <use x="539.648438" xlink:href="#DejaVuSans-76"/>
       <use x="598.828125" xlink:href="#DejaVuSans-65"/>
       <use x="660.351562" xlink:href="#DejaVuSans-72"/>
       <use x="701.464844" xlink:href="#DejaVuSans-73"/>
       <use x="753.564453" xlink:href="#DejaVuSans-69"/>
       <use x="781.347656" xlink:href="#DejaVuSans-74"/>
       <use x="820.556641" xlink:href="#DejaVuSans-79"/>
      </g>
     </g>
    </g>
    <g id="text_5">
     <!-- Sensor Name -->
     <g transform="translate(493.236562 676.146094)scale(0.18 -0.18)">
      <defs>
       <path d="M 3425 4513 
L 3425 3897 
Q 3066 4069 2747 4153 
Q 2428 4238 2131 4238 
Q 1616 4238 1336 4038 
Q 1056 3838 1056 3469 
Q 1056 3159 1242 3001 
Q 1428 2844 1947 2747 
L 2328 2669 
Q 3034 2534 3370 2195 
Q 3706 1856 3706 1288 
Q 3706 609 3251 259 
Q 2797 -91 1919 -91 
Q 1588 -91 1214 -16 
Q 841 59 441 206 
L 441 856 
Q 825 641 1194 531 
Q 1563 422 1919 422 
Q 2459 422 2753 634 
Q 3047 847 3047 1241 
Q 3047 1584 2836 1778 
Q 2625 1972 2144 2069 
L 1759 2144 
Q 1053 2284 737 2584 
Q 422 2884 422 3419 
Q 422 4038 858 4394 
Q 1294 4750 2059 4750 
Q 2388 4750 2728 4690 
Q 3069 4631 3425 4513 
z
" id="DejaVuSans-53" transform="scale(0.015625)"/>
       <path d="M 628 4666 
L 1478 4666 
L 3547 763 
L 3547 4666 
L 4159 4666 
L 4159 0 
L 3309 0 
L 1241 3903 
L 1241 0 
L 628 0 
L 628 4666 
z
" id="DejaVuSans-4e" transform="scale(0.015625)"/>
       <path d="M 3328 2828 
Q 3544 3216 3844 3400 
Q 4144 3584 4550 3584 
Q 5097 3584 5394 3201 
Q 5691 2819 5691 2113 
L 5691 0 
L 5113 0 
L 5113 2094 
Q 5113 2597 4934 2840 
Q 4756 3084 4391 3084 
Q 3944 3084 3684 2787 
Q 3425 2491 3425 1978 
L 3425 0 
L 2847 0 
L 2847 2094 
Q 2847 2600 2669 2842 
Q 2491 3084 2119 3084 
Q 1678 3084 1418 2786 
Q 1159 2488 1159 1978 
L 1159 0 
L 581 0 
L 581 3500 
L 1159 3500 
L 1159 2956 
Q 1356 3278 1631 3431 
Q 1906 3584 2284 3584 
Q 2666 3584 2933 3390 
Q 3200 3197 3328 2828 
z
" id="DejaVuSans-6d" transform="scale(0.015625)"/>
      </defs>
      <use xlink:href="#DejaVuSans-53"/>
      <use x="63.476562" xlink:href="#DejaVuSans-65"/>
      <use x="125" xlink:href="#DejaVuSans-6e"/>
      <use x="188.378906" xlink:href="#DejaVuSans-73"/>
      <use x="240.478516" xlink:href="#DejaVuSans-6f"/>
      <use x="301.660156" xlink:href="#DejaVuSans-72"/>
      <use x="342.773438" xlink:href="#DejaVuSans-20"/>
      <use x="374.560547" xlink:href="#DejaVuSans-4e"/>
      <use x="449.365234" xlink:href="#DejaVuSans-61"/>
      <use x="510.644531" xlink:href="#DejaVuSans-6d"/>
      <use x="608.056641" xlink:href="#DejaVuSans-65"/>
     </g>
    </g>
   </g>
   <g id="matplotlib.axis_2">
    <g id="ytick_1">
     <g id="line2d_5">
      <defs>
       <path d="M 0 0 
L -9 0 
" id="mb34ac210dd" style="stroke:#000000;stroke-width:1.875;"/>
      </defs>
      <g>
       <use style="stroke:#000000;stroke-width:1.875;" x="135" xlink:href="#mb34ac210dd" y="581.731885"/>
      </g>
     </g>
     <g id="text_6">
      <!-- 0 -->
      <g transform="translate(112.001875 588.000596)scale(0.165 -0.165)">
       <defs>
        <path d="M 2034 4250 
Q 1547 4250 1301 3770 
Q 1056 3291 1056 2328 
Q 1056 1369 1301 889 
Q 1547 409 2034 409 
Q 2525 409 2770 889 
Q 3016 1369 3016 2328 
Q 3016 3291 2770 3770 
Q 2525 4250 2034 4250 
z
M 2034 4750 
Q 2819 4750 3233 4129 
Q 3647 3509 3647 2328 
Q 3647 1150 3233 529 
Q 2819 -91 2034 -91 
Q 1250 -91 836 529 
Q 422 1150 422 2328 
Q 422 3509 836 4129 
Q 1250 4750 2034 4750 
z
" id="DejaVuSans-30" transform="scale(0.015625)"/>
       </defs>
       <use xlink:href="#DejaVuSans-30"/>
      </g>
     </g>
    </g>
    <g id="ytick_2">
     <g id="line2d_6">
      <g>
       <use style="stroke:#000000;stroke-width:1.875;" x="135" xlink:href="#mb34ac210dd" y="504.256265"/>
      </g>
     </g>
     <g id="text_7">
      <!-- 20 -->
      <g transform="translate(101.50375 510.524976)scale(0.165 -0.165)">
       <defs>
        <path d="M 1228 531 
L 3431 531 
L 3431 0 
L 469 0 
L 469 531 
Q 828 903 1448 1529 
Q 2069 2156 2228 2338 
Q 2531 2678 2651 2914 
Q 2772 3150 2772 3378 
Q 2772 3750 2511 3984 
Q 2250 4219 1831 4219 
Q 1534 4219 1204 4116 
Q 875 4013 500 3803 
L 500 4441 
Q 881 4594 1212 4672 
Q 1544 4750 1819 4750 
Q 2544 4750 2975 4387 
Q 3406 4025 3406 3419 
Q 3406 3131 3298 2873 
Q 3191 2616 2906 2266 
Q 2828 2175 2409 1742 
Q 1991 1309 1228 531 
z
" id="DejaVuSans-32" transform="scale(0.015625)"/>
       </defs>
       <use xlink:href="#DejaVuSans-32"/>
       <use x="63.623047" xlink:href="#DejaVuSans-30"/>
      </g>
     </g>
    </g>
    <g id="ytick_3">
     <g id="line2d_7">
      <g>
       <use style="stroke:#000000;stroke-width:1.875;" x="135" xlink:href="#mb34ac210dd" y="426.780645"/>
      </g>
     </g>
     <g id="text_8">
      <!-- 40 -->
      <g transform="translate(101.50375 433.049356)scale(0.165 -0.165)">
       <defs>
        <path d="M 2419 4116 
L 825 1625 
L 2419 1625 
L 2419 4116 
z
M 2253 4666 
L 3047 4666 
L 3047 1625 
L 3713 1625 
L 3713 1100 
L 3047 1100 
L 3047 0 
L 2419 0 
L 2419 1100 
L 313 1100 
L 313 1709 
L 2253 4666 
z
" id="DejaVuSans-34" transform="scale(0.015625)"/>
       </defs>
       <use xlink:href="#DejaVuSans-34"/>
       <use x="63.623047" xlink:href="#DejaVuSans-30"/>
      </g>
     </g>
    </g>
    <g id="ytick_4">
     <g id="line2d_8">
      <g>
       <use style="stroke:#000000;stroke-width:1.875;" x="135" xlink:href="#mb34ac210dd" y="349.305025"/>
      </g>
     </g>
     <g id="text_9">
      <!-- 60 -->
      <g transform="translate(101.50375 355.573736)scale(0.165 -0.165)">
       <defs>
        <path d="M 2113 2584 
Q 1688 2584 1439 2293 
Q 1191 2003 1191 1497 
Q 1191 994 1439 701 
Q 1688 409 2113 409 
Q 2538 409 2786 701 
Q 3034 994 3034 1497 
Q 3034 2003 2786 2293 
Q 2538 2584 2113 2584 
z
M 3366 4563 
L 3366 3988 
Q 3128 4100 2886 4159 
Q 2644 4219 2406 4219 
Q 1781 4219 1451 3797 
Q 1122 3375 1075 2522 
Q 1259 2794 1537 2939 
Q 1816 3084 2150 3084 
Q 2853 3084 3261 2657 
Q 3669 2231 3669 1497 
Q 3669 778 3244 343 
Q 2819 -91 2113 -91 
Q 1303 -91 875 529 
Q 447 1150 447 2328 
Q 447 3434 972 4092 
Q 1497 4750 2381 4750 
Q 2619 4750 2861 4703 
Q 3103 4656 3366 4563 
z
" id="DejaVuSans-36" transform="scale(0.015625)"/>
       </defs>
       <use xlink:href="#DejaVuSans-36"/>
       <use x="63.623047" xlink:href="#DejaVuSans-30"/>
      </g>
     </g>
    </g>
    <g id="ytick_5">
     <g id="line2d_9">
      <g>
       <use style="stroke:#000000;stroke-width:1.875;" x="135" xlink:href="#mb34ac210dd" y="271.829405"/>
      </g>
     </g>
     <g id="text_10">
      <!-- 80 -->
      <g transform="translate(101.50375 278.098116)scale(0.165 -0.165)">
       <defs>
        <path d="M 2034 2216 
Q 1584 2216 1326 1975 
Q 1069 1734 1069 1313 
Q 1069 891 1326 650 
Q 1584 409 2034 409 
Q 2484 409 2743 651 
Q 3003 894 3003 1313 
Q 3003 1734 2745 1975 
Q 2488 2216 2034 2216 
z
M 1403 2484 
Q 997 2584 770 2862 
Q 544 3141 544 3541 
Q 544 4100 942 4425 
Q 1341 4750 2034 4750 
Q 2731 4750 3128 4425 
Q 3525 4100 3525 3541 
Q 3525 3141 3298 2862 
Q 3072 2584 2669 2484 
Q 3125 2378 3379 2068 
Q 3634 1759 3634 1313 
Q 3634 634 3220 271 
Q 2806 -91 2034 -91 
Q 1263 -91 848 271 
Q 434 634 434 1313 
Q 434 1759 690 2068 
Q 947 2378 1403 2484 
z
M 1172 3481 
Q 1172 3119 1398 2916 
Q 1625 2713 2034 2713 
Q 2441 2713 2670 2916 
Q 2900 3119 2900 3481 
Q 2900 3844 2670 4047 
Q 2441 4250 2034 4250 
Q 1625 4250 1398 4047 
Q 1172 3844 1172 3481 
z
" id="DejaVuSans-38" transform="scale(0.015625)"/>
       </defs>
       <use xlink:href="#DejaVuSans-38"/>
       <use x="63.623047" xlink:href="#DejaVuSans-30"/>
      </g>
     </g>
    </g>
    <g id="ytick_6">
     <g id="line2d_10">
      <g>
       <use style="stroke:#000000;stroke-width:1.875;" x="135" xlink:href="#mb34ac210dd" y="194.353785"/>
      </g>
     </g>
     <g id="text_11">
      <!-- 100 -->
      <g transform="translate(91.005625 200.622496)scale(0.165 -0.165)">
       <defs>
        <path d="M 794 531 
L 1825 531 
L 1825 4091 
L 703 3866 
L 703 4441 
L 1819 4666 
L 2450 4666 
L 2450 531 
L 3481 531 
L 3481 0 
L 794 0 
L 794 531 
z
" id="DejaVuSans-31" transform="scale(0.015625)"/>
       </defs>
       <use xlink:href="#DejaVuSans-31"/>
       <use x="63.623047" xlink:href="#DejaVuSans-30"/>
       <use x="127.246094" xlink:href="#DejaVuSans-30"/>
      </g>
     </g>
    </g>
    <g id="ytick_7">
     <g id="line2d_11">
      <g>
       <use style="stroke:#000000;stroke-width:1.875;" x="135" xlink:href="#mb34ac210dd" y="116.878166"/>
      </g>
     </g>
     <g id="text_12">
      <!-- 120 -->
      <g transform="translate(91.005625 123.146876)scale(0.165 -0.165)">
       <use xlink:href="#DejaVuSans-31"/>
       <use x="63.623047" xlink:href="#DejaVuSans-32"/>
       <use x="127.246094" xlink:href="#DejaVuSans-30"/>
      </g>
     </g>
    </g>
    <g id="text_13">
     <!-- NO2 Highest Resolution Concentration Calibrated [ppb] -->
     <g transform="translate(83.262187 607.851562)rotate(-90)scale(0.18 -0.18)">
      <defs>
       <path d="M 2522 4238 
Q 1834 4238 1429 3725 
Q 1025 3213 1025 2328 
Q 1025 1447 1429 934 
Q 1834 422 2522 422 
Q 3209 422 3611 934 
Q 4013 1447 4013 2328 
Q 4013 3213 3611 3725 
Q 3209 4238 2522 4238 
z
M 2522 4750 
Q 3503 4750 4090 4092 
Q 4678 3434 4678 2328 
Q 4678 1225 4090 567 
Q 3503 -91 2522 -91 
Q 1538 -91 948 565 
Q 359 1222 359 2328 
Q 359 3434 948 4092 
Q 1538 4750 2522 4750 
z
" id="DejaVuSans-4f" transform="scale(0.015625)"/>
       <path d="M 628 4666 
L 1259 4666 
L 1259 2753 
L 3553 2753 
L 3553 4666 
L 4184 4666 
L 4184 0 
L 3553 0 
L 3553 2222 
L 1259 2222 
L 1259 0 
L 628 0 
L 628 4666 
z
" id="DejaVuSans-48" transform="scale(0.015625)"/>
       <path d="M 2841 2188 
Q 3044 2119 3236 1894 
Q 3428 1669 3622 1275 
L 4263 0 
L 3584 0 
L 2988 1197 
Q 2756 1666 2539 1819 
Q 2322 1972 1947 1972 
L 1259 1972 
L 1259 0 
L 628 0 
L 628 4666 
L 2053 4666 
Q 2853 4666 3247 4331 
Q 3641 3997 3641 3322 
Q 3641 2881 3436 2590 
Q 3231 2300 2841 2188 
z
M 1259 4147 
L 1259 2491 
L 2053 2491 
Q 2509 2491 2742 2702 
Q 2975 2913 2975 3322 
Q 2975 3731 2742 3939 
Q 2509 4147 2053 4147 
L 1259 4147 
z
" id="DejaVuSans-52" transform="scale(0.015625)"/>
       <path d="M 544 1381 
L 544 3500 
L 1119 3500 
L 1119 1403 
Q 1119 906 1312 657 
Q 1506 409 1894 409 
Q 2359 409 2629 706 
Q 2900 1003 2900 1516 
L 2900 3500 
L 3475 3500 
L 3475 0 
L 2900 0 
L 2900 538 
Q 2691 219 2414 64 
Q 2138 -91 1772 -91 
Q 1169 -91 856 284 
Q 544 659 544 1381 
z
M 1991 3584 
L 1991 3584 
z
" id="DejaVuSans-75" transform="scale(0.015625)"/>
       <path d="M 3116 1747 
Q 3116 2381 2855 2742 
Q 2594 3103 2138 3103 
Q 1681 3103 1420 2742 
Q 1159 2381 1159 1747 
Q 1159 1113 1420 752 
Q 1681 391 2138 391 
Q 2594 391 2855 752 
Q 3116 1113 3116 1747 
z
M 1159 2969 
Q 1341 3281 1617 3432 
Q 1894 3584 2278 3584 
Q 2916 3584 3314 3078 
Q 3713 2572 3713 1747 
Q 3713 922 3314 415 
Q 2916 -91 2278 -91 
Q 1894 -91 1617 61 
Q 1341 213 1159 525 
L 1159 0 
L 581 0 
L 581 4863 
L 1159 4863 
L 1159 2969 
z
" id="DejaVuSans-62" transform="scale(0.015625)"/>
       <path d="M 550 4863 
L 1875 4863 
L 1875 4416 
L 1125 4416 
L 1125 -397 
L 1875 -397 
L 1875 -844 
L 550 -844 
L 550 4863 
z
" id="DejaVuSans-5b" transform="scale(0.015625)"/>
       <path d="M 1159 525 
L 1159 -1331 
L 581 -1331 
L 581 3500 
L 1159 3500 
L 1159 2969 
Q 1341 3281 1617 3432 
Q 1894 3584 2278 3584 
Q 2916 3584 3314 3078 
Q 3713 2572 3713 1747 
Q 3713 922 3314 415 
Q 2916 -91 2278 -91 
Q 1894 -91 1617 61 
Q 1341 213 1159 525 
z
M 3116 1747 
Q 3116 2381 2855 2742 
Q 2594 3103 2138 3103 
Q 1681 3103 1420 2742 
Q 1159 2381 1159 1747 
Q 1159 1113 1420 752 
Q 1681 391 2138 391 
Q 2594 391 2855 752 
Q 3116 1113 3116 1747 
z
" id="DejaVuSans-70" transform="scale(0.015625)"/>
       <path d="M 1947 4863 
L 1947 -844 
L 622 -844 
L 622 -397 
L 1369 -397 
L 1369 4416 
L 622 4416 
L 622 4863 
L 1947 4863 
z
" id="DejaVuSans-5d" transform="scale(0.015625)"/>
      </defs>
      <use xlink:href="#DejaVuSans-4e"/>
      <use x="74.804688" xlink:href="#DejaVuSans-4f"/>
      <use x="153.515625" xlink:href="#DejaVuSans-32"/>
      <use x="217.138672" xlink:href="#DejaVuSans-20"/>
      <use x="248.925781" xlink:href="#DejaVuSans-48"/>
      <use x="324.121094" xlink:href="#DejaVuSans-69"/>
      <use x="351.904297" xlink:href="#DejaVuSans-67"/>
      <use x="415.380859" xlink:href="#DejaVuSans-68"/>
      <use x="478.759766" xlink:href="#DejaVuSans-65"/>
      <use x="540.283203" xlink:href="#DejaVuSans-73"/>
      <use x="592.382812" xlink:href="#DejaVuSans-74"/>
      <use x="631.591797" xlink:href="#DejaVuSans-20"/>
      <use x="663.378906" xlink:href="#DejaVuSans-52"/>
      <use x="728.361328" xlink:href="#DejaVuSans-65"/>
      <use x="789.884766" xlink:href="#DejaVuSans-73"/>
      <use x="841.984375" xlink:href="#DejaVuSans-6f"/>
      <use x="903.166016" xlink:href="#DejaVuSans-6c"/>
      <use x="930.949219" xlink:href="#DejaVuSans-75"/>
      <use x="994.328125" xlink:href="#DejaVuSans-74"/>
      <use x="1033.537109" xlink:href="#DejaVuSans-69"/>
      <use x="1061.320312" xlink:href="#DejaVuSans-6f"/>
      <use x="1122.501953" xlink:href="#DejaVuSans-6e"/>
      <use x="1185.880859" xlink:href="#DejaVuSans-20"/>
      <use x="1217.667969" xlink:href="#DejaVuSans-43"/>
      <use x="1287.492188" xlink:href="#DejaVuSans-6f"/>
      <use x="1348.673828" xlink:href="#DejaVuSans-6e"/>
      <use x="1412.052734" xlink:href="#DejaVuSans-63"/>
      <use x="1467.033203" xlink:href="#DejaVuSans-65"/>
      <use x="1528.556641" xlink:href="#DejaVuSans-6e"/>
      <use x="1591.935547" xlink:href="#DejaVuSans-74"/>
      <use x="1631.144531" xlink:href="#DejaVuSans-72"/>
      <use x="1672.257812" xlink:href="#DejaVuSans-61"/>
      <use x="1733.537109" xlink:href="#DejaVuSans-74"/>
      <use x="1772.746094" xlink:href="#DejaVuSans-69"/>
      <use x="1800.529297" xlink:href="#DejaVuSans-6f"/>
      <use x="1861.710938" xlink:href="#DejaVuSans-6e"/>
      <use x="1925.089844" xlink:href="#DejaVuSans-20"/>
      <use x="1956.876953" xlink:href="#DejaVuSans-43"/>
      <use x="2026.701172" xlink:href="#DejaVuSans-61"/>
      <use x="2087.980469" xlink:href="#DejaVuSans-6c"/>
      <use x="2115.763672" xlink:href="#DejaVuSans-69"/>
      <use x="2143.546875" xlink:href="#DejaVuSans-62"/>
      <use x="2207.023438" xlink:href="#DejaVuSans-72"/>
      <use x="2248.136719" xlink:href="#DejaVuSans-61"/>
      <use x="2309.416016" xlink:href="#DejaVuSans-74"/>
      <use x="2348.625" xlink:href="#DejaVuSans-65"/>
      <use x="2410.148438" xlink:href="#DejaVuSans-64"/>
      <use x="2473.625" xlink:href="#DejaVuSans-20"/>
      <use x="2505.412109" xlink:href="#DejaVuSans-5b"/>
      <use x="2544.425781" xlink:href="#DejaVuSans-70"/>
      <use x="2607.902344" xlink:href="#DejaVuSans-70"/>
      <use x="2671.378906" xlink:href="#DejaVuSans-62"/>
      <use x="2734.855469" xlink:href="#DejaVuSans-5d"/>
     </g>
    </g>
   </g>
   <g id="line2d_12">
    <path clip-path="url(#p5a75219e69)" d="M 239.625 529.009725 
L 239.625 170.530032 
" style="fill:none;stroke:#3d3d3d;stroke-linecap:square;stroke-width:2.25;"/>
   </g>
   <g id="line2d_13">
    <path clip-path="url(#p5a75219e69)" d="M 239.625 422.112739 
L 239.625 320.939264 
" style="fill:none;stroke:#3d3d3d;stroke-linecap:square;stroke-width:6.75;"/>
   </g>
   <g id="line2d_14">
    <path clip-path="url(#p5a75219e69)" d="M 448.875 581.731885 
L 448.875 297.280146 
" style="fill:none;stroke:#3d3d3d;stroke-linecap:square;stroke-width:2.25;"/>
   </g>
   <g id="line2d_15">
    <path clip-path="url(#p5a75219e69)" d="M 448.875 473.595288 
L 448.875 396.255251 
" style="fill:none;stroke:#3d3d3d;stroke-linecap:square;stroke-width:6.75;"/>
   </g>
   <g id="line2d_16">
    <path clip-path="url(#p5a75219e69)" d="M 658.125 570.226755 
L 658.125 280.816577 
" style="fill:none;stroke:#3d3d3d;stroke-linecap:square;stroke-width:2.25;"/>
   </g>
   <g id="line2d_17">
    <path clip-path="url(#p5a75219e69)" d="M 658.125 462.167634 
L 658.125 388.66264 
" style="fill:none;stroke:#3d3d3d;stroke-linecap:square;stroke-width:6.75;"/>
   </g>
   <g id="line2d_18">
    <path clip-path="url(#p5a75219e69)" d="M 867.375 575.107719 
L 867.375 288.254237 
" style="fill:none;stroke:#3d3d3d;stroke-linecap:square;stroke-width:2.25;"/>
   </g>
   <g id="line2d_19">
    <path clip-path="url(#p5a75219e69)" d="M 867.375 469.082333 
L 867.375 396.293989 
" style="fill:none;stroke:#3d3d3d;stroke-linecap:square;stroke-width:6.75;"/>
   </g>
   <g id="patch_3">
    <path d="M 135 630 
L 135 86.4 
" style="fill:none;stroke:#000000;stroke-linecap:square;stroke-linejoin:miter;stroke-width:1.875;"/>
   </g>
   <g id="patch_4">
    <path d="M 972 630 
L 972 86.4 
" style="fill:none;stroke:#000000;stroke-linecap:square;stroke-linejoin:miter;stroke-width:1.875;"/>
   </g>
   <g id="patch_5">
    <path d="M 135 630 
L 972 630 
" style="fill:none;stroke:#000000;stroke-linecap:square;stroke-linejoin:miter;stroke-width:1.875;"/>
   </g>
   <g id="patch_6">
    <path d="M 135 86.4 
L 972 86.4 
" style="fill:none;stroke:#000000;stroke-linecap:square;stroke-linejoin:miter;stroke-width:1.875;"/>
   </g>
   <g id="PathCollection_1">
    <defs>
     <path d="M 0 2.25 
C 0.596707 2.25 1.169055 2.012926 1.59099 1.59099 
C 2.012926 1.169055 2.25 0.596707 2.25 0 
C 2.25 -0.596707 2.012926 -1.169055 1.59099 -1.59099 
C 1.169055 -2.012926 0.596707 -2.25 0 -2.25 
C -0.596707 -2.25 -1.169055 -2.012926 -1.59099 -1.59099 
C -2.012926 -1.169055 -2.25 -0.596707 -2.25 0 
C -2.25 0.596707 -2.012926 1.169055 -1.59099 1.59099 
C -1.169055 2.012926 -0.596707 2.25 0 2.25 
z
" id="m269e1923e0" style="stroke:#3d3d3d;stroke-width:1.5;"/>
    </defs>
    <g clip-path="url(#p5a75219e69)">
     <use style="fill:#ffffff;stroke:#3d3d3d;stroke-width:1.5;" x="239.625" xlink:href="#m269e1923e0" y="381.263718"/>
    </g>
   </g>
   <g id="PathCollection_2">
    <g clip-path="url(#p5a75219e69)">
     <use style="fill:#ffffff;stroke:#3d3d3d;stroke-width:1.5;" x="448.875" xlink:href="#m269e1923e0" y="434.024615"/>
    </g>
   </g>
   <g id="PathCollection_3">
    <g clip-path="url(#p5a75219e69)">
     <use style="fill:#ffffff;stroke:#3d3d3d;stroke-width:1.5;" x="658.125" xlink:href="#m269e1923e0" y="422.98434"/>
    </g>
   </g>
   <g id="PathCollection_4">
    <g clip-path="url(#p5a75219e69)">
     <use style="fill:#ffffff;stroke:#3d3d3d;stroke-width:1.5;" x="867.375" xlink:href="#m269e1923e0" y="433.05617"/>
    </g>
   </g>
  </g>
  <g id="text_14">
   <!-- Calibrated NO2 Distribution -->
   <g transform="translate(390.867188 30.812625)scale(0.216 -0.216)">
    <defs>
     <path d="M 1259 4147 
L 1259 519 
L 2022 519 
Q 2988 519 3436 956 
Q 3884 1394 3884 2338 
Q 3884 3275 3436 3711 
Q 2988 4147 2022 4147 
L 1259 4147 
z
M 628 4666 
L 1925 4666 
Q 3281 4666 3915 4102 
Q 4550 3538 4550 2338 
Q 4550 1131 3912 565 
Q 3275 0 1925 0 
L 628 0 
L 628 4666 
z
" id="DejaVuSans-44" transform="scale(0.015625)"/>
    </defs>
    <use xlink:href="#DejaVuSans-43"/>
    <use x="69.824219" xlink:href="#DejaVuSans-61"/>
    <use x="131.103516" xlink:href="#DejaVuSans-6c"/>
    <use x="158.886719" xlink:href="#DejaVuSans-69"/>
    <use x="186.669922" xlink:href="#DejaVuSans-62"/>
    <use x="250.146484" xlink:href="#DejaVuSans-72"/>
    <use x="291.259766" xlink:href="#DejaVuSans-61"/>
    <use x="352.539062" xlink:href="#DejaVuSans-74"/>
    <use x="391.748047" xlink:href="#DejaVuSans-65"/>
    <use x="453.271484" xlink:href="#DejaVuSans-64"/>
    <use x="516.748047" xlink:href="#DejaVuSans-20"/>
    <use x="548.535156" xlink:href="#DejaVuSans-4e"/>
    <use x="623.339844" xlink:href="#DejaVuSans-4f"/>
    <use x="702.050781" xlink:href="#DejaVuSans-32"/>
    <use x="765.673828" xlink:href="#DejaVuSans-20"/>
    <use x="797.460938" xlink:href="#DejaVuSans-44"/>
    <use x="874.462891" xlink:href="#DejaVuSans-69"/>
    <use x="902.246094" xlink:href="#DejaVuSans-73"/>
    <use x="954.345703" xlink:href="#DejaVuSans-74"/>
    <use x="993.554688" xlink:href="#DejaVuSans-72"/>
    <use x="1034.667969" xlink:href="#DejaVuSans-69"/>
    <use x="1062.451172" xlink:href="#DejaVuSans-62"/>
    <use x="1125.927734" xlink:href="#DejaVuSans-75"/>
    <use x="1189.306641" xlink:href="#DejaVuSans-74"/>
    <use x="1228.515625" xlink:href="#DejaVuSans-69"/>
    <use x="1256.298828" xlink:href="#DejaVuSans-6f"/>
    <use x="1317.480469" xlink:href="#DejaVuSans-6e"/>
   </g>
  </g>
 </g>
 <defs>
  <clipPath id="p5a75219e69">
   <rect height="543.6" width="837" x="135" y="86.4"/>
  </clipPath>
 </defs>
</svg>
